<?xml version="1.0" encoding="utf-8"?>
<!-- Generator: Adobe Illustrator 28.0.0, SVG Export Plug-In . SVG Version: 6.00 Build 0)  -->
<svg version="1.1" id="svg9343769337" xmlns="http://www.w3.org/2000/svg" xmlns:xlink="http://www.w3.org/1999/xlink" x="0px"
	 y="0px" viewBox="0 0 24 24" style="enable-background:new 0 0 24 24;" xml:space="preserve">
<style type="text/css">
	.st0{fill:none;stroke:#FFFFFF;stroke-width:2;stroke-miterlimit:10;}
</style>
<path class="st0" d="M2,8c0,1.3,8.1,5,10,5s10-3.7,10-5s-8.1-5-10-5S2,6.7,2,8z"/>
<path class="st0" d="M6,11l0.2,5.6c0,0.1,0,0.2,0.1,0.3c0.1,0.3,0.3,0.6,0.6,0.8c2.2,1.6,8,1.6,10.3,0c0.3-0.2,0.5-0.5,0.6-0.8
	c0-0.1,0-0.2,0.1-0.3L18,11 M20.5,9.5v7 M20.5,16.5c-0.8,1.4-1.1,2.2-1.5,3.5c-0.1,0.5,0,0.7,0.3,0.9c0.1,0.1,0.3,0.1,0.4,0.1h1.5
	c0.2,0,0.3,0,0.5-0.1C22,20.7,22,20.5,22,20C21.7,18.8,21.3,18,20.5,16.5z"/>
</svg>
