<?xml version="1.0" encoding="utf-8"?>
<!-- Generator: Adobe Illustrator 28.0.0, SVG Export Plug-In . SVG Version: 6.00 Build 0)  -->
<svg version="1.1" id="svg10036848425" xmlns="http://www.w3.org/2000/svg" xmlns:xlink="http://www.w3.org/1999/xlink" x="0px"
	 y="0px" viewBox="0 0 24 24" style="enable-background:new 0 0 24 24;" xml:space="preserve">
<style type="text/css">
	.st0{fill:none;stroke:#FFFFFF;stroke-width:2;stroke-miterlimit:10;}
</style>
<path class="st0" d="M14.3,3l1.9,3.7c0.3,0.5,0.9,1,1.5,1.1L21,8.4c2.1,0.4,2.7,1.9,1.1,3.5l-2.6,2.6c-0.4,0.4-0.7,1.3-0.5,1.9
	l0.7,3.3c0.6,2.6-0.8,3.6-3,2.2l-3.1-1.9c-0.6-0.3-1.5-0.3-2.1,0l-3.1,1.9c-2.3,1.3-3.6,0.3-3-2.2L6,16.4c0.1-0.6-0.1-1.5-0.5-1.9
	l-2.6-2.6c-1.5-1.6-1-3.1,1.1-3.5l3.4-0.6c0.6-0.1,1.2-0.6,1.5-1.1L10.6,3C11.6,1,13.3,1,14.3,3L14.3,3z"/>
</svg>
