<?xml version="1.0" encoding="utf-8"?>
<!-- Generator: Adobe Illustrator 28.0.0, SVG Export Plug-In . SVG Version: 6.00 Build 0)  -->
<svg version="1.1" id="svg10465345789" xmlns="http://www.w3.org/2000/svg" xmlns:xlink="http://www.w3.org/1999/xlink" x="0px"
	 y="0px" viewBox="0 0 24 24" style="enable-background:new 0 0 24 24;" xml:space="preserve">
<style type="text/css">
	.st0{fill:none;stroke:#FFFFFF;stroke-width:2;stroke-miterlimit:10;}
</style>
<path class="st0" d="M18.2,14.2c0.4,0.7,1.3,1,2,0.7c0.7-0.4,1-1.3,0.7-2s-1.3-1-2-0.7C18.1,12.5,17.8,13.4,18.2,14.2z M18.2,14.2
	l-3.3,1.7 M14.8,15.8c-0.3-0.6-1-1-1.7-0.8c-0.7,0.2-1.2,0.8-1.2,1.5c0,0.7,0.5,1.3,1.2,1.5c0.7,0.2,1.4-0.2,1.7-0.8 M14.8,15.8
	c0.2,0.4,0.2,0.9,0,1.3 M14.8,17.2l3.3,1.7 M18.2,18.8c-0.4,0.7-0.1,1.6,0.7,2c0.7,0.4,1.6,0.1,2-0.7c0.4-0.7,0.1-1.6-0.7-2
	C19.4,17.8,18.5,18.1,18.2,18.8z"/>
<path class="st0" d="M13,21h-1c-4.7,0-7.1,0-8.6-1.5C2,18.1,2,15.7,2,11V7.9c0-1.8,0-2.7,0.4-3.4c0.3-0.5,0.7-0.9,1.2-1.2
	C4.2,3,5.1,3,7,3c1.2,0,1.8,0,2.3,0.2c1.2,0.4,1.6,1.5,2.2,2.5L12,7 M8,7h8.8c2.1,0,3.2,0,3.9,0.5C21,7.7,21.3,8,21.5,8.3
	c0.3,0.4,0.4,0.9,0.5,1.7"/>
</svg>
