<?xml version="1.0" encoding="utf-8"?>
<!-- Generator: Adobe Illustrator 28.0.0, SVG Export Plug-In . SVG Version: 6.00 Build 0)  -->
<svg version="1.1" id="svg11479324271" xmlns="http://www.w3.org/2000/svg" xmlns:xlink="http://www.w3.org/1999/xlink" x="0px"
	 y="0px" viewBox="0 0 24 24" style="enable-background:new 0 0 24 24;" xml:space="preserve">
<style type="text/css">
	.st0{fill:none;stroke:#FFFFFF;stroke-width:2;stroke-miterlimit:10;}
</style>
<path class="st0" d="M13,7c0,2.2-1.8,4-4,4S5,9.2,5,7s1.8-4,4-4S13,4.8,13,7z"/>
<path class="st0" d="M15,11c2.2,0,4-1.8,4-4s-1.8-4-4-4"/>
<path class="st0" d="M11,14H7c-2.8,0-5,2.2-5,5c0,1.1,0.9,2,2,2h10c1.1,0,2-0.9,2-2C16,16.2,13.8,14,11,14z"/>
<path class="st0" d="M17,14c2.8,0,5,2.2,5,5c0,1.1-0.9,2-2,2h-1.5"/>
</svg>
