<?xml version="1.0" encoding="utf-8"?>
<!-- Generator: Adobe Illustrator 28.0.0, SVG Export Plug-In . SVG Version: 6.00 Build 0)  -->
<svg version="1.1" id="svg11547454938" xmlns="http://www.w3.org/2000/svg" xmlns:xlink="http://www.w3.org/1999/xlink" x="0px"
	 y="0px" viewBox="0 0 24 24" style="enable-background:new 0 0 24 24;" xml:space="preserve">
<style type="text/css">
	.st0{fill-rule:evenodd;clip-rule:evenodd;fill:#161616;}
</style>
<path class="st0" d="M15.5,3c0.1-0.1,0.4-0.2,0.8-0.2c0.4,0,0.9,0,1.7,0c0.8,0,1.3,0,1.7,0c0.4,0,0.6,0.1,0.8,0.2
	c0.2,0.1,0.4,0.3,0.5,0.5c0.1,0.1,0.2,0.4,0.2,0.8c0,0.4,0,0.9,0,1.7c0,0.8,0,1.3,0,1.7c0,0.4-0.1,0.6-0.2,0.8
	c-0.1,0.2-0.3,0.4-0.5,0.5c-0.1,0.1-0.4,0.2-0.8,0.2c-0.4,0-0.9,0-1.7,0c-0.8,0-1.3,0-1.7,0c-0.4,0-0.6-0.1-0.8-0.2
	c-0.2-0.1-0.4-0.3-0.5-0.5c-0.1-0.1-0.2-0.4-0.2-0.8c0-0.4,0-0.9,0-1.7c0-0.8,0-1.3,0-1.7c0-0.4,0.1-0.6,0.2-0.8
	C15.1,3.3,15.3,3.1,15.5,3z M18,1.2L18,1.2c-0.8,0-1.4,0-1.9,0c-0.5,0-1,0.2-1.4,0.4c-0.4,0.3-0.8,0.6-1,1c-0.3,0.4-0.4,0.9-0.4,1.4
	c0,0.5,0,1.1,0,1.8V6c0,0.7,0,1.3,0,1.8c0,0.5,0.2,1,0.4,1.4c0.3,0.4,0.6,0.8,1,1c0.4,0.3,0.9,0.4,1.4,0.4c0.5,0,1.1,0,1.8,0H18
	c0.7,0,1.3,0,1.8,0c0.5,0,1-0.2,1.4-0.4c0.4-0.3,0.8-0.6,1-1c0.3-0.4,0.4-0.9,0.4-1.4c0-0.5,0-1.1,0-1.8V6c0-0.7,0-1.3,0-1.8
	c0-0.5-0.2-1-0.4-1.4c-0.3-0.4-0.6-0.8-1-1c-0.4-0.3-0.9-0.4-1.4-0.4C19.4,1.2,18.8,1.2,18,1.2z"/>
<path class="st0" d="M4.3,2.8C3.9,2.8,3.7,2.9,3.5,3C3.3,3.1,3.1,3.3,3,3.5C2.9,3.7,2.8,3.9,2.8,4.3c0,0.4,0,0.9,0,1.7
	c0,0.8,0,1.3,0,1.7c0,0.4,0.1,0.6,0.2,0.8C3.1,8.7,3.3,8.9,3.5,9c0.1,0.1,0.4,0.2,0.8,0.2c0.4,0,0.9,0,1.7,0c0.8,0,1.3,0,1.7,0
	c0.4,0,0.6-0.1,0.8-0.2C8.7,8.9,8.9,8.7,9,8.5c0.1-0.1,0.2-0.4,0.2-0.8c0-0.4,0-0.9,0-1.7c0-0.8,0-1.3,0-1.7c0-0.4-0.1-0.6-0.2-0.8
	C8.9,3.3,8.7,3.1,8.5,3C8.3,2.9,8.1,2.8,7.7,2.8c-0.4,0-0.9,0-1.7,0C5.2,2.8,4.7,2.8,4.3,2.8z M6,1.2L6,1.2c0.8,0,1.4,0,1.9,0
	c0.5,0,1,0.2,1.4,0.4c0.4,0.3,0.8,0.6,1,1c0.3,0.4,0.4,0.9,0.4,1.4c0,0.5,0,1.1,0,1.8V6c0,0.7,0,1.3,0,1.8c0,0.5-0.2,1-0.4,1.4
	c-0.3,0.4-0.6,0.8-1,1c-0.4,0.3-0.9,0.4-1.4,0.4c-0.5,0-1.1,0-1.8,0H6c-0.7,0-1.3,0-1.8,0c-0.5,0-1-0.2-1.4-0.4
	c-0.4-0.3-0.8-0.6-1-1C1.4,8.8,1.3,8.4,1.3,7.9c0-0.5,0-1.1,0-1.8V6c0-0.7,0-1.3,0-1.8c0-0.5,0.2-1,0.4-1.4c0.3-0.4,0.6-0.8,1-1
	c0.4-0.3,0.9-0.4,1.4-0.4C4.6,1.2,5.2,1.2,6,1.2z"/>
<path class="st0" d="M3.5,15c0.1-0.1,0.4-0.2,0.8-0.2c0.4,0,0.9,0,1.7,0c0.8,0,1.3,0,1.7,0c0.4,0,0.6,0.1,0.8,0.2
	c0.2,0.1,0.4,0.3,0.5,0.5c0.1,0.1,0.2,0.4,0.2,0.8c0,0.4,0,0.9,0,1.7c0,0.8,0,1.3,0,1.7c0,0.4-0.1,0.6-0.2,0.8
	c-0.1,0.2-0.3,0.4-0.5,0.5c-0.1,0.1-0.4,0.2-0.8,0.2c-0.4,0-0.9,0-1.7,0c-0.8,0-1.3,0-1.7,0c-0.4,0-0.6-0.1-0.8-0.2
	c-0.2-0.1-0.4-0.3-0.5-0.5c-0.1-0.1-0.2-0.4-0.2-0.8c0-0.4,0-0.9,0-1.7c0-0.8,0-1.3,0-1.7c0-0.4,0.1-0.6,0.2-0.8
	C3.1,15.3,3.3,15.1,3.5,15z M6,13.2c-0.7,0-1.3,0-1.8,0c-0.5,0-1,0.2-1.4,0.4c-0.4,0.3-0.8,0.6-1,1c-0.3,0.4-0.4,0.9-0.4,1.4
	c0,0.5,0,1.1,0,1.8V18c0,0.7,0,1.3,0,1.8c0,0.5,0.2,1,0.4,1.4c0.3,0.4,0.6,0.8,1,1c0.4,0.3,0.9,0.4,1.4,0.4c0.5,0,1.1,0,1.8,0H6
	c0.7,0,1.3,0,1.8,0c0.5,0,1-0.2,1.4-0.4c0.4-0.3,0.8-0.6,1-1c0.3-0.4,0.4-0.9,0.4-1.4c0-0.5,0-1.1,0-1.8V18c0-0.7,0-1.3,0-1.8
	c0-0.5-0.2-1-0.4-1.4c-0.3-0.4-0.6-0.8-1-1c-0.4-0.3-0.9-0.4-1.4-0.4C7.4,13.2,6.8,13.2,6,13.2L6,13.2z"/>
<path class="st0" d="M15.5,15c0.1-0.1,0.4-0.2,0.8-0.2c0.4,0,0.9,0,1.7,0c0.8,0,1.3,0,1.7,0c0.4,0,0.6,0.1,0.8,0.2
	c0.2,0.1,0.4,0.3,0.5,0.5c0.1,0.1,0.2,0.4,0.2,0.8c0,0.4,0,0.9,0,1.7c0,0.8,0,1.3,0,1.7c0,0.4-0.1,0.6-0.2,0.8
	c-0.1,0.2-0.3,0.4-0.5,0.5c-0.1,0.1-0.4,0.2-0.8,0.2c-0.4,0-0.9,0-1.7,0c-0.8,0-1.3,0-1.7,0c-0.4,0-0.6-0.1-0.8-0.2
	c-0.2-0.1-0.4-0.3-0.5-0.5c-0.1-0.1-0.2-0.4-0.2-0.8c0-0.4,0-0.9,0-1.7c0-0.8,0-1.3,0-1.7c0-0.4,0.1-0.6,0.2-0.8
	C15.1,15.3,15.3,15.1,15.5,15z M19.9,13.3c-0.5,0-1.1,0-1.8,0H18c-0.7,0-1.3,0-1.8,0c-0.5,0-1,0.2-1.4,0.4c-0.4,0.3-0.8,0.6-1,1
	c-0.3,0.4-0.4,0.9-0.4,1.4c0,0.5,0,1.1,0,1.8V18c0,0.7,0,1.3,0,1.8c0,0.5,0.2,1,0.4,1.4c0.3,0.4,0.6,0.8,1,1
	c0.4,0.3,0.9,0.4,1.4,0.4c0.5,0,1.1,0,1.8,0H18c0.7,0,1.3,0,1.8,0c0.5,0,1-0.2,1.4-0.4c0.4-0.3,0.8-0.6,1-1c0.3-0.4,0.4-0.9,0.4-1.4
	c0-0.5,0-1.1,0-1.8V18c0-0.7,0-1.3,0-1.8c0-0.5-0.2-1-0.4-1.4c-0.3-0.4-0.6-0.8-1-1C20.8,13.4,20.4,13.3,19.9,13.3z"/>
</svg>
