<?xml version="1.0" encoding="utf-8"?>
<!-- Generator: Adobe Illustrator 28.0.0, SVG Export Plug-In . SVG Version: 6.00 Build 0)  -->
<svg version="1.1" id="Layer_1" focusable="false" xmlns="http://www.w3.org/2000/svg" xmlns:xlink="http://www.w3.org/1999/xlink"
	 x="0px" y="0px" viewBox="0 0 256 256" style="enable-background:new 0 0 256 256;" xml:space="preserve">
<g>
	<path d="M208,56v32c0,4.4-3.6,8-8,8s-8-3.6-8-8V64h-56v128h24c4.4,0,8,3.6,8,8s-3.6,8-8,8H96c-4.4,0-8-3.6-8-8s3.6-8,8-8h24V64H64
		v24c0,4.4-3.6,8-8,8s-8-3.6-8-8V56c0-4.4,3.6-8,8-8h144C204.4,48,208,51.6,208,56z"/>
</g>
</svg>
