<?xml version="1.0" encoding="utf-8"?>
<!-- Generator: Adobe Illustrator 28.0.0, SVG Export Plug-In . SVG Version: 6.00 Build 0)  -->
<svg version="1.1" id="Layer_1" focusable="false" xmlns="http://www.w3.org/2000/svg" xmlns:xlink="http://www.w3.org/1999/xlink"
	 x="0px" y="0px" viewBox="0 0 256 256" style="enable-background:new 0 0 256 256;" xml:space="preserve">
<style type="text/css">
	.st0{fill:#161616;}
	.st1{fill-rule:evenodd;clip-rule:evenodd;fill:#161616;}
</style>
<path class="st0" d="M91.4,47.8c0-3.6-2.9-6.5-6.5-6.5c-3.6,0-6.5,2.9-6.5,6.5v28h-28c-3.6,0-6.5,2.9-6.5,6.5c0,3.6,2.9,6.5,6.5,6.5
	h28v28c0,3.6,2.9,6.5,6.5,6.5c3.6,0,6.5-2.9,6.5-6.5v-28h28c3.6,0,6.5-2.9,6.5-6.5c0-3.6-2.9-6.5-6.5-6.5h-28V47.8z"/>
<path class="st1" d="M161.7,210.2c-4,1.4-8.7,2.3-14.5,2.7c4.6-6,7.4-13.4,7.4-21.6c0-1.6-0.1-3.3-0.1-5l0-0.4l0,0
	c-0.2-3.9-0.4-8,0.4-11c0.7-2.7,2.9-4.9,5.6-5.6c3-0.8,7-0.6,10.9-0.4l0.1,0l0.3,0c1.6,0.1,3.3,0.1,5,0.1c8.2,0,15.8-2.8,21.8-7.6
	c-0.5,7.2-1.3,12.5-3.1,16.9C189.7,193.1,177.4,204.7,161.7,210.2z M112.3,226.6c-16.2,0-24.4,0-31.6-2.5c-11.7-4.1-21-12.8-25.4-24
	c-2.8-7-2.8-14.7-2.8-30.1v-36c0-3.6,2.9-6.5,6.5-6.5c3.6,0,6.5,2.9,6.5,6.5v36c0,13.7,0,20.7,1.9,25.3c3,7.6,9.5,13.7,17.6,16.5
	c5.2,1.8,12.6,1.8,27.3,1.8c2.4,0,4.6,0,6.8,0c0.1,0,0.2,0,0.3,0c12.3,0,22.3-10,22.3-22.3c0-1.4-0.1-2.9-0.1-4.4l0-0.3
	c-0.2-4.7-0.5-10,0.9-15c1.9-7.2,7.6-12.8,14.7-14.7c5-1.3,10.3-1.1,15-0.9l0.3,0c1.6,0.1,3.1,0.1,4.5,0.1c12,0,21.8-9.5,22.2-21.4
	l0-24.4c0-24.9,0-37.4-5.9-44.8c-1.7-2.2-3.7-4.1-6-5.7c-8.1-5.7-21.5-5.7-48.2-5.7h-2.4c-3.6,0-6.5-2.9-6.5-6.5
	c0-3.6,2.9-6.5,6.5-6.5h2.4c29.4,0,44.2,0,55.6,8.1c3.3,2.3,6.2,5.1,8.7,8.2c8.7,11,8.7,25,8.7,52.9v22.9c0,0.2,0,0.4,0,0.6
	c0,0.5,0,0.9,0,1.4c0,24.4-0.2,37-4.5,47.9c-7.2,18.1-22.3,32.4-41.5,39.1c-10.8,3.8-23.2,4.1-46.1,4.2c-0.2,0-0.3,0-0.5,0
	C117.1,226.6,114.8,226.6,112.3,226.6L112.3,226.6z"/>
</svg>
