<?xml version="1.0" encoding="utf-8"?>
<!-- Generator: Adobe Illustrator 28.0.0, SVG Export Plug-In . SVG Version: 6.00 Build 0)  -->
<svg version="1.1" id="Layer_1" focusable="false" xmlns="http://www.w3.org/2000/svg" xmlns:xlink="http://www.w3.org/1999/xlink"
	 x="0px" y="0px" viewBox="0 0 256 256" style="enable-background:new 0 0 256 256;" xml:space="preserve">
<style type="text/css">
	.st0{fill-rule:evenodd;clip-rule:evenodd;fill:#F79009;}
</style>
<path class="st0" d="M119.5,137.6c0,5.6,4.5,10.1,10.1,10.1c5.6,0,10.1-4.5,10.1-10.1V97.2c0-5.6-4.5-10.1-10.1-10.1
	c-5.6,0-10.1,4.5-10.1,10.1V137.6z M119.5,178c0-5.6,4.5-10.1,10.1-10.1h0.1c5.6,0,10.1,4.5,10.1,10.1c0,5.6-4.5,10.1-10.1,10.1
	h-0.1C124,188.1,119.5,183.6,119.5,178z M113,26.7c10.8-3.6,22.3-3.6,33.1,0c10.7,3.6,19.1,12,27.6,23.8
	c8.4,11.8,17.7,28.3,29.7,49.5l0.5,0.8c12,21.2,21.3,37.7,27.1,51c5.8,13.4,8.7,25,6.4,36.1c-2.3,11.2-8.1,21.4-16.4,29.1
	c-8.3,7.7-19.7,10.9-34,12.5c-14.2,1.5-32.8,1.5-56.8,1.5h-1c-24,0-42.6,0-56.8-1.5c-14.3-1.6-25.7-4.8-34-12.5
	c-8.4-7.7-14.1-17.9-16.4-29.1c-2.3-11.1,0.6-22.7,6.4-36.1c5.8-13.3,15.1-29.8,27.1-51l0.5-0.8c12-21.2,21.3-37.7,29.7-49.5
	C93.9,38.7,102.3,30.2,113,26.7z"/>
</svg>
