<?xml version="1.0" encoding="utf-8"?>
<!-- Generator: Adobe Illustrator 28.0.0, SVG Export Plug-In . SVG Version: 6.00 Build 0)  -->
<svg version="1.1" id="Layer_1" focusable="false" xmlns="http://www.w3.org/2000/svg" xmlns:xlink="http://www.w3.org/1999/xlink"
	 x="0px" y="0px" viewBox="0 0 256 256" style="enable-background:new 0 0 256 256;" xml:space="preserve">
<style type="text/css">
	.st0{fill-rule:evenodd;clip-rule:evenodd;fill:#161616;}
	.st1{fill:#161616;}
</style>
<path class="st0" d="M111.2,128.5c0-9.6,7.8-17.3,17.3-17.3c9.6,0,17.3,7.8,17.3,17.3c0,9.6-7.8,17.3-17.3,17.3
	C118.9,145.8,111.2,138.1,111.2,128.5z M128.5,96.3c-17.8,0-32.2,14.4-32.2,32.2c0,17.8,14.4,32.2,32.2,32.2
	c17.8,0,32.2-14.4,32.2-32.2C160.7,110.7,146.3,96.3,128.5,96.3z"/>
<path class="st1" d="M64.1,128.5c5.5,0,9.9,4.4,9.9,9.9v0.1c0,5.5-4.4,9.9-9.9,9.9c-5.5,0-9.9-4.4-9.9-9.9v-0.1
	C54.2,132.9,58.6,128.5,64.1,128.5z"/>
<path class="st1" d="M202.8,118.5c0-5.5-4.4-9.9-9.9-9.9c-5.5,0-9.9,4.4-9.9,9.9v0.1c0,5.5,4.4,9.9,9.9,9.9
	C198.4,128.5,202.8,124.1,202.8,118.5L202.8,118.5z"/>
<path class="st0" d="M131.6,60.9c12.1-5.6,28.3-9.2,46.4-9.2c10,0,19.5,1.1,28.1,3.1c6.6,1.5,9.6,3.9,11.2,6.4
	c1.8,2.8,2.8,7.1,2.8,14v106.7c0,4-4.8,8.4-10.7,7c-9.7-2.2-20.3-3.4-31.4-3.4c-19.9,0-38.3,3.9-52.7,10.6
	c-12.1,5.6-28.3,9.2-46.4,9.2c-10,0-19.5-1.1-28.1-3.1c-6.6-1.5-9.6-3.9-11.2-6.4c-1.8-2.8-2.8-7.1-2.8-14V75.1c0-4,4.8-8.4,10.7-7
	c9.7,2.2,20.3,3.4,31.4,3.4C98.9,71.5,117.3,67.6,131.6,60.9z M178,36.9c-19.9,0-38.3,3.9-52.7,10.6c-12.1,5.6-28.3,9.2-46.4,9.2
	c-10,0-19.5-1.1-28.1-3.1c-13.1-3-28.9,6-28.9,21.5v106.7c0,7.9,1.1,15.6,5.2,22.1c4.4,6.7,11.3,10.7,20.4,12.8
	c9.7,2.2,20.3,3.4,31.4,3.4c19.9,0,38.3-3.9,52.7-10.6c12.1-5.6,28.3-9.2,46.4-9.2c10,0,19.5,1.1,28.1,3.1c13.1,3,28.9-6,28.9-21.5
	V75.1c0-7.9-1.1-15.6-5.2-22.1c-4.4-6.7-11.3-10.7-20.4-12.8C199.7,38.1,189.1,36.9,178,36.9z"/>
</svg>
