<svg xmlns="http://www.w3.org/2000/svg" viewBox="0 0 256 256" focusable="false" color="var(--token-db1c7457-9e71-4ea2-8dd6-f4b3d4d6cf25, rgb(31, 31, 31))" style="user-select: none; width: 100%; height: 100%; display: inline-block; fill: var(--token-db1c7457-9e71-4ea2-8dd6-f4b3d4d6cf25, rgb(31, 31, 31)); color: var(--token-db1c7457-9e71-4ea2-8dd6-f4b3d4d6cf25, rgb(31, 31, 31)); flex-shrink: 0;"><g color="var(--token-db1c7457-9e71-4ea2-8dd6-f4b3d4d6cf25, rgb(31, 31, 31))" weight="regular"><path d="M224,88H175.4l8.47-46.57a8,8,0,0,0-15.74-2.86l-9,49.43H111.4l8.47-46.57a8,8,0,0,0-15.74-2.86L95.14,88H48a8,8,0,0,0,0,16H92.23L83.5,152H32a8,8,0,0,0,0,16H80.6l-8.47,46.57a8,8,0,0,0,6.44,9.3A7.79,7.79,0,0,0,80,224a8,8,0,0,0,7.86-6.57l9-49.43H144.6l-8.47,46.57a8,8,0,0,0,6.44,9.3A7.79,7.79,0,0,0,144,224a8,8,0,0,0,7.86-6.57l9-49.43H208a8,8,0,0,0,0-16H163.77l8.73-48H224a8,8,0,0,0,0-16Zm-76.5,64H99.77l8.73-48h47.73Z"></path></g></svg>