<?xml version="1.0" encoding="utf-8"?>
<!-- Generator: Adobe Illustrator 28.0.0, SVG Export Plug-In . SVG Version: 6.00 Build 0)  -->
<svg version="1.1" id="Layer_1" focusable="false" xmlns="http://www.w3.org/2000/svg" xmlns:xlink="http://www.w3.org/1999/xlink"
	 x="0px" y="0px" viewBox="0 0 256 256" style="enable-background:new 0 0 256 256;" xml:space="preserve">
<style type="text/css">
	.st0{fill:#FFFFFF;}
</style>
<g>
	<path class="st0" d="M216.5,168.5c-4.7,4.7-12.3,4.7-17,0c0,0,0,0,0,0L128,97l-71.5,71.5c-4.7,4.7-12.3,4.7-17,0s-4.7-12.3,0-17
		l0,0l80-80c4.7-4.7,12.3-4.7,17,0c0,0,0,0,0,0l80,80C221.2,156.2,221.2,163.8,216.5,168.5C216.5,168.5,216.5,168.5,216.5,168.5z"/>
</g>
</svg>
