<?xml version="1.0" encoding="utf-8"?>
<!-- Generator: Adobe Illustrator 28.0.0, SVG Export Plug-In . SVG Version: 6.00 Build 0)  -->
<svg version="1.1" id="svg11333036453" xmlns="http://www.w3.org/2000/svg" xmlns:xlink="http://www.w3.org/1999/xlink" x="0px"
	 y="0px" viewBox="0 0 24 24" style="enable-background:new 0 0 24 24;" xml:space="preserve">
<style type="text/css">
	.st0{fill:#FFFFFF;}
	.st1{fill-rule:evenodd;clip-rule:evenodd;fill:#FFFFFF;}
</style>
<path class="st0" d="M9,12.2c-0.4,0-0.8,0.3-0.8,0.8c0,0.4,0.3,0.8,0.8,0.8h6c0.4,0,0.8-0.3,0.8-0.8c0-0.4-0.3-0.8-0.8-0.8H9z"/>
<path class="st0" d="M8.2,16.9c0-0.4,0.3-0.8,0.8-0.8h3c0.4,0,0.8,0.3,0.8,0.8c0,0.4-0.3,0.8-0.8,0.8H9C8.6,17.7,8.2,17.4,8.2,16.9z
	"/>
<path class="st1" d="M4.3,18l0-10.1C5,8.6,5.9,8.7,6.7,8.7h11.6c0.4,0,0.7,0,1,0.2c0.2,0.1,0.5,0.5,0.5,1.6V18
	c0,1.8-1.5,3.3-3.2,3.3h-9c-0.9,0-1.7-0.3-2.2-0.9C4.7,19.9,4.3,19.1,4.3,18z M18.5,1.2l-12.2,0c-0.5,0-1.3,0.1-1.9,0.5
	C3.7,2.3,3,3.2,2.8,4.3c0,0.3-0.1,0.5,0,0.8l0,0l0,12.9l0,0c0.1,1.3,0.6,2.5,1.4,3.3c0.8,0.8,2,1.3,3.3,1.3h9c2.6,0,4.7-2.1,4.7-4.8
	v-7.5c0-1.4-0.4-2.3-1.1-2.8c-0.7-0.5-1.4-0.5-1.8-0.5h0V6.4c0-1.2-1-2.2-2.2-2.2H7.5c-0.4,0-0.8,0.3-0.8,0.8c0,0.4,0.3,0.8,0.8,0.8
	H16c0.4,0,0.8,0.3,0.8,0.8v0.8h-10c-0.7,0-1.2-0.2-1.6-0.5c-0.8-0.8-1-1.5-0.9-2.1C4.4,3.9,4.8,3.3,5.3,3c0.2-0.2,0.5-0.2,1-0.2
	l12.2,0c0.4,0,0.8-0.3,0.8-0.8C19.2,1.6,18.9,1.2,18.5,1.2z"/>
</svg>
