<?xml version="1.0" encoding="utf-8"?>
<!-- Generator: Adobe Illustrator 28.0.0, SVG Export Plug-In . SVG Version: 6.00 Build 0)  -->
<svg version="1.1" id="Layer_1" xmlns="http://www.w3.org/2000/svg" xmlns:xlink="http://www.w3.org/1999/xlink" x="0px" y="0px"
	 viewBox="0 0 50 50" style="enable-background:new 0 0 50 50;" xml:space="preserve">
<style type="text/css">
	.st0{fill:#FFFFFF;}
</style>
<g>
	<g>
		<path class="st0" d="M3.2,5.1c14.4,0,28.8,0,43.1,0c0.5,0,1,0.1,1.5,0.3c1,0.5,1.6,1.5,1.6,2.6c0,11.2,0,22.4,0,33.6
			c0,0.5,0,1.1-0.2,1.6c-0.4,1-1.5,1.8-2.6,1.7c-14.1,0-28.2,0-42.4,0c-0.6,0-1.1,0-1.7-0.2c-1.1-0.4-1.9-1.5-1.9-2.7
			c0-11.4,0-22.7,0-34.1C0.6,6.5,1.8,5.2,3.2,5.1z M2.2,7.8c0,1.3,0,2.7,0,4c15.2,0,30.5,0,45.7,0c0-1.3,0-2.7,0-4
			c0-0.7-0.6-1.3-1.3-1.2c-14.3,0-28.6,0-43,0C2.9,6.5,2.2,7.1,2.2,7.8z M2.1,13.4c0,9.4,0,18.8,0,28.2c0,0.4,0,0.9,0.2,1.2
			c0.3,0.4,0.7,0.6,1.2,0.6c14.3,0,28.6,0,42.9,0c0.5,0,0.9-0.2,1.2-0.5c0.2-0.3,0.3-0.6,0.3-1c0-9.5,0-19,0-28.5
			C32.6,13.4,17.4,13.4,2.1,13.4z"/>
	</g>
	<path class="st0" d="M6.7,8.3C7.3,8,8,8.5,8.1,9.1c0.1,0.6-0.5,1.2-1.1,1.1c-0.6,0-1-0.7-0.9-1.2C6.1,8.7,6.4,8.4,6.7,8.3z"/>
	<path class="st0" d="M11,8.3c0.6-0.3,1.3,0.2,1.4,0.8c0.1,0.6-0.5,1.2-1.1,1.1c-0.6,0-1-0.7-0.9-1.2C10.4,8.7,10.6,8.4,11,8.3z"/>
	<path class="st0" d="M15.2,8.3c0.6-0.3,1.3,0.2,1.4,0.8c0.1,0.6-0.5,1.2-1.1,1.1c-0.6,0-1-0.7-0.9-1.2C14.7,8.7,14.9,8.4,15.2,8.3z
		"/>
	<path class="st0" d="M23.2,8.5c0.3,0,0.6,0,0.9,0c6.6,0,13.2,0,19.7,0c0.4,0,0.8,0.2,0.9,0.7c0.1,0.4-0.3,0.9-0.8,0.9
		c-6.8,0-13.7,0-20.5,0c-0.4,0-0.7-0.2-0.8-0.6C22.5,9,22.8,8.6,23.2,8.5z"/>
	<g>
		<path class="st0" d="M22.9,17.6c0-0.4,0.3-0.7,0.7-0.7c0.9,0,1.8,0,2.7,0c0.4,0,0.8,0.3,0.8,0.6c0,0.5,0,1.1,0,1.6
			c1.1,0.2,2.1,0.7,3,1.2c0.5-0.3,0.8-0.8,1.3-1.2c0.3-0.2,0.7-0.1,0.9,0.2c0.6,0.6,1.2,1.2,1.8,1.8c0.3,0.3,0.3,0.7,0.1,1
			c-0.4,0.4-0.7,0.7-1.1,1.1c0.6,0.9,1,1.9,1.2,3c0.5,0,1.1,0,1.6,0c0.4,0,0.7,0.4,0.7,0.8c0,0.9,0,1.7,0,2.6c0,0.4-0.3,0.8-0.7,0.8
			c-0.5,0-1.1,0-1.6,0c-0.2,1.1-0.7,2.1-1.2,3c0.4,0.4,0.7,0.7,1.1,1.1c0.3,0.3,0.3,0.8,0,1c-0.6,0.6-1.3,1.3-1.9,1.9
			c-0.3,0.3-0.7,0.3-1,0.1c-0.4-0.4-0.8-0.8-1.2-1.1c-0.9,0.6-1.9,1-3,1.2c0,0.5,0,1,0,1.6c0,0.4-0.4,0.7-0.8,0.7
			c-0.9,0-1.7,0-2.6,0c-0.4,0-0.8-0.3-0.8-0.7c0-0.5,0-1,0-1.6c-1.1-0.2-2.1-0.7-3-1.2c-0.4,0.4-0.7,0.8-1.2,1.1
			c-0.3,0.2-0.8,0.2-1-0.1c-0.6-0.6-1.2-1.2-1.8-1.8c-0.3-0.3-0.3-0.8-0.1-1.1c0.3-0.4,0.7-0.7,1.1-1.1c-0.6-0.9-1-1.9-1.2-3
			c-0.5,0-1.1,0-1.6,0c-0.4,0-0.7-0.4-0.7-0.7c0-0.9,0-1.8,0-2.7c0-0.4,0.3-0.7,0.7-0.8c0.5,0,1.1,0,1.6,0c0.2-1.1,0.7-2.1,1.2-3
			c-0.4-0.4-0.8-0.7-1.1-1.1c-0.3-0.3-0.2-0.8,0.1-1c0.6-0.6,1.2-1.2,1.9-1.9c0.3-0.3,0.7-0.3,1,0c0.4,0.4,0.7,0.7,1.1,1.1
			c0.9-0.6,1.9-1,3-1.2C22.9,18.6,22.9,18.1,22.9,17.6z M24.4,18.3c0,0.5,0,1,0,1.5c0,0.4-0.4,0.6-0.7,0.6c-1.2,0.2-2.4,0.7-3.4,1.4
			c-0.3,0.2-0.7,0.2-1,0c-0.4-0.3-0.7-0.7-1.1-1c-0.3,0.3-0.5,0.5-0.8,0.8c0.3,0.4,0.7,0.7,1,1.1c0.2,0.3,0.2,0.7,0,1
			c-0.7,1-1.2,2.2-1.4,3.4c0,0.4-0.4,0.6-0.7,0.7c-0.5,0-0.9,0-1.4,0c0,0.4,0,0.8,0,1.2c0.5,0,1,0,1.5,0c0.4,0.1,0.6,0.4,0.6,0.7
			c0.2,1.2,0.7,2.4,1.4,3.4c0.2,0.3,0.3,0.7,0,1c-0.3,0.4-0.7,0.7-1,1c0.3,0.3,0.5,0.5,0.8,0.8c0.4-0.3,0.7-0.7,1-1
			c0.3-0.2,0.7-0.2,1,0c1,0.7,2.2,1.2,3.4,1.4c0.3,0,0.7,0.3,0.7,0.7c0,0.5,0,1,0,1.5c0.4,0,0.8,0,1.2,0c0-0.5,0-1,0-1.5
			c0-0.4,0.3-0.6,0.7-0.7c1.2-0.2,2.4-0.7,3.4-1.4c0.3-0.2,0.7-0.3,1,0c0.4,0.3,0.7,0.7,1.1,1c0.3-0.3,0.5-0.5,0.8-0.8
			c-0.3-0.4-0.7-0.7-1-1c-0.2-0.3-0.2-0.7,0-1c0.7-1,1.2-2.1,1.4-3.4c0-0.4,0.3-0.7,0.7-0.7c0.5,0,1,0,1.4,0c0-0.4,0-0.8,0-1.1
			c-0.5,0-1,0-1.5,0c-0.4,0-0.6-0.4-0.7-0.8c-0.2-1.2-0.7-2.3-1.4-3.3c-0.2-0.3-0.3-0.7,0-1c0.3-0.4,0.7-0.7,1-1.1
			c-0.3-0.3-0.5-0.5-0.8-0.8c-0.4,0.3-0.7,0.7-1.1,1c-0.3,0.3-0.7,0.2-1-0.1c-1-0.7-2.1-1.2-3.3-1.4c-0.3,0-0.7-0.3-0.7-0.6
			c0-0.5,0-1,0-1.5C25.2,18.3,24.8,18.3,24.4,18.3z"/>
	</g>
	<g>
		<path class="st0" d="M24.4,23.2c1.2-0.1,2.5,0.2,3.5,0.8c1.3,0.9,2.2,2.3,2.3,3.9c0.1,1.4-0.4,2.9-1.4,4c-0.9,1-2.3,1.6-3.7,1.6
			c-1.4,0-2.7-0.5-3.7-1.4c-1-0.9-1.5-2.2-1.6-3.5c-0.1-1.3,0.4-2.6,1.2-3.6C21.9,24.1,23.1,23.4,24.4,23.2z M24.6,24.8
			c-1.2,0.1-2.3,0.9-2.9,2c-0.6,1.1-0.5,2.6,0.2,3.7c0.9,1.4,2.8,2.1,4.4,1.5c1.7-0.6,2.7-2.5,2.3-4.3
			C28.2,25.8,26.4,24.5,24.6,24.8z"/>
	</g>
</g>
</svg>
