<?xml version="1.0" encoding="utf-8"?>
<!-- Generator: Adobe Illustrator 28.0.0, SVG Export Plug-In . SVG Version: 6.00 Build 0)  -->
<svg version="1.1" id="Layer_1" focusable="false" xmlns="http://www.w3.org/2000/svg" xmlns:xlink="http://www.w3.org/1999/xlink"
	 x="0px" y="0px" viewBox="0 0 256 256" style="enable-background:new 0 0 256 256;" xml:space="preserve">
<style type="text/css">
	.st0{fill:#1B8354;}
</style>
<g>
	<path class="st0" d="M221.7,133.7l-72,72c-3.1,3.1-8.2,3.1-11.3,0s-3.1-8.2,0-11.3l0,0l58.4-58.3H40c-4.4,0-8-3.6-8-8
		c0-4.4,3.6-8,8-8h156.7l-58.4-58.3c-3.1-3.1-3.1-8.2,0-11.3s8.2-3.1,11.3,0l72,72C224.8,125.5,224.8,130.5,221.7,133.7
		C221.7,133.7,221.7,133.7,221.7,133.7z"/>
</g>
</svg>
