<?xml version="1.0" encoding="utf-8"?>
<!-- Generator: Adobe Illustrator 28.0.0, SVG Export Plug-In . SVG Version: 6.00 Build 0)  -->
<svg version="1.1" id="Layer_1" focusable="false" xmlns="http://www.w3.org/2000/svg" xmlns:xlink="http://www.w3.org/1999/xlink"
	 x="0px" y="0px" viewBox="0 0 256 256" style="enable-background:new 0 0 256 256;" xml:space="preserve">
<style type="text/css">
	.st0{fill:#166A45;}
</style>
<g>
	<path class="st0" d="M88,104c0-4.4,3.6-8,8-8h64c4.4,0,8,3.6,8,8s-3.6,8-8,8H96C91.6,112,88,108.4,88,104z M96,144h64
		c4.4,0,8-3.6,8-8s-3.6-8-8-8H96c-4.4,0-8,3.6-8,8S91.6,144,96,144z M232,56v128c0,8.8-7.2,16-16,16h-60.4l-13.7,23.9
		c-4.4,7.7-14.2,10.3-21.8,5.9c-2.5-1.4-4.5-3.5-5.9-5.9L100.4,200H40c-8.8,0-16-7.2-16-16V56c0-8.8,7.2-16,16-16h176
		C224.8,40,232,47.2,232,56z M216,56H40v128h65.1c2.9,0,5.6,1.5,7,4l16,28l16-28c1.4-2.5,4.1-4,7-4H216V56z"/>
</g>
</svg>
