<?xml version="1.0" encoding="utf-8"?>
<!-- Generator: Adobe Illustrator 28.0.0, SVG Export Plug-In . SVG Version: 6.00 Build 0)  -->
<svg version="1.1" id="Layer_1" xmlns="http://www.w3.org/2000/svg" xmlns:xlink="http://www.w3.org/1999/xlink" x="0px" y="0px"
	 viewBox="0 0 32 32" style="enable-background:new 0 0 32 32;" xml:space="preserve">
<style type="text/css">
	.st0{fill-rule:evenodd;clip-rule:evenodd;fill:#161616;}
</style>
<path class="st0" d="M21.2,3.4c0.2-0.1,0.5-0.2,1-0.3c0.6-0.1,1.3-0.1,2.4-0.1c1.1,0,1.8,0,2.4,0.1c0.6,0.1,0.8,0.1,1,0.3
	c0.3,0.2,0.6,0.4,0.7,0.7c0.1,0.2,0.2,0.5,0.3,1c0.1,0.6,0.1,1.3,0.1,2.4c0,1.1,0,1.8-0.1,2.4c-0.1,0.6-0.1,0.8-0.3,1
	c-0.2,0.3-0.4,0.6-0.7,0.7c-0.2,0.1-0.5,0.2-1,0.3c-0.6,0.1-1.3,0.1-2.4,0.1c-1.1,0-1.8,0-2.4-0.1c-0.6-0.1-0.8-0.1-1-0.3
	c-0.3-0.2-0.6-0.4-0.7-0.7c-0.1-0.2-0.2-0.5-0.3-1c-0.1-0.6-0.1-1.3-0.1-2.4c0-1.1,0-1.8,0.1-2.4c0.1-0.6,0.1-0.8,0.3-1
	C20.7,3.9,20.9,3.6,21.2,3.4z M24.8,1h-0.1c-1,0-1.9,0-2.6,0.1c-0.7,0.1-1.4,0.2-1.9,0.6c-0.6,0.4-1.1,0.8-1.4,1.4
	c-0.4,0.6-0.5,1.2-0.6,1.9c-0.1,0.7-0.1,1.5-0.1,2.6v0.1c0,1,0,1.9,0.1,2.6c0.1,0.7,0.2,1.4,0.6,1.9c0.4,0.6,0.8,1.1,1.4,1.4
	c0.6,0.4,1.2,0.5,1.9,0.6c0.7,0.1,1.5,0.1,2.6,0.1h0.1c1,0,1.9,0,2.6-0.1c0.7-0.1,1.4-0.2,1.9-0.6c0.6-0.4,1.1-0.8,1.4-1.4
	c0.4-0.6,0.5-1.2,0.6-1.9c0.1-0.7,0.1-1.5,0.1-2.6V7.6c0-1,0-1.9-0.1-2.6c-0.1-0.7-0.2-1.4-0.6-1.9c-0.4-0.6-0.8-1.1-1.4-1.4
	c-0.6-0.4-1.2-0.5-1.9-0.6C26.6,1,25.8,1,24.8,1z"/>
<path class="st0" d="M5.5,3.1C5,3.2,4.7,3.3,4.5,3.4C4.2,3.6,3.9,3.9,3.8,4.2c-0.1,0.2-0.2,0.5-0.3,1C3.4,5.8,3.4,6.5,3.4,7.6
	c0,1.1,0,1.8,0.1,2.4c0.1,0.6,0.1,0.8,0.3,1c0.2,0.3,0.4,0.6,0.7,0.7c0.2,0.1,0.5,0.2,1,0.3c0.6,0.1,1.3,0.1,2.4,0.1
	c1.1,0,1.8,0,2.4-0.1c0.6-0.1,0.8-0.1,1-0.3c0.3-0.2,0.6-0.4,0.7-0.7c0.1-0.2,0.2-0.5,0.3-1c0.1-0.6,0.1-1.3,0.1-2.4
	c0-1.1,0-1.8-0.1-2.4c-0.1-0.6-0.1-0.8-0.3-1c-0.2-0.3-0.4-0.6-0.7-0.7c-0.2-0.1-0.5-0.2-1-0.3C9.8,3.1,9.1,3.1,8,3.1
	C6.9,3.1,6.1,3.1,5.5,3.1z M7.9,1H8c1,0,1.9,0,2.6,0.1c0.7,0.1,1.4,0.2,1.9,0.6C13.1,2,13.6,2.5,14,3.1c0.4,0.6,0.5,1.2,0.6,1.9
	c0.1,0.7,0.1,1.5,0.1,2.6v0.1c0,1,0,1.9-0.1,2.6c-0.1,0.7-0.2,1.4-0.6,1.9c-0.4,0.6-0.8,1.1-1.4,1.4c-0.6,0.4-1.2,0.5-1.9,0.6
	C9.9,14.3,9,14.3,8,14.3H7.9c-1,0-1.9,0-2.6-0.1C4.6,14.1,4,14,3.4,13.6c-0.6-0.4-1.1-0.8-1.4-1.4c-0.4-0.6-0.5-1.2-0.6-1.9
	C1.3,9.6,1.3,8.7,1.3,7.7V7.6c0-1,0-1.9,0.1-2.6C1.5,4.3,1.6,3.7,2,3.1C2.3,2.5,2.8,2,3.4,1.6C4,1.3,4.6,1.1,5.4,1.1
	C6,1,6.9,1,7.9,1z"/>
<path class="st0" d="M4.5,20.2c0.2-0.1,0.5-0.2,1-0.3c0.6-0.1,1.3-0.1,2.4-0.1c1.1,0,1.8,0,2.4,0.1c0.6,0.1,0.8,0.1,1,0.3
	c0.3,0.2,0.6,0.4,0.7,0.7c0.1,0.2,0.2,0.5,0.3,1c0.1,0.6,0.1,1.3,0.1,2.4c0,1.1,0,1.8-0.1,2.4c-0.1,0.6-0.1,0.8-0.3,1
	c-0.2,0.3-0.4,0.6-0.7,0.7c-0.2,0.1-0.5,0.2-1,0.3c-0.6,0.1-1.3,0.1-2.4,0.1c-1.1,0-1.8,0-2.4-0.1c-0.6-0.1-0.8-0.1-1-0.3
	c-0.3-0.2-0.6-0.4-0.7-0.7c-0.1-0.2-0.2-0.5-0.3-1c-0.1-0.6-0.1-1.3-0.1-2.4c0-1.1,0-1.8,0.1-2.4c0.1-0.6,0.1-0.8,0.3-1
	C3.9,20.6,4.2,20.4,4.5,20.2z M7.9,17.7c-1,0-1.9,0-2.6,0.1C4.6,17.9,4,18,3.4,18.4c-0.6,0.4-1.1,0.8-1.4,1.4
	c-0.4,0.6-0.5,1.2-0.6,1.9c-0.1,0.7-0.1,1.5-0.1,2.6v0.1c0,1,0,1.9,0.1,2.6c0.1,0.7,0.2,1.4,0.6,1.9c0.4,0.6,0.8,1.1,1.4,1.4
	c0.6,0.4,1.2,0.5,1.9,0.6C6,31,6.9,31,7.9,31H8c1,0,1.9,0,2.6-0.1c0.7-0.1,1.4-0.2,1.9-0.6c0.6-0.4,1.1-0.8,1.4-1.4
	c0.4-0.6,0.5-1.2,0.6-1.9c0.1-0.7,0.1-1.5,0.1-2.6v-0.1c0-1,0-1.9-0.1-2.6c-0.1-0.7-0.2-1.4-0.6-1.9c-0.4-0.6-0.8-1.1-1.4-1.4
	c-0.6-0.4-1.2-0.5-1.9-0.6C9.9,17.7,9,17.7,8,17.7H7.9z"/>
<path class="st0" d="M21.2,20.2c0.2-0.1,0.5-0.2,1-0.3c0.6-0.1,1.3-0.1,2.4-0.1c1.1,0,1.8,0,2.4,0.1c0.6,0.1,0.8,0.1,1,0.3
	c0.3,0.2,0.6,0.4,0.7,0.7c0.1,0.2,0.2,0.5,0.3,1c0.1,0.6,0.1,1.3,0.1,2.4c0,1.1,0,1.8-0.1,2.4c-0.1,0.6-0.1,0.8-0.3,1
	c-0.2,0.3-0.4,0.6-0.7,0.7c-0.2,0.1-0.5,0.2-1,0.3c-0.6,0.1-1.3,0.1-2.4,0.1c-1.1,0-1.8,0-2.4-0.1c-0.6-0.1-0.8-0.1-1-0.3
	c-0.3-0.2-0.6-0.4-0.7-0.7c-0.1-0.2-0.2-0.5-0.3-1c-0.1-0.6-0.1-1.3-0.1-2.4c0-1.1,0-1.8,0.1-2.4c0.1-0.6,0.1-0.8,0.3-1
	C20.7,20.6,20.9,20.4,21.2,20.2z M27.3,17.8c-0.7-0.1-1.5-0.1-2.6-0.1h-0.1c-1,0-1.9,0-2.6,0.1c-0.7,0.1-1.4,0.2-1.9,0.6
	c-0.6,0.4-1.1,0.8-1.4,1.4c-0.4,0.6-0.5,1.2-0.6,1.9c-0.1,0.7-0.1,1.5-0.1,2.6v0.1c0,1,0,1.9,0.1,2.6c0.1,0.7,0.2,1.4,0.6,1.9
	c0.4,0.6,0.8,1.1,1.4,1.4c0.6,0.4,1.2,0.5,1.9,0.6c0.7,0.1,1.5,0.1,2.6,0.1h0.1c1,0,1.9,0,2.6-0.1c0.7-0.1,1.4-0.2,1.9-0.6
	c0.6-0.4,1.1-0.8,1.4-1.4c0.4-0.6,0.5-1.2,0.6-1.9c0.1-0.7,0.1-1.5,0.1-2.6v-0.1c0-1,0-1.9-0.1-2.6c-0.1-0.7-0.2-1.4-0.6-1.9
	c-0.4-0.6-0.8-1.1-1.4-1.4C28.7,18,28,17.9,27.3,17.8z"/>
</svg>
