<svg xmlns="http://www.w3.org/2000/svg" viewBox="0 0 256 256" focusable="false" color="var(--token-db1c7457-9e71-4ea2-8dd6-f4b3d4d6cf25, rgb(31, 31, 31))" style="user-select: none; width: 100%; height: 100%; display: inline-block; fill: var(--token-db1c7457-9e71-4ea2-8dd6-f4b3d4d6cf25, rgb(31, 31, 31)); color: var(--token-db1c7457-9e71-4ea2-8dd6-f4b3d4d6cf25, rgb(31, 31, 31)); flex-shrink: 0;"><g color="var(--token-db1c7457-9e71-4ea2-8dd6-f4b3d4d6cf25, rgb(31, 31, 31))" weight="regular"><path d="M216,40H136V24a8,8,0,0,0-16,0V40H40A16,16,0,0,0,24,56V176a16,16,0,0,0,16,16H79.36L57.75,219a8,8,0,0,0,12.5,10l29.59-37h56.32l29.59,37a8,8,0,1,0,12.5-10l-21.61-27H216a16,16,0,0,0,16-16V56A16,16,0,0,0,216,40Zm0,136H40V56H216V176Z"></path></g></svg>