<svg xmlns="http://www.w3.org/2000/svg" viewBox="0 0 256 256" focusable="false" color="var(--token-db1c7457-9e71-4ea2-8dd6-f4b3d4d6cf25, rgb(34, 34, 34))" style="user-select: none; width: 100%; height: 100%; display: inline-block; fill: var(--token-db1c7457-9e71-4ea2-8dd6-f4b3d4d6cf25, rgb(34, 34, 34)); color: var(--token-db1c7457-9e71-4ea2-8dd6-f4b3d4d6cf25, rgb(34, 34, 34)); flex-shrink: 0;"><g color="var(--token-db1c7457-9e71-4ea2-8dd6-f4b3d4d6cf25, rgb(34, 34, 34))" weight="regular"><path d="M208,24H72A32,32,0,0,0,40,56V224a8,8,0,0,0,8,8H192a8,8,0,0,0,0-16H56a16,16,0,0,1,16-16H208a8,8,0,0,0,8-8V32A8,8,0,0,0,208,24ZM120,40h48v72L148.79,97.6a8,8,0,0,0-9.6,0L120,112Zm80,144H72a31.82,31.82,0,0,0-16,4.29V56A16,16,0,0,1,72,40h32v88a8,8,0,0,0,12.8,6.4L144,114l27.21,20.4A8,8,0,0,0,176,136a8,8,0,0,0,8-8V40h16Z"></path></g></svg>