<?xml version="1.0" encoding="utf-8"?>
<!-- Generator: Adobe Illustrator 28.0.0, SVG Export Plug-In . SVG Version: 6.00 Build 0)  -->
<svg version="1.1" id="svg9798799298" xmlns="http://www.w3.org/2000/svg" xmlns:xlink="http://www.w3.org/1999/xlink" x="0px"
	 y="0px" viewBox="0 0 24 24" style="enable-background:new 0 0 24 24;" xml:space="preserve">
<style type="text/css">
	.st0{fill:none;stroke:#FFFFFF;stroke-width:2;stroke-miterlimit:10;}
</style>
<path class="st0" d="M6.5,2.5C5.4,2.7,4.5,3,3.9,3.7c-1.4,1.4-1.4,3.7-1.4,8.2s0,6.8,1.4,8.2c1.4,1.4,3.6,1.4,8.1,1.4
	c4.5,0,6.7,0,8.1-1.4c1.4-1.4,1.4-3.7,1.4-8.2s0-6.8-1.4-8.2c-0.6-0.6-1.5-1-2.6-1.2"/>
<path class="st0" d="M9.5,5C10,4.5,11.3,2.5,12,2.5 M14.5,5C14,4.5,12.7,2.5,12,2.5 M12,2.5v8"/>
<path class="st0" d="M21.5,13.5h-4.9c-0.8,0-1.5,0.7-1.9,1.4c-0.4,0.8-1.2,1.6-2.7,1.6s-2.3-0.7-2.7-1.6c-0.4-0.7-1-1.4-1.9-1.4H2.5
	"/>
</svg>
