<?xml version="1.0" encoding="utf-8"?>
<!-- Generator: Adobe Illustrator 28.0.0, SVG Export Plug-In . SVG Version: 6.00 Build 0)  -->
<svg version="1.1" id="svg33266255_615" xmlns="http://www.w3.org/2000/svg" xmlns:xlink="http://www.w3.org/1999/xlink" x="0px"
	 y="0px" viewBox="0 0 24 24" style="enable-background:new 0 0 24 24;" xml:space="preserve">
<style type="text/css">
	.st0{fill:none;stroke:#000000;stroke-width:2;stroke-linecap:round;}
	.st1{fill:none;stroke:#000000;stroke-width:2;stroke-linecap:round;stroke-linejoin:round;}
</style>
<path class="st0" d="M17,12c0,2.8-2.2,5-5,5s-5-2.2-5-5s2.2-5,5-5"/>
<path class="st0" d="M14,2.2C13.4,2.1,12.7,2,12,2C6.5,2,2,6.5,2,12s4.5,10,10,10s10-4.5,10-10c0-0.7-0.1-1.4-0.2-2"/>
<path class="st1" d="M12,12l4.6-4.6 M19.7,4.3l-0.6-2C19.1,2.1,18.8,2,18.6,2c-0.1,0-0.1,0-0.2,0.1c-1.4,1.2-3,2.8-1.7,5.2
	c2.6,1.2,4-0.4,5.2-1.8C22,5.4,22,5.1,21.8,4.9c-0.1,0-0.1-0.1-0.2-0.1C21.6,4.8,19.7,4.3,19.7,4.3z"/>
</svg>
