<?xml version="1.0" encoding="utf-8"?>
<!-- Generator: Adobe Illustrator 28.0.0, SVG Export Plug-In . SVG Version: 6.00 Build 0)  -->
<svg version="1.1" id="svg-1479718595_676" xmlns="http://www.w3.org/2000/svg" xmlns:xlink="http://www.w3.org/1999/xlink" x="0px"
	 y="0px" viewBox="0 0 24 24" style="enable-background:new 0 0 24 24;" xml:space="preserve">
<style type="text/css">
	.st0{fill:none;stroke:#000000;stroke-width:2;stroke-linejoin:round;}
</style>
<path class="st0" d="M2,6l6.9,3.9c2.5,1.4,3.6,1.4,6.2,0L22,6"/>
<path class="st0" d="M2,13.5c0.1,3.1,0.1,4.6,1.2,5.7c1.1,1.1,2.7,1.2,5.9,1.3c1.9,0,3.9,0,5.8,0c3.1-0.1,4.7-0.1,5.9-1.3
	c1.1-1.1,1.2-2.7,1.2-5.7c0-1,0-2,0-3c-0.1-3.1-0.1-4.6-1.2-5.7c-1.1-1.1-2.7-1.2-5.9-1.3c-1.9,0-3.9,0-5.8,0C6,3.6,4.4,3.7,3.2,4.8
	C2.1,5.9,2.1,7.5,2,10.5C2,11.5,2,12.5,2,13.5L2,13.5z"/>
</svg>
