<?xml version="1.0" encoding="utf-8"?>
<!-- Generator: Adobe Illustrator 28.0.0, SVG Export Plug-In . SVG Version: 6.00 Build 0)  -->
<svg version="1.1" id="svg2110221547_585" xmlns="http://www.w3.org/2000/svg" xmlns:xlink="http://www.w3.org/1999/xlink" x="0px"
	 y="0px" viewBox="0 0 24 24" style="enable-background:new 0 0 24 24;" xml:space="preserve">
<style type="text/css">
	.st0{fill:none;stroke:#000000;stroke-width:2;stroke-linejoin:round;}
</style>
<path class="st0" d="M3.8,11.9c-0.9-1.7-1.4-3-1.7-4.4c-0.4-2,0.5-4,2.1-5.3C4.8,1.8,5.6,2,6,2.7l0.9,1.6c0.7,1.2,1,1.9,1,2.5
	C7.7,7.4,7.3,7.9,6.3,9C6.3,9,3.8,11.9,3.8,11.9z M3.8,11.9c1.9,3.3,4.9,6.4,8.3,8.3 M12.1,20.2c1.7,0.9,3,1.4,4.4,1.7
	c2,0.4,4-0.5,5.3-2.1c0.5-0.7,0.4-1.4-0.3-1.8l-1.6-0.9c-1.2-0.7-1.9-1-2.5-1c-0.7,0.1-1.2,0.5-2.3,1.5L12.1,20.2z"/>
</svg>
