<?xml version="1.0" encoding="utf-8"?>
<!-- Generator: Adobe Illustrator 28.0.0, SVG Export Plug-In . SVG Version: 6.00 Build 0)  -->
<svg version="1.1" id="svg10722810187" xmlns="http://www.w3.org/2000/svg" xmlns:xlink="http://www.w3.org/1999/xlink" x="0px"
	 y="0px" viewBox="0 0 24 24" style="enable-background:new 0 0 24 24;" xml:space="preserve">
<style type="text/css">
	.st0{fill:none;stroke:#000000;stroke-width:2;stroke-miterlimit:10;}
</style>
<path class="st0" d="M16.6,16.1c-2.6,1.5-4.1,4.6-4.6,5.4V8c0.4-0.7,1.6-2.9,3.6-4.3c0.9-0.6,1.3-0.9,1.8-0.6C18,3.3,18,3.9,18,5.2
	V14c0,0.7,0,1-0.1,1.2C17.7,15.5,17.4,15.7,16.6,16.1z"/>
<path class="st0" d="M12,7.8c-0.7-0.7-2.7-2.4-6-3C4.3,4.5,3.4,4.3,2.7,4.9C2,5.5,2,6.4,2,8.3v6.8c0,1.7,0,2.6,0.5,3.1
	C2.9,18.8,3.9,19,6,19.4c1.8,0.3,3.2,0.8,4.3,1.4c1,0.5,1.5,0.8,1.8,0.8s0.8-0.3,1.8-0.8c1-0.5,2.4-1,4.3-1.4c2-0.4,3.1-0.5,3.5-1.1
	c0.5-0.5,0.5-1.4,0.5-3.1V8.3c0-1.9,0-2.8-0.7-3.4C20.6,4.3,19,4.8,18,5.5"/>
</svg>
