<?xml version="1.0" encoding="utf-8"?>
<!-- Generator: Adobe Illustrator 28.0.0, SVG Export Plug-In . SVG Version: 6.00 Build 0)  -->
<svg version="1.1" id="svg10543058602" xmlns="http://www.w3.org/2000/svg" xmlns:xlink="http://www.w3.org/1999/xlink" x="0px"
	 y="0px" viewBox="0 0 24 24" style="enable-background:new 0 0 24 24;" xml:space="preserve">
<style type="text/css">
	.st0{fill:none;stroke:#000000;stroke-width:2;stroke-miterlimit:10;}
</style>
<path class="st0" d="M18.5,17.8c1-0.2,1.8-0.4,2.3-1C22,15.7,22,13.8,22,10s0-5.7-1.2-6.8C19.7,2,17.8,2,14,2h-4
	C6.2,2,4.3,2,3.2,3.2C2,4.3,2,6.2,2,10s0,5.7,1.2,6.8C4,17.6,5.1,17.9,7,18"/>
<path class="st0" d="M17,7H7"/>
<path class="st0" d="M14.5,14.5c0,1.4-1.1,2.5-2.5,2.5s-2.5-1.1-2.5-2.5S10.6,12,12,12S14.5,13.1,14.5,14.5z"/>
<path class="st0" d="M9.5,14.5c0,4.1,1.7,6.4,2.5,7.5l1.5-3l1.8,1l1.8,1c-0.7-0.7-1.5-3-1.5-3"/>
</svg>
