<?xml version="1.0" encoding="utf-8"?>
<!-- Generator: Adobe Illustrator 28.0.0, SVG Export Plug-In . SVG Version: 6.00 Build 0)  -->
<svg version="1.1" id="Layer_1" focusable="false" xmlns="http://www.w3.org/2000/svg" xmlns:xlink="http://www.w3.org/1999/xlink"
	 x="0px" y="0px" viewBox="0 0 144 144" style="enable-background:new 0 0 144 144;" xml:space="preserve">
<style type="text/css">
	.st0{fill:#166A45;}
</style>
<g>
	<path class="st0" d="M141.7,141.7c-3.1,3.1-8.2,3.1-11.3,0c0,0,0,0,0,0L16,27.3V112c0,4.4-3.6,8-8,8s-8-3.6-8-8V8c0-4.4,3.6-8,8-8
		h104c4.4,0,8,3.6,8,8s-3.6,8-8,8H27.3l114.4,114.3C144.8,133.5,144.8,138.5,141.7,141.7C141.7,141.7,141.7,141.7,141.7,141.7z"/>
</g>
</svg>
