<?xml version="1.0" encoding="utf-8"?>
<!-- Generator: Adobe Illustrator 28.0.0, SVG Export Plug-In . SVG Version: 6.00 Build 0)  -->
<svg version="1.1" id="Layer_1" focusable="false" xmlns="http://www.w3.org/2000/svg" xmlns:xlink="http://www.w3.org/1999/xlink"
	 x="0px" y="0px" viewBox="0 0 256 256" style="enable-background:new 0 0 256 256;" xml:space="preserve">
<g>
	<path d="M240,136v64c0,8.8-7.2,16-16,16H32c-8.8,0-16-7.2-16-16v-64c0-8.8,7.2-16,16-16h40c4.4,0,8,3.6,8,8c0,4.4-3.6,8-8,8H32v64
		h192v-64h-40c-4.4,0-8-3.6-8-8c0-4.4,3.6-8,8-8h40C232.8,120,240,127.2,240,136z M122.3,133.7c3.1,3.1,8.2,3.1,11.3,0c0,0,0,0,0,0
		l48-48c3.1-3.1,3.1-8.2,0-11.3c-3.1-3.1-8.2-3.1-11.3,0L136,108.7V24c0-4.4-3.6-8-8-8c-4.4,0-8,3.6-8,8v84.7L85.7,74.3
		c-3.1-3.1-8.2-3.1-11.3,0s-3.1,8.2,0,11.3L122.3,133.7z M200,168c0-6.6-5.4-12-12-12s-12,5.4-12,12s5.4,12,12,12S200,174.6,200,168
		z"/>
</g>
</svg>
