<?xml version="1.0" encoding="utf-8"?>
<!-- Generator: Adobe Illustrator 28.0.0, SVG Export Plug-In . SVG Version: 6.00 Build 0)  -->
<svg version="1.1" id="Layer_1" focusable="false" xmlns="http://www.w3.org/2000/svg" xmlns:xlink="http://www.w3.org/1999/xlink"
	 x="0px" y="0px" viewBox="0 0 256 256" style="enable-background:new 0 0 256 256;" xml:space="preserve">
<style type="text/css">
	.st0{fill:#F79009;}
</style>
<g>
	<path class="st0" d="M232,136.7c-4.9,57.3-55.4,99.7-112.7,94.8s-99.7-55.4-94.8-112.7c4.3-50.5,44.4-90.5,94.8-94.8
		c4.4-0.4,8.3,2.9,8.7,7.3c0.4,4.4-2.9,8.3-7.3,8.7c-48.5,4.2-84.4,46.9-80.3,95.3s46.9,84.4,95.3,80.3
		c42.7-3.7,76.6-37.5,80.3-80.3c0.4-4.4,4.2-7.7,8.7-7.3C229.1,128.4,232.4,132.2,232,136.7z M120,72v56c0,4.4,3.6,8,8,8h56
		c4.4,0,8-3.6,8-8c0-4.4-3.6-8-8-8h-48V72c0-4.4-3.6-8-8-8C123.6,64,120,67.6,120,72z M160,48c6.6,0,12-5.4,12-12s-5.4-12-12-12
		s-12,5.4-12,12S153.4,48,160,48z M196,72c6.6,0,12-5.4,12-12s-5.4-12-12-12s-12,5.4-12,12S189.4,72,196,72z M220,108
		c6.6,0,12-5.4,12-12s-5.4-12-12-12s-12,5.4-12,12S213.4,108,220,108z"/>
</g>
</svg>
