<?xml version="1.0" encoding="utf-8"?>
<!-- Generator: Adobe Illustrator 28.0.0, SVG Export Plug-In . SVG Version: 6.00 Build 0)  -->
<svg version="1.1" id="Layer_1" focusable="false" xmlns="http://www.w3.org/2000/svg" xmlns:xlink="http://www.w3.org/1999/xlink"
	 x="0px" y="0px" viewBox="0 0 256 256" style="enable-background:new 0 0 256 256;" xml:space="preserve">
<style type="text/css">
	.st0{fill:#D92D20;}
</style>
<g>
	<path class="st0" d="M205.7,194.3c3.1,3.1,3.1,8.2,0,11.3s-8.2,3.1-11.3,0l0,0L128,139.3l-66.3,66.4c-3.1,3.1-8.2,3.1-11.3,0
		s-3.1-8.2,0-11.3l66.4-66.3L50.3,61.7c-3.1-3.1-3.1-8.2,0-11.3s8.2-3.1,11.3,0l0,0l66.3,66.4l66.3-66.3c3.1-3.1,8.2-3.1,11.3,0
		s3.1,8.2,0,11.3l0,0L139.3,128L205.7,194.3z"/>
</g>
</svg>
