<svg xmlns="http://www.w3.org/2000/svg" viewBox="0 0 256 256" focusable="false" color="var(--token-db1c7457-9e71-4ea2-8dd6-f4b3d4d6cf25, rgb(34, 34, 34))" style="user-select: none; width: 100%; height: 100%; display: inline-block; fill: var(--token-db1c7457-9e71-4ea2-8dd6-f4b3d4d6cf25, rgb(34, 34, 34)); color: var(--token-db1c7457-9e71-4ea2-8dd6-f4b3d4d6cf25, rgb(34, 34, 34)); flex-shrink: 0;"><g color="var(--token-db1c7457-9e71-4ea2-8dd6-f4b3d4d6cf25, rgb(34, 34, 34))" weight="regular"><path d="M165.66,194.34a8,8,0,0,1,0,11.32l-32,32a8,8,0,0,1-11.32,0l-32-32a8,8,0,0,1,11.32-11.32L120,212.69V43.31L101.66,61.66A8,8,0,0,1,90.34,50.34l32-32a8,8,0,0,1,11.32,0l32,32a8,8,0,0,1-11.32,11.32L136,43.31V212.69l18.34-18.35A8,8,0,0,1,165.66,194.34Z"></path></g></svg>