<?xml version="1.0" encoding="utf-8"?>
<!-- Generator: Adobe Illustrator 28.0.0, SVG Export Plug-In . SVG Version: 6.00 Build 0)  -->
<svg version="1.1" id="Layer_1" xmlns="http://www.w3.org/2000/svg" xmlns:xlink="http://www.w3.org/1999/xlink" x="0px" y="0px"
	 viewBox="0 0 20.5 20.5" style="enable-background:new 0 0 20.5 20.5;" xml:space="preserve">
<style type="text/css">
	.st0{fill:#161616;}
	.st1{fill-rule:evenodd;clip-rule:evenodd;fill:#161616;}
</style>
<path class="st0" d="M7.5,5.7c0-0.6,0.6-1.2,1.2-1.2C9.5,4.5,10,5,10,5.6C10,5.8,9.9,6,9.8,6.1C9.7,6.3,9.5,6.5,9.4,6.7L9.3,6.8
	C9.1,7,8.9,7.2,8.8,7.4C8.4,7.8,8,8.5,8,9.2C8,9.7,8.3,10,8.8,10c0.4,0,0.8-0.3,0.8-0.8C9.5,9,9.6,8.7,10,8.3
	c0.1-0.2,0.3-0.3,0.4-0.5l0.1-0.1C10.7,7.5,10.9,7.3,11,7c0.3-0.4,0.5-0.9,0.5-1.4c0-1.5-1.3-2.6-2.8-2.6C7.2,3,6,4.3,6,5.7
	c0,0.4,0.3,0.8,0.8,0.8C7.2,6.5,7.5,6.2,7.5,5.7z"/>
<path class="st0" d="M8.8,10.7c-0.6,0-1,0.4-1,1c0,0.6,0.4,1,1,1h0c0.6,0,1-0.4,1-1C9.8,11.2,9.3,10.7,8.8,10.7L8.8,10.7z"/>
<path class="st1" d="M7.1,1.6c1.1-0.1,2.3-0.1,3.4,0c3,0.2,5.3,2.6,5.5,5.5c0,0.6,0,1.3,0,1.9c-0.2,3-2.6,5.3-5.5,5.5
	c-1.1,0.1-2.3,0.1-3.4,0c-0.3,0-0.7-0.1-1-0.2l0,0c-0.2-0.1-0.4-0.1-0.5-0.2l0,0C5.5,14.1,5.3,14,5,14c-0.2,0-0.4,0.1-0.5,0.2
	c-0.1,0.1-0.2,0.2-0.4,0.3l0,0C3.7,14.8,3.2,15,2.4,15l0-0.1C2.9,14.2,3.3,13,2.7,12c0,0,0,0,0-0.1C2.1,11,1.6,10,1.5,9
	c0-0.6,0-1.3,0-1.9C1.7,4.1,4.1,1.7,7.1,1.6z M10.5,0.1C9.4,0,8.1,0,7,0.1C3.2,0.3,0.3,3.3,0,7c0,0.7,0,1.4,0,2.1
	c0.1,1.4,0.7,2.6,1.4,3.6c0.2,0.3,0.1,0.8-0.3,1.5l0,0c-0.1,0.2-0.3,0.5-0.3,0.7c-0.1,0.2-0.2,0.6,0.1,1c0.2,0.4,0.5,0.5,0.8,0.5
	c0.2,0,0.4,0,0.7,0l0,0c1.2,0,2-0.3,2.7-0.8c0.1-0.1,0.2-0.1,0.2-0.2c0.1,0,0.2,0.1,0.3,0.1C6,15.9,6.5,16,7,16
	c1.2,0.1,2.4,0.1,3.6,0c3.7-0.2,6.7-3.2,6.9-6.9c0-0.7,0-1.4,0-2.1C17.2,3.3,14.3,0.3,10.5,0.1z"/>
<path class="st0" d="M18.8,8.1c0.4-0.2,0.8,0,1,0.4c0.4,0.8,0.6,1.6,0.6,2.5c0,0.7,0,1.4,0,2.1c-0.1,1.4-0.7,2.6-1.4,3.6
	c-0.2,0.3-0.1,0.8,0.3,1.5l0,0c0.1,0.2,0.3,0.5,0.3,0.7c0.1,0.2,0.2,0.6-0.1,1c-0.2,0.4-0.5,0.5-0.8,0.5c-0.2,0-0.4,0-0.7,0l0,0
	c-1.2,0-2-0.3-2.7-0.8c-0.1-0.1-0.2-0.1-0.2-0.2c-0.1,0-0.2,0.1-0.3,0.1c-0.4,0.2-1,0.3-1.4,0.3c-1.2,0.1-2.4,0.1-3.6,0
	c-1.6-0.1-3-0.7-4.2-1.7c-0.3-0.3-0.4-0.7-0.1-1.1s0.7-0.4,1.1-0.1c0.9,0.8,2.1,1.3,3.3,1.3c1.1,0.1,2.3,0.1,3.4,0
	c0.3,0,0.7-0.1,1-0.2l0,0c0.2-0.1,0.4-0.1,0.5-0.2l0,0c0.1,0,0.3-0.1,0.6-0.1c0.2,0,0.4,0.1,0.5,0.2c0.1,0.1,0.2,0.2,0.4,0.3l0,0
	c0.4,0.3,0.9,0.5,1.7,0.5l0-0.1c-0.4-0.8-0.8-1.9-0.3-2.9c0,0,0,0,0-0.1C18.4,15,18.9,14,19,13c0-0.6,0-1.3,0-1.9
	c0-0.7-0.2-1.4-0.5-2C18.3,8.7,18.5,8.2,18.8,8.1z"/>
</svg>
