<?xml version="1.0" encoding="utf-8"?>
<!-- Generator: Adobe Illustrator 28.0.0, SVG Export Plug-In . SVG Version: 6.00 Build 0)  -->
<svg version="1.1" id="Layer_1" focusable="false" xmlns="http://www.w3.org/2000/svg" xmlns:xlink="http://www.w3.org/1999/xlink"
	 x="0px" y="0px" viewBox="0 0 256 256" style="enable-background:new 0 0 256 256;" xml:space="preserve">
<g>
	<path d="M79.5,31.5c4.7-4.7,12.3-4.7,17,0l80,80c0,0,0,0,0,0c4.7,4.7,4.7,12.3,0,17l-80,80l0,0c-4.7,4.7-12.3,4.7-17,0
		c-4.7-4.7-4.7-12.3,0-17L151,120L79.5,48.5c0,0,0,0,0,0C74.8,43.8,74.8,36.2,79.5,31.5C79.5,31.5,79.5,31.5,79.5,31.5z"/>
</g>
</svg>
