<svg xmlns="http://www.w3.org/2000/svg" viewBox="0 0 256 256" focusable="false" color="var(--token-db1c7457-9e71-4ea2-8dd6-f4b3d4d6cf25, rgb(34, 34, 34))" style="user-select: none; width: 100%; height: 100%; display: inline-block; fill: var(--token-db1c7457-9e71-4ea2-8dd6-f4b3d4d6cf25, rgb(34, 34, 34)); color: var(--token-db1c7457-9e71-4ea2-8dd6-f4b3d4d6cf25, rgb(34, 34, 34)); flex-shrink: 0;"><g color="var(--token-db1c7457-9e71-4ea2-8dd6-f4b3d4d6cf25, rgb(34, 34, 34))" weight="regular"><path d="M224,48V208a16,16,0,0,1-16,16H136a8,8,0,0,1,0-16h72V48H48v96a8,8,0,0,1-16,0V48A16,16,0,0,1,48,32H208A16,16,0,0,1,224,48ZM125.66,154.34a8,8,0,0,0-11.32,0L64,204.69,45.66,186.34a8,8,0,0,0-11.32,11.32l24,24a8,8,0,0,0,11.32,0l56-56A8,8,0,0,0,125.66,154.34Z"></path></g></svg>