<svg xmlns="http://www.w3.org/2000/svg" viewBox="0 0 256 256" focusable="false" color="var(--token-7a737513-bfb6-4011-93af-11095edcf2b3, rgb(162, 162, 162))" style="user-select: none; width: 100%; height: 100%; display: inline-block; fill: var(--token-7a737513-bfb6-4011-93af-11095edcf2b3, rgb(162, 162, 162)); color: var(--token-7a737513-bfb6-4011-93af-11095edcf2b3, rgb(162, 162, 162)); flex-shrink: 0;"><g color="var(--token-7a737513-bfb6-4011-93af-11095edcf2b3, rgb(162, 162, 162))" weight="regular"><path d="M128,24A104,104,0,1,0,232,128,104.11,104.11,0,0,0,128,24Zm0,192a88,88,0,1,1,88-88A88.1,88.1,0,0,1,128,216Zm12-88a12,12,0,1,1-12-12A12,12,0,0,1,140,128Zm44,0a12,12,0,1,1-12-12A12,12,0,0,1,184,128Zm-88,0a12,12,0,1,1-12-12A12,12,0,0,1,96,128Z"></path></g></svg>