<?xml version="1.0" encoding="utf-8"?>
<!-- Generator: Adobe Illustrator 28.0.0, SVG Export Plug-In . SVG Version: 6.00 Build 0)  -->
<svg version="1.1" id="Layer_1" xmlns="http://www.w3.org/2000/svg" xmlns:xlink="http://www.w3.org/1999/xlink" x="0px" y="0px"
	 viewBox="0 0 18.5 21.5" style="enable-background:new 0 0 18.5 21.5;" xml:space="preserve">
<style type="text/css">
	.st0{fill:#161616;}
	.st1{fill-rule:evenodd;clip-rule:evenodd;fill:#161616;}
</style>
<path class="st0" d="M3,8.8C3,8.3,3.3,8,3.8,8h4c0.4,0,0.8,0.3,0.8,0.8c0,0.4-0.3,0.8-0.8,0.8h-4C3.3,9.5,3,9.2,3,8.8z"/>
<path class="st0" d="M15,8.5c0.4-0.1,0.6-0.6,0.5-1c-0.1-0.4-0.6-0.6-1-0.5c-0.5,0.2-0.9,0.5-1.3,0.8c-0.4,0.3-0.7,0.7-1,1.1
	c-0.1,0.2-0.3,0.3-0.4,0.5c-0.1-0.1-0.2-0.2-0.3-0.2C11.3,9.1,11.2,9.1,11,9c-0.1,0-0.1,0-0.2,0c0,0-0.1,0-0.1,0l0,0
	C10.3,9,10,9.3,10,9.8c0,0.4,0.3,0.7,0.6,0.7l0,0l0,0c0.1,0,0.2,0.2,0.4,0.6c0.1,0.2,0.4,0.4,0.6,0.4c0.3,0,0.5-0.1,0.7-0.3l0,0l0,0
	c0,0,0,0,0-0.1c0-0.1,0.1-0.2,0.2-0.3c0.2-0.2,0.4-0.5,0.7-0.9c0.3-0.3,0.6-0.7,0.9-0.9C14.5,8.7,14.8,8.5,15,8.5z"/>
<path class="st0" d="M3,14.8C3,14.3,3.3,14,3.8,14h4c0.4,0,0.8,0.3,0.8,0.8c0,0.4-0.3,0.8-0.8,0.8h-4C3.3,15.5,3,15.2,3,14.8z"/>
<path class="st0" d="M15,14.5c0.4-0.1,0.6-0.6,0.5-1c-0.1-0.4-0.6-0.6-1-0.5c-0.5,0.2-0.9,0.5-1.3,0.8c-0.4,0.3-0.7,0.7-1,1.1
	c-0.1,0.2-0.3,0.3-0.4,0.5c-0.1-0.1-0.2-0.2-0.3-0.2c-0.2-0.1-0.3-0.2-0.4-0.2c-0.1,0-0.1,0-0.2,0c0,0,0,0-0.1,0c0,0,0,0,0,0
	c0,0,0,0,0,0l0,0l0,0h0h0h0c-0.4,0-0.8,0.3-0.8,0.8c0,0.4,0.3,0.7,0.6,0.7c0,0,0,0,0,0c0,0,0,0,0,0c0.1,0,0.2,0.2,0.4,0.6
	c0.1,0.2,0.4,0.4,0.6,0.4c0.3,0,0.5-0.1,0.7-0.3l0,0l0,0c0,0,0,0,0-0.1c0-0.1,0.1-0.2,0.2-0.3c0.2-0.2,0.4-0.5,0.7-0.9
	c0.3-0.3,0.6-0.7,0.9-0.9C14.5,14.7,14.8,14.5,15,14.5z"/>
<path class="st1" d="M5.5,2.5c0-0.6,0.4-1,1-1H12c0.6,0,1,0.4,1,1c0,0.6-0.4,1-1,1H6.5C5.9,3.5,5.5,3.1,5.5,2.5z M4.1,3
	C3,3.1,2.5,3.3,2.2,3.6C1.9,3.9,1.7,4.3,1.6,5C1.5,5.8,1.5,6.8,1.5,8.2v6.5c0,1.4,0,2.4,0.1,3.2c0.1,0.7,0.3,1.1,0.6,1.4
	s0.7,0.5,1.4,0.6C4.3,20,5.3,20,6.8,20h5c1.4,0,2.4,0,3.2-0.1c0.7-0.1,1.1-0.3,1.4-0.6s0.5-0.7,0.6-1.4c0.1-0.8,0.1-1.8,0.1-3.2V8.2
	c0-1.4,0-2.4-0.1-3.2c-0.1-0.7-0.3-1.1-0.6-1.4C16,3.3,15.5,3.1,14.4,3c-0.2,1.1-1.2,2-2.4,2H6.5C5.3,5,4.3,4.2,4.1,3z M14.3,1.5
	c1.3,0.1,2.3,0.3,3.1,1.1c0.6,0.6,0.9,1.4,1,2.3c0.1,0.9,0.1,2,0.1,3.3v6.6c0,1.4,0,2.5-0.1,3.3c-0.1,0.9-0.4,1.7-1,2.3
	c-0.6,0.6-1.4,0.9-2.3,1c-0.9,0.1-2,0.1-3.3,0.1H6.7c-1.4,0-2.5,0-3.3-0.1c-0.9-0.1-1.7-0.4-2.3-1c-0.6-0.6-0.9-1.4-1-2.3
	C0,17.3,0,16.2,0,14.8V8.2c0-1.4,0-2.5,0.1-3.3c0.1-0.9,0.4-1.7,1-2.3c0.8-0.8,1.8-1,3.1-1.1C4.6,0.6,5.5,0,6.5,0H12
	C13,0,13.9,0.6,14.3,1.5z"/>
</svg>
