<?xml version="1.0" encoding="utf-8"?>
<!-- Generator: Adobe Illustrator 28.0.0, SVG Export Plug-In . SVG Version: 6.00 Build 0)  -->
<svg version="1.1" id="svg10658191684" xmlns="http://www.w3.org/2000/svg" xmlns:xlink="http://www.w3.org/1999/xlink" x="0px"
	 y="0px" viewBox="0 0 24 24" style="enable-background:new 0 0 24 24;" xml:space="preserve">
<style type="text/css">
	.st0{fill:none;stroke:#FFFFFF;stroke-width:2;stroke-miterlimit:10;}
</style>
<path class="st0" d="M3.6,18.2c-0.1-0.1-0.3-0.2-0.4-0.3C2,16.7,2,14.8,2,11s0-5.7,1.2-6.8C4.3,3,6.2,3,10,3h4c3.8,0,5.7,0,6.8,1.2
	C22,5.3,22,7.2,22,11s0,5.7-1.2,6.8c-0.1,0.1-0.3,0.2-0.4,0.3"/>
<path class="st0" d="M8.7,16.9c-0.9,0.5-3.1,1.6-1.8,2.9C7.6,20.5,8.4,21,9.3,21h5.4c0.9,0,1.7-0.5,2.4-1.1c1.4-1.3-0.9-2.4-1.8-2.9
	C13.3,15.7,10.7,15.7,8.7,16.9z"/>
<path class="st0" d="M14.5,11c0,1.4-1.1,2.5-2.5,2.5S9.5,12.4,9.5,11s1.1-2.5,2.5-2.5S14.5,9.6,14.5,11z"/>
</svg>
