<?xml version="1.0" encoding="utf-8"?>
<!-- Generator: Adobe Illustrator 28.0.0, SVG Export Plug-In . SVG Version: 6.00 Build 0)  -->
<svg version="1.1" id="svg11655999103" xmlns="http://www.w3.org/2000/svg" xmlns:xlink="http://www.w3.org/1999/xlink" x="0px"
	 y="0px" viewBox="0 0 24 24" style="enable-background:new 0 0 24 24;" xml:space="preserve">
<style type="text/css">
	.st0{fill:none;stroke:#FFFFFF;stroke-width:2;stroke-miterlimit:10;}
</style>
<path class="st0" d="M13,4H6.2C3.8,4,2.6,4,2.1,4.8c0,0,0,0,0,0.1C1.7,5.6,2.4,6.6,3.8,8.6C4.9,10.2,5.4,11,5.5,12c0,0,0,0.1,0,0.1
	c0,0.9-0.6,1.7-1.7,3.3c-1.4,2-2.1,3-1.7,3.8l0,0.1C2.6,20,3.8,20,6.2,20H13c2,0,2.9,0,3.8-0.4c0.8-0.4,1.4-1.2,2.6-2.8
	c1.7-2.3,2.6-3.5,2.6-4.8s-0.9-2.5-2.6-4.8c-1.2-1.6-1.8-2.4-2.6-2.8C15.9,4,15,4,13,4z"/>
</svg>
