<?xml version="1.0" encoding="utf-8"?>
<!-- Generator: Adobe Illustrator 28.0.0, SVG Export Plug-In . SVG Version: 6.00 Build 0)  -->
<svg version="1.1" id="svg12623928426" xmlns="http://www.w3.org/2000/svg" xmlns:xlink="http://www.w3.org/1999/xlink" x="0px"
	 y="0px" viewBox="0 0 24 24" style="enable-background:new 0 0 24 24;" xml:space="preserve">
<style type="text/css">
	.st0{fill:none;stroke:#FFFFFF;stroke-width:2;stroke-miterlimit:10;}
</style>
<path class="st0" d="M18,15V9c0-2.8,0-4.2-0.9-5.1C16.2,3,14.8,3,12,3H8C5.2,3,3.8,3,2.9,3.9C2,4.8,2,6.2,2,9v6c0,2.8,0,4.2,0.9,5.1
	C3.8,21,5.2,21,8,21h12 M6,8h8 M6,12h8 M6,16h4"/>
<path class="st0" d="M18,8h1c1.4,0,2.1,0,2.6,0.4C22,8.9,22,9.6,22,11v8c0,1.1-0.9,2-2,2s-2-0.9-2-2V8z"/>
</svg>
