<?xml version="1.0" encoding="utf-8"?>
<!-- Generator: Adobe Illustrator 28.0.0, SVG Export Plug-In . SVG Version: 6.00 Build 0)  -->
<svg version="1.1" id="Layer_1" focusable="false" xmlns="http://www.w3.org/2000/svg" xmlns:xlink="http://www.w3.org/1999/xlink"
	 x="0px" y="0px" viewBox="0 0 256 256" style="enable-background:new 0 0 256 256;" xml:space="preserve">
<style type="text/css">
	.st0{fill:#1B8354;}
</style>
<g>
	<path class="st0" d="M178,40c-20.6,0-38.7,8.9-50,23.9C116.7,48.9,98.7,40,78,40c-34.2,0-62,27.8-62,62c0,70,103.8,126.7,108.2,129
		c2.4,1.3,5.2,1.3,7.6,0c4.4-2.3,108.2-59,108.2-129C240,67.8,212.2,40,178,40z M128,214.8c-18.3-10.6-96-59.1-96-112.8
		c0-25.4,20.6-46,46-46c19.4,0,35.8,10.4,42.6,27c1.7,4.1,6.4,6,10.4,4.4c2-0.8,3.5-2.4,4.4-4.4c6.8-16.7,23.1-27,42.6-27
		c25.4,0,46,20.6,46,46C224,155.6,146.2,204.1,128,214.8z"/>
</g>
</svg>
