<?xml version="1.0" encoding="utf-8"?>
<!-- Generator: Adobe Illustrator 28.0.0, SVG Export Plug-In . SVG Version: 6.00 Build 0)  -->
<svg version="1.1" id="Layer_1" focusable="false" xmlns="http://www.w3.org/2000/svg" xmlns:xlink="http://www.w3.org/1999/xlink"
	 x="0px" y="0px" viewBox="0 0 256 256" style="enable-background:new 0 0 256 256;" xml:space="preserve">
<style type="text/css">
	.st0{fill:#1B8354;}
</style>
<path class="st0" d="M46.2,50.8c31.1-17.9,58.9-10.8,75.8,1.1c2.8,2,4.7,3.3,6.1,4.2c1.4-0.9,3.3-2.2,6.1-4.2
	c16.8-11.9,44.7-19,75.8-1.1c21.5,12.4,33.6,38.3,29.3,68c-4.3,29.9-24.8,63.6-68.4,93.9C155.7,223.3,144.6,231,128,231
	c-16.6,0-27.7-7.7-42.8-18.3c-43.5-30.3-64.1-64.1-68.4-93.9C12.6,89.1,24.7,63.2,46.2,50.8z"/>
</svg>
