<?xml version="1.0" encoding="utf-8"?>
<!-- Generator: Adobe Illustrator 28.0.0, SVG Export Plug-In . SVG Version: 6.00 Build 0)  -->
<svg version="1.1" id="svg11146421617" xmlns="http://www.w3.org/2000/svg" xmlns:xlink="http://www.w3.org/1999/xlink" x="0px"
	 y="0px" viewBox="0 0 24 24" style="enable-background:new 0 0 24 24;" xml:space="preserve">
<style type="text/css">
	.st0{fill:none;stroke:#FFFFFF;stroke-width:2;stroke-miterlimit:10;}
</style>
<path class="st0" d="M2,10c0-3.8,0-5.7,1.2-6.8C4.3,2,6.2,2,10,2h4c3.8,0,5.7,0,6.8,1.2C22,4.3,22,6.2,22,10s0,5.7-1.2,6.8
	C19.7,18,17.8,18,14,18h-4c-3.8,0-5.7,0-6.8-1.2C2,15.7,2,13.8,2,10z M16,22c-1.2-0.7-2.6-1-4-1c-1.4,0-2.8,0.3-4,1"/>
</svg>
