<?xml version="1.0" encoding="utf-8"?>
<!-- Generator: Adobe Illustrator 28.0.0, SVG Export Plug-In . SVG Version: 6.00 Build 0)  -->
<svg version="1.1" id="svg11547454938" xmlns="http://www.w3.org/2000/svg" xmlns:xlink="http://www.w3.org/1999/xlink" x="0px"
	 y="0px" viewBox="0 0 24 24" style="enable-background:new 0 0 24 24;" xml:space="preserve">
<style type="text/css">
	.st0{fill:none;stroke:#000000;stroke-width:1.5;stroke-miterlimit:10;}
</style>
<path class="st0" d="M2,18c0-1.5,0-2.3,0.3-2.9c0.2-0.3,0.5-0.6,0.8-0.8C3.7,14,4.5,14,6,14s2.3,0,2.9,0.3c0.3,0.2,0.6,0.5,0.8,0.8
	C10,15.7,10,16.5,10,18s0,2.3-0.3,2.9c-0.2,0.3-0.5,0.6-0.8,0.8C8.3,22,7.5,22,6,22s-2.3,0-2.9-0.3c-0.3-0.2-0.6-0.5-0.8-0.8
	C2,20.3,2,19.5,2,18z M14,18c0-1.5,0-2.3,0.3-2.9c0.2-0.3,0.5-0.6,0.8-0.8C15.7,14,16.5,14,18,14s2.3,0,2.9,0.3
	c0.3,0.2,0.6,0.5,0.8,0.8C22,15.7,22,16.5,22,18s0,2.3-0.3,2.9c-0.2,0.3-0.5,0.6-0.8,0.8C20.3,22,19.5,22,18,22s-2.3,0-2.9-0.3
	c-0.3-0.2-0.6-0.5-0.8-0.8C14,20.3,14,19.5,14,18z M2,6c0-1.5,0-2.3,0.3-2.9c0.2-0.3,0.5-0.6,0.8-0.8C3.7,2,4.5,2,6,2s2.3,0,2.9,0.3
	c0.3,0.2,0.6,0.5,0.8,0.8C10,3.7,10,4.5,10,6s0,2.3-0.3,2.9C9.5,9.2,9.2,9.5,8.9,9.7C8.3,10,7.5,10,6,10s-2.3,0-2.9-0.3
	C2.8,9.5,2.5,9.2,2.3,8.9C2,8.3,2,7.5,2,6z M14,6c0-1.5,0-2.3,0.3-2.9c0.2-0.3,0.5-0.6,0.8-0.8C15.7,2,16.5,2,18,2s2.3,0,2.9,0.3
	c0.3,0.2,0.6,0.5,0.8,0.8C22,3.7,22,4.5,22,6s0,2.3-0.3,2.9c-0.2,0.3-0.5,0.6-0.8,0.8C20.3,10,19.5,10,18,10s-2.3,0-2.9-0.3
	c-0.3-0.2-0.6-0.5-0.8-0.8C14,8.3,14,7.5,14,6z"/>
</svg>
