<?xml version="1.0" encoding="utf-8"?>
<!-- Generator: Adobe Illustrator 28.0.0, SVG Export Plug-In . SVG Version: 6.00 Build 0)  -->
<svg version="1.1" id="Layer_1" focusable="false" xmlns="http://www.w3.org/2000/svg" xmlns:xlink="http://www.w3.org/1999/xlink"
	 x="0px" y="0px" viewBox="0 0 256 256" style="enable-background:new 0 0 256 256;" xml:space="preserve">
<style type="text/css">
	.st0{fill:none;stroke:#D4A844;stroke-width:15;stroke-miterlimit:10;}
</style>
<g>
	<path class="st0" d="M231.3,114.8l-45,38.8l13.7,58.1c2.1,8.8-3.3,17.7-12.1,19.8c-4.2,1-8.7,0.3-12.4-2L125,198.5l-50.5,31.1
		c-7.7,4.7-17.8,2.2-22.5-5.5c-2.2-3.7-2.9-8.1-1.9-12.3l13.8-58.1l-45-38.8c-6.9-5.9-7.6-16.3-1.7-23.2c2.8-3.2,6.7-5.3,11-5.6
		l59-4.8l22.8-55.1c3.4-8.4,13-12.4,21.3-8.9c4,1.7,7.3,4.9,8.9,8.9l22.8,55.1l59,4.8c9.1,0.8,15.8,8.7,15,17.8
		C236.5,108.1,234.5,112,231.3,114.8L231.3,114.8z"/>
</g>
</svg>
