<svg xmlns="http://www.w3.org/2000/svg" viewBox="0 0 256 256" focusable="false" color="var(--token-cc32bb98-51fd-4b8e-9d55-0ad32166e11f, rgb(180, 35, 24))" style="user-select: none; width: 100%; height: 100%; display: inline-block; fill: var(--token-cc32bb98-51fd-4b8e-9d55-0ad32166e11f, rgb(180, 35, 24)); color: var(--token-cc32bb98-51fd-4b8e-9d55-0ad32166e11f, rgb(180, 35, 24)); flex-shrink: 0;"><g color="var(--token-cc32bb98-51fd-4b8e-9d55-0ad32166e11f, rgb(180, 35, 24))" weight="fill"><path d="M128,24A104,104,0,1,0,232,128,104.11,104.11,0,0,0,128,24Zm37.66,130.34a8,8,0,0,1-11.32,11.32L128,139.31l-26.34,26.35a8,8,0,0,1-11.32-11.32L116.69,128,90.34,101.66a8,8,0,0,1,11.32-11.32L128,116.69l26.34-26.35a8,8,0,0,1,11.32,11.32L139.31,128Z"></path></g></svg>