<?xml version="1.0" encoding="utf-8"?>
<!-- Generator: Adobe Illustrator 28.0.0, SVG Export Plug-In . SVG Version: 6.00 Build 0)  -->
<svg version="1.1" id="Layer_1" xmlns="http://www.w3.org/2000/svg" xmlns:xlink="http://www.w3.org/1999/xlink" x="0px" y="0px"
	 viewBox="0 0 512 512" style="enable-background:new 0 0 512 512;" xml:space="preserve">
<style type="text/css">
	.st0{fill:#FFFFFF;}
</style>
<g>
	<g>
		<path class="st0" d="M39.1,51.1C53.7,32.8,76.5,21.2,100,21.3c99,0,198,0,297,0c8.7,0.1,17.4-0.5,25.9,1.4c15.2,3,29.3,11,40,22.3
			c14.2,14.9,22.4,35.3,22.4,55.9c0,28.7,0,57.3,0,86c0.1,7.3-5.2,14.4-12.5,15.8c-6.8,1.6-14.3-1.8-17.5-8.1
			c-3.1-5.7-1.6-12.5-2-18.7c-133.3,0-266.7,0-400,0c0,78,0,156,0,234c-0.4,21.8,16,42.3,37,47.5c6.1,1.5,12.4,1.1,18.6,1.2
			c12,0,24-0.1,36,0c5.5,0,10.9,2.9,13.8,7.6c3.5,5.5,3.1,13.2-1.1,18.2c-3.2,4.1-8.5,6.3-13.6,6.1c-15,0-30,0-45,0
			c-16.7-0.1-33.1-6.2-46.3-16.4c-19.4-14.9-31.5-38.8-31.4-63.3c0-103.3,0-206.7,0-310C21.3,82.9,27.8,65.1,39.1,51.1z M90.4,54.5
			C69.5,59.9,53.1,80.2,53.3,102c0,14,0,28,0,42c133.3,0,266.7,0,400,0c0-14.6,0.1-29.3,0-43.9c-0.4-19.1-12.8-37.9-31-44.4
			c-6.5-2.5-13.5-2.5-20.3-2.4c-98,0-196,0-294,0C102.1,53.3,96.1,53,90.4,54.5z"/>
	</g>
	<path class="st0" d="M272.2,91.2c7.5-0.9,16.6-1.7,22.5,4.1c6.7,6.1,6.2,17.9-0.9,23.5c-5.3,4.7-12.9,4-19.4,3.7
		c-7.8-0.7-14.5-7.7-14.4-15.5C259.6,99.7,265.1,92.8,272.2,91.2z"/>
	<path class="st0" d="M330.4,91.5c4.7-1.3,9.8-0.9,14.6-0.6c8.7,1,15.4,10.1,13.5,18.7c-1.2,7.3-8.1,12.9-15.4,13
		c-5.7,0.1-12,0.7-16.9-2.8c-6.2-4.1-8.8-12.7-5.7-19.4C322.2,96.2,326,92.9,330.4,91.5z"/>
	<path class="st0" d="M386.4,91.5c4.7-1.3,9.8-0.9,14.6-0.6c8.7,1,15.3,10,13.5,18.6c-1.2,7.3-8.1,13-15.4,13.1
		c-5.7,0.1-11.9,0.7-16.8-2.8c-6.5-4.2-8.9-13.2-5.4-20.1C378.6,95.8,382.2,92.8,386.4,91.5z"/>
	<g>
		<path class="st0" d="M414.1,228.2c13.6-1.3,27.6,3.7,37.4,13.3c8.2,8.1,16.4,16.3,24.5,24.5c9.1,9.1,14.2,22.1,13.8,35
			c-0.3,12.2-5.6,24-14.3,32.5c-46.7,46.7-93.3,93.3-140,140c-3.3,3.4-7.8,5.6-12.4,6.3c-21.3,3.7-42.7,7.4-64.1,11.1
			c-7.7,0.4-15.8-2-21.5-7.3c-5.5-5.2-7.6-13.1-6.8-20.5c2.5-22.7,4.9-45.4,7.4-68.1c0.5-5.5,3.6-10.5,7.7-14.1
			c46.4-46.3,92.6-92.7,139-139C392.6,234,403.2,229.2,414.1,228.2z M410.4,267.5c-3.5,3.4-6.9,6.9-10.3,10.3
			c13.3,13.3,26.6,26.6,40,40c3.6-3.6,7.3-7.1,10.8-10.9c3.9-4.2,3.6-11.3-0.5-15.3c-7.9-8-15.9-16-23.9-23.9
			C422.3,263.3,414.6,263.2,410.4,267.5z M273.5,404.4c-1.7,16-3.5,32.1-5.2,48.1c14.3-2.4,28.5-4.9,42.8-7.3
			c1.3-0.1,2.5-0.8,3.3-1.7c33.3-33.4,66.7-66.7,100-100.1c-13.3-13.3-26.6-26.6-40-39.9C340.8,337.1,307.2,370.7,273.5,404.4z"/>
	</g>
</g>
</svg>
