<svg xmlns="http://www.w3.org/2000/svg" viewBox="0 0 256 256" focusable="false" color="var(--token-db1c7457-9e71-4ea2-8dd6-f4b3d4d6cf25, rgb(31, 31, 31))" style="user-select: none; width: 100%; height: 100%; display: inline-block; fill: var(--token-db1c7457-9e71-4ea2-8dd6-f4b3d4d6cf25, rgb(31, 31, 31)); color: var(--token-db1c7457-9e71-4ea2-8dd6-f4b3d4d6cf25, rgb(31, 31, 31)); flex-shrink: 0;"><g color="var(--token-db1c7457-9e71-4ea2-8dd6-f4b3d4d6cf25, rgb(31, 31, 31))" weight="regular"><path d="M176,80a8,8,0,0,1,8-8h32a8,8,0,0,1,0,16H184A8,8,0,0,1,176,80ZM40,88H144v16a8,8,0,0,0,16,0V56a8,8,0,0,0-16,0V72H40a8,8,0,0,0,0,16Zm176,80H120a8,8,0,0,0,0,16h96a8,8,0,0,0,0-16ZM88,144a8,8,0,0,0-8,8v16H40a8,8,0,0,0,0,16H80v16a8,8,0,0,0,16,0V152A8,8,0,0,0,88,144Z"></path></g></svg>