<?xml version="1.0" encoding="utf-8"?>
<!-- Generator: Adobe Illustrator 28.0.0, SVG Export Plug-In . SVG Version: 6.00 Build 0)  -->
<svg version="1.1" id="Layer_1" focusable="false" xmlns="http://www.w3.org/2000/svg" xmlns:xlink="http://www.w3.org/1999/xlink"
	 x="0px" y="0px" viewBox="0 0 256 256" style="enable-background:new 0 0 256 256;" xml:space="preserve">
<path d="M81.1,47.7c11.2,0,15,0.1,18.3,1.3c7.6,2.8,10.9,9.5,16,19.7l1,2H81.6c-3.8,0-6.9,3.1-6.9,6.9c0,3.8,3.1,6.9,6.9,6.9h45.7
	c0.1,0,0.2,0,0.3,0h43.4c9.8,0,16.6,0,21.9,0.5c5.2,0.5,8,1.5,10.2,2.9c2.3,1.5,4.2,3.4,5.7,5.7c1.3,2,2.4,5.3,2.9,11.3
	c0.5,5.9,0.6,13.3,0.6,23.1c0,3.8,3.1,6.9,6.9,6.9c3.8,0,6.9-3.1,6.9-6.9v-0.3c0-9.4,0-17.5-0.6-24.1c-0.6-6.6-1.9-12.7-5.2-17.7
	c-2.5-3.8-5.7-7-9.5-9.5c-4.8-3.2-10.2-4.5-16.5-5.2c-6-0.6-13.6-0.6-22.9-0.6h-39.7l-3.9-7.8c-0.3-0.6-0.6-1.2-0.9-1.8
	c-4.3-8.8-9.9-20.1-22.8-24.9c-5.9-2.2-12.4-2.2-21.8-2.2l-1.6,0c-8.1,0-14.6,0-19.8,0.5c-5.4,0.5-10.1,1.5-14.5,3.9
	c-5.6,3.1-10.2,7.7-13.3,13.3c-2.4,4.3-3.4,9.1-3.9,14.5c-0.5,5.3-0.5,11.8-0.5,19.8v28.9c0,21.2,0,37.8,1.7,50.7
	c1.8,13.3,5.5,23.7,13.7,31.9c7.3,7.3,16.3,11,27.6,13c11,2,24.8,2.3,41.8,2.4c3.8,0,6.9-3.1,6.9-6.9c0-3.8-3.1-6.9-6.9-6.9
	c-17.2-0.1-29.8-0.5-39.5-2.2c-9.5-1.7-15.6-4.6-20.2-9.2c-5.2-5.2-8.2-12.3-9.8-24c-1.6-11.9-1.6-27.6-1.6-49.4v-28
	c0-8.5,0-14.4,0.4-18.9c0.4-4.5,1.1-7,2.2-9c1.9-3.3,4.6-6.1,8-8c1.9-1.1,4.5-1.8,9-2.2C66.8,47.7,72.7,47.7,81.1,47.7z"/>
<path d="M145.9,153.2c-3.8,0-6.9,3.1-6.9,6.9c0,3.8,3.1,6.9,6.9,6.9h73.4c3.8,0,6.9-3.1,6.9-6.9c0-3.8-3.1-6.9-6.9-6.9H145.9z"/>
<path d="M145.9,180.8c-3.8,0-6.9,3.1-6.9,6.9c0,3.8,3.1,6.9,6.9,6.9h73.4c3.8,0,6.9-3.1,6.9-6.9c0-3.8-3.1-6.9-6.9-6.9H145.9z"/>
<path d="M145.9,208.3c-3.8,0-6.9,3.1-6.9,6.9c0,3.8,3.1,6.9,6.9,6.9l36.7,0c3.8,0,6.9-3.1,6.9-6.9c0-3.8-3.1-6.9-6.9-6.9
	L145.9,208.3z"/>
</svg>
