<?xml version="1.0" encoding="utf-8"?>
<!-- Generator: Adobe Illustrator 28.0.0, SVG Export Plug-In . SVG Version: 6.00 Build 0)  -->
<svg version="1.1" id="Layer_1" xmlns="http://www.w3.org/2000/svg" xmlns:xlink="http://www.w3.org/1999/xlink" x="0px" y="0px"
	 viewBox="0 0 32 32" style="enable-background:new 0 0 32 32;" xml:space="preserve">
<style type="text/css">
	.st0{fill:#161616;}
	.st1{fill-rule:evenodd;clip-rule:evenodd;fill:#161616;}
</style>
<path class="st0" d="M15.3,17.1c-0.1,0-0.2,0-0.3,0c-0.6,0-1-0.5-1-1c0-0.6,0.5-1,1-1h0c0.3,0,0.6,0,0.8,0c0.3,0,0.7,0.1,1,0.5
	c0.3,0.3,0.4,0.7,0.5,1c0,0.3,0,0.6,0,0.8l0,5.5c0,0.6-0.5,1-1,1c-0.6,0-1-0.5-1-1v-5.4C15.3,17.3,15.3,17.2,15.3,17.1z"/>
<path class="st0" d="M16,10.7c-0.7,0-1.4,0.6-1.4,1.4c0,0.7,0.6,1.4,1.4,1.4h0c0.7,0,1.4-0.6,1.4-1.4C17.4,11.3,16.7,10.7,16,10.7
	L16,10.7z"/>
<path class="st1" d="M17.6,4.5c-1-0.3-2.1-0.3-3.2,0c-0.8,0.3-1.6,1-2.7,2.4c-1.1,1.5-2.3,3.6-3.9,6.5c-1.6,2.9-2.8,5-3.6,6.7
	c-0.7,1.7-0.9,2.8-0.7,3.6c0.2,1.1,0.8,2.1,1.6,2.8c0.6,0.6,1.6,1,3.4,1.1C10.3,28,12.7,28,16,28c3.3,0,5.7,0,7.5-0.2
	c1.8-0.2,2.8-0.6,3.4-1.1c0.8-0.7,1.4-1.7,1.6-2.8c0.2-0.9,0-1.9-0.7-3.6c-0.7-1.7-1.9-3.8-3.6-6.7c-1.6-2.9-2.8-5-3.9-6.5
	C19.2,5.5,18.4,4.8,17.6,4.5z M13.8,2.6c1.4-0.5,3-0.5,4.4,0c1.4,0.5,2.6,1.6,3.7,3.2c1.1,1.6,2.4,3.8,4,6.6l0.1,0.1
	c1.6,2.8,2.9,5.1,3.6,6.8c0.8,1.8,1.2,3.4,0.9,4.8c-0.3,1.5-1.1,2.9-2.2,3.9c-1.1,1-2.6,1.5-4.6,1.7C21.8,30,19.3,30,16.1,30h-0.1
	c-3.2,0-5.7,0-7.6-0.2c-1.9-0.2-3.4-0.6-4.6-1.7c-1.1-1-1.9-2.4-2.2-3.9c-0.3-1.5,0.1-3,0.9-4.8c0.8-1.8,2-4,3.6-6.8l0.1-0.1
	c1.6-2.8,2.9-5.1,4-6.6C11.2,4.2,12.3,3.1,13.8,2.6z"/>
</svg>
