<?xml version="1.0" encoding="utf-8"?>
<!-- Generator: Adobe Illustrator 28.0.0, SVG Export Plug-In . SVG Version: 6.00 Build 0)  -->
<svg version="1.1" id="Layer_1" xmlns="http://www.w3.org/2000/svg" xmlns:xlink="http://www.w3.org/1999/xlink" x="0px" y="0px"
	 viewBox="0 0 32 32" style="enable-background:new 0 0 32 32;" xml:space="preserve">
<style type="text/css">
	.st0{fill-rule:evenodd;clip-rule:evenodd;fill:#166A45;}
</style>
<path class="st0" d="M16,28.8c7.1,0,12.8-5.7,12.8-12.8S23.1,3.2,16,3.2S3.2,8.9,3.2,16S8.9,28.8,16,28.8z M22.2,13.1
	c0.4-0.5,0.3-1.3-0.3-1.7c-0.5-0.4-1.3-0.3-1.7,0.3l-5.6,7.7l-3-3c-0.5-0.5-1.2-0.5-1.7,0c-0.5,0.5-0.5,1.2,0,1.7c0,0,0,0,0,0l4,4
	c0.5,0.5,1.2,0.5,1.7,0c0,0,0.1-0.1,0.1-0.1C15.8,21.9,22.2,13.1,22.2,13.1z"/>
</svg>
