<svg xmlns="http://www.w3.org/2000/svg" viewBox="0 0 256 256" focusable="false" color="var(--token-db1c7457-9e71-4ea2-8dd6-f4b3d4d6cf25, rgb(34, 34, 34)) /* {&quot;name&quot;:&quot;BLACK&quot;} */" style="user-select: none; width: 100%; height: 100%; display: inline-block; fill: var(--token-db1c7457-9e71-4ea2-8dd6-f4b3d4d6cf25, rgb(34, 34, 34)); color: var(--token-db1c7457-9e71-4ea2-8dd6-f4b3d4d6cf25, rgb(34, 34, 34)); flex-shrink: 0;"><g color="var(--token-db1c7457-9e71-4ea2-8dd6-f4b3d4d6cf25, rgb(34, 34, 34)) /* {&quot;name&quot;:&quot;BLACK&quot;} */" weight="regular"><path d="M208,32H184V24a8,8,0,0,0-16,0v8H88V24a8,8,0,0,0-16,0v8H48A16,16,0,0,0,32,48V208a16,16,0,0,0,16,16H208a16,16,0,0,0,16-16V48A16,16,0,0,0,208,32ZM72,48v8a8,8,0,0,0,16,0V48h80v8a8,8,0,0,0,16,0V48h24V80H48V48ZM208,208H48V96H208V208Zm-64-56a16,16,0,1,1-16-16A16,16,0,0,1,144,152Z"></path></g></svg>