<?xml version="1.0" encoding="utf-8"?>
<!-- Generator: Adobe Illustrator 28.0.0, SVG Export Plug-In . SVG Version: 6.00 Build 0)  -->
<svg version="1.1" id="Layer_1" xmlns="http://www.w3.org/2000/svg" xmlns:xlink="http://www.w3.org/1999/xlink" x="0px" y="0px"
	 viewBox="0 0 284 200.2" style="enable-background:new 0 0 284 200.2;" xml:space="preserve">
<style type="text/css">
	.st0{fill:#384250;}
	.st1{fill:#D2D6DB;}
	.st2{fill-rule:evenodd;clip-rule:evenodd;fill:#D2D6DB;}
	.st3{fill-rule:evenodd;clip-rule:evenodd;fill:#9DA4AE;}
	.st4{fill:#9DA4AE;}
</style>
<path class="st0" d="M217.3,76.2l-22.1,36.5h23.3V76.2H217.3z M236.4,144h-17.8v-16.7h-38.3v-16l33.9-54.4h22.2v55.9h11v14.5h-11
	V144z M141.7,129.6c10,0,13.2-7.7,13.2-21V92.2c0-13.2-3.2-21-13.2-21s-13.2,7.7-13.2,21v16.5C128.4,121.9,131.7,129.6,141.7,129.6z
	 M141.7,145.4c-22.8,0-33.5-16.6-33.5-45c0-28.4,10.7-45,33.5-45c22.8,0,33.5,16.6,33.5,45C175.2,128.9,164.5,145.4,141.7,145.4z
	 M72.7,76.2l-22.1,36.5H74V76.2H72.7z M91.8,144H74v-16.7H35.7v-16l33.9-54.4h22.2v55.9h11v14.5h-11V144z"/>
<path class="st1" d="M274.1,23.4c0-0.2,0.2-0.4,0.4-0.4h0c0.2,0,0.4,0.2,0.4,0.4c0,0.2-0.2,0.4-0.4,0.4h0
	C274.3,23.8,274.1,23.6,274.1,23.4z"/>
<path class="st1" d="M274.2,22.1c0,0.2,0.1,0.3,0.3,0.3c0.2,0,0.3-0.1,0.3-0.3v-1.7c0-0.2-0.1-0.3-0.3-0.3c-0.2,0-0.3,0.1-0.3,0.3
	V22.1z"/>
<path class="st2" d="M275,18.2c-0.3-0.1-0.7-0.1-1,0c-0.2,0.1-0.5,0.3-0.8,0.8c-0.3,0.5-0.7,1.1-1.2,2c-0.5,0.9-0.9,1.5-1.1,2.1
	c-0.2,0.5-0.3,0.8-0.2,1.1c0.1,0.3,0.2,0.6,0.5,0.9c0.2,0.2,0.5,0.3,1,0.4c0.5,0.1,1.3,0.1,2.3,0.1c1,0,1.7,0,2.3-0.1
	c0.5-0.1,0.9-0.2,1-0.4c0.2-0.2,0.4-0.5,0.5-0.9c0.1-0.3,0-0.6-0.2-1.1c-0.2-0.5-0.6-1.2-1.1-2.1c-0.5-0.9-0.9-1.5-1.2-2
	C275.5,18.5,275.3,18.2,275,18.2z M273.9,17.6c0.4-0.1,0.9-0.1,1.4,0c0.4,0.1,0.8,0.5,1.1,1c0.3,0.5,0.7,1.2,1.2,2l0,0
	c0.5,0.9,0.9,1.6,1.1,2.1c0.2,0.6,0.4,1,0.3,1.5c-0.1,0.5-0.3,0.9-0.7,1.2c-0.3,0.3-0.8,0.4-1.4,0.5c-0.6,0.1-1.4,0.1-2.3,0.1h0
	c-1,0-1.8,0-2.3-0.1c-0.6-0.1-1.1-0.2-1.4-0.5c-0.3-0.3-0.6-0.7-0.7-1.2c-0.1-0.5,0-0.9,0.3-1.5c0.2-0.5,0.6-1.2,1.1-2.1l0,0
	c0.5-0.9,0.9-1.6,1.2-2C273.1,18.1,273.4,17.7,273.9,17.6z"/>
<path class="st1" d="M200.5,170.6c0-0.2,0.2-0.4,0.4-0.4h0c0.2,0,0.4,0.2,0.4,0.4c0,0.2-0.2,0.4-0.4,0.4h0
	C200.7,171,200.5,170.8,200.5,170.6z"/>
<path class="st1" d="M200.6,169.3c0,0.2,0.1,0.3,0.3,0.3s0.3-0.1,0.3-0.3v-1.7c0-0.2-0.1-0.3-0.3-0.3s-0.3,0.1-0.3,0.3V169.3z"/>
<path class="st2" d="M201.4,165.3c-0.3-0.1-0.7-0.1-1,0c-0.2,0.1-0.5,0.3-0.8,0.8c-0.3,0.5-0.7,1.1-1.2,2c-0.5,0.9-0.9,1.5-1.1,2.1
	c-0.2,0.5-0.3,0.8-0.2,1.1c0.1,0.3,0.2,0.6,0.5,0.9c0.2,0.2,0.5,0.3,1,0.4c0.5,0.1,1.3,0.1,2.3,0.1c1,0,1.7,0,2.3-0.1
	c0.5-0.1,0.9-0.2,1-0.4c0.2-0.2,0.4-0.5,0.5-0.9c0.1-0.3,0-0.6-0.2-1.1c-0.2-0.5-0.6-1.2-1.1-2.1c-0.5-0.9-0.9-1.5-1.2-2
	C201.9,165.6,201.7,165.4,201.4,165.3z M200.3,164.7c0.4-0.1,0.9-0.1,1.4,0c0.4,0.1,0.8,0.5,1.1,1c0.3,0.5,0.7,1.2,1.2,2l0,0
	c0.5,0.9,0.9,1.6,1.1,2.1c0.2,0.6,0.4,1,0.3,1.5c-0.1,0.5-0.3,0.9-0.7,1.2c-0.3,0.3-0.8,0.4-1.4,0.5c-0.6,0.1-1.4,0.1-2.3,0.1h0
	c-1,0-1.8,0-2.3-0.1c-0.6-0.1-1.1-0.2-1.4-0.5c-0.3-0.3-0.6-0.7-0.7-1.2c-0.1-0.5,0-0.9,0.3-1.5c0.2-0.5,0.6-1.2,1.1-2.1l0,0
	c0.5-0.9,0.9-1.6,1.2-2C199.5,165.2,199.8,164.9,200.3,164.7z"/>
<path class="st3" d="M52.2,174.8c0.2-0.2,0.5-0.2,0.7,0l4,4l4-4c0.2-0.2,0.5-0.2,0.7,0c0.2,0.2,0.2,0.5,0,0.7l-4,4l4,4
	c0.2,0.2,0.2,0.5,0,0.7c-0.2,0.2-0.5,0.2-0.7,0l-4-4l-4,4c-0.2,0.2-0.5,0.2-0.7,0c-0.2-0.2-0.2-0.5,0-0.7l4-4l-4-4
	C52,175.3,52,175,52.2,174.8z"/>
<path class="st2" d="M10.7,82.2c0.1-0.1,0.3-0.1,0.4,0l2.7,2.7l2.7-2.7c0.1-0.1,0.3-0.1,0.4,0c0.1,0.1,0.1,0.3,0,0.4l-2.7,2.7L17,88
	c0.1,0.1,0.1,0.3,0,0.4c-0.1,0.1-0.3,0.1-0.4,0l-2.7-2.7l-2.7,2.7c-0.1,0.1-0.3,0.1-0.4,0c-0.1-0.1-0.1-0.3,0-0.4l2.7-2.7l-2.7-2.7
	C10.6,82.5,10.6,82.3,10.7,82.2z"/>
<path class="st4" d="M132.7,22c-0.2-0.2-0.5-0.2-0.7,0c-0.2,0.2-0.2,0.5,0,0.7l1.5,1.5l-1.5,1.5c-0.2,0.2-0.2,0.5,0,0.7
	c0.2,0.2,0.5,0.2,0.7,0l1.5-1.5l1.5,1.5c0.2,0.2,0.5,0.2,0.7,0c0.2-0.2,0.2-0.5,0-0.7l-1.5-1.5l1.5-1.5c0.2-0.2,0.2-0.5,0-0.7
	c-0.2-0.2-0.5-0.2-0.7,0l-1.5,1.5L132.7,22z"/>
<path class="st3" d="M128.5,24.2c0,3.2,2.6,5.8,5.8,5.8c3.2,0,5.8-2.6,5.8-5.8c0-3.2-2.6-5.8-5.8-5.8C131,18.5,128.5,21,128.5,24.2z
	 M134.2,30.9c-3.7,0-6.7-3-6.7-6.7c0-3.7,3-6.7,6.7-6.7c3.7,0,6.7,3,6.7,6.7C140.9,27.9,137.9,30.9,134.2,30.9z"/>
<path class="st1" d="M93.3,194.2c-0.1-0.1-0.3-0.1-0.4,0c-0.1,0.1-0.1,0.3,0,0.4l1,1l-1,1c-0.1,0.1-0.1,0.3,0,0.4
	c0.1,0.1,0.3,0.1,0.4,0l1-1l1,1c0.1,0.1,0.3,0.1,0.4,0c0.1-0.1,0.1-0.3,0-0.4l-1-1l1-1c0.1-0.1,0.1-0.3,0-0.4
	c-0.1-0.1-0.3-0.1-0.4,0l-1,1L93.3,194.2z"/>
<path class="st2" d="M90.5,195.7c0,2.1,1.7,3.8,3.8,3.8s3.8-1.7,3.8-3.8c0-2.1-1.7-3.8-3.8-3.8S90.5,193.6,90.5,195.7z M94.3,200.2
	c-2.5,0-4.5-2-4.5-4.5c0-2.5,2-4.5,4.5-4.5c2.5,0,4.5,2,4.5,4.5C98.8,198.2,96.8,200.2,94.3,200.2z"/>
<path class="st4" d="M279.2,77.6c0.2-0.2,0.2-0.5,0-0.7c-0.2-0.2-0.5-0.2-0.7,0l-1.5,1.5l-1.5-1.5c-0.2-0.2-0.5-0.2-0.7,0
	c-0.2,0.2-0.2,0.5,0,0.7l1.5,1.5l-1.5,1.5c-0.2,0.2-0.2,0.5,0,0.7c0.2,0.2,0.5,0.2,0.7,0l1.5-1.5l1.5,1.5c0.2,0.2,0.5,0.2,0.7,0
	c0.2-0.2,0.2-0.5,0-0.7l-1.5-1.5L279.2,77.6z"/>
<path class="st3" d="M272.3,74.4c0.3-0.3,0.8-0.5,1.5-0.6c0.8-0.1,1.8-0.1,3.2-0.1c1.4,0,2.4,0,3.2,0.1c0.8,0.1,1.2,0.3,1.5,0.6
	c0.3,0.3,0.5,0.8,0.6,1.5c0.1,0.8,0.1,1.8,0.1,3.2c0,1.4,0,2.4-0.1,3.2c-0.1,0.8-0.3,1.2-0.6,1.5c-0.3,0.3-0.8,0.5-1.5,0.6
	c-0.8,0.1-1.8,0.1-3.2,0.1c-1.4,0-2.4,0-3.2-0.1c-0.8-0.1-1.2-0.3-1.5-0.6c-0.3-0.3-0.5-0.8-0.6-1.5c-0.1-0.8-0.1-1.8-0.1-3.2
	c0-1.4,0-2.4,0.1-3.2C271.8,75.2,272,74.7,272.3,74.4z M277.1,72.7L277.1,72.7c-1.4,0-2.5,0-3.3,0.1c-0.9,0.1-1.5,0.4-2.1,0.9
	c-0.5,0.5-0.8,1.2-0.9,2.1c-0.1,0.8-0.1,1.9-0.1,3.3v0.1c0,1.4,0,2.4,0.1,3.3c0.1,0.9,0.4,1.5,0.9,2.1c0.5,0.5,1.2,0.8,2.1,0.9
	c0.8,0.1,1.9,0.1,3.3,0.1h0.1c1.4,0,2.4,0,3.3-0.1c0.9-0.1,1.5-0.4,2.1-0.9c0.5-0.5,0.8-1.2,0.9-2.1c0.1-0.8,0.1-1.9,0.1-3.3v-0.1
	c0-1.4,0-2.4-0.1-3.3c-0.1-0.9-0.4-1.5-0.9-2.1c-0.5-0.5-1.2-0.8-2.1-0.9C279.5,72.7,278.4,72.7,277.1,72.7z"/>
<path class="st4" d="M254.6,172.3c0.2-0.2,0.2-0.5,0-0.7c-0.2-0.2-0.5-0.2-0.7,0l-1.5,1.5l-1.5-1.5c-0.2-0.2-0.5-0.2-0.7,0
	c-0.2,0.2-0.2,0.5,0,0.7l1.5,1.5l-1.5,1.5c-0.2,0.2-0.2,0.5,0,0.7c0.2,0.2,0.5,0.2,0.7,0l1.5-1.5l1.5,1.5c0.2,0.2,0.5,0.2,0.7,0
	c0.2-0.2,0.2-0.5,0-0.7l-1.5-1.5L254.6,172.3z"/>
<path class="st3" d="M247.7,169.2c0.3-0.3,0.8-0.5,1.5-0.6c0.8-0.1,1.8-0.1,3.2-0.1c1.4,0,2.4,0,3.2,0.1c0.8,0.1,1.2,0.3,1.5,0.6
	c0.3,0.3,0.5,0.8,0.6,1.5c0.1,0.8,0.1,1.8,0.1,3.2c0,1.4,0,2.4-0.1,3.2c-0.1,0.8-0.3,1.2-0.6,1.5c-0.3,0.3-0.8,0.5-1.5,0.6
	c-0.8,0.1-1.8,0.1-3.2,0.1c-1.4,0-2.4,0-3.2-0.1c-0.8-0.1-1.2-0.3-1.5-0.6c-0.3-0.3-0.5-0.8-0.6-1.5c-0.1-0.8-0.1-1.8-0.1-3.2
	c0-1.4,0-2.4,0.1-3.2C247.2,169.9,247.3,169.5,247.7,169.2z M252.4,167.5L252.4,167.5c-1.4,0-2.5,0-3.3,0.1
	c-0.9,0.1-1.5,0.4-2.1,0.9c-0.5,0.5-0.8,1.2-0.9,2.1c-0.1,0.8-0.1,1.9-0.1,3.3v0.1c0,1.4,0,2.4,0.1,3.3c0.1,0.9,0.4,1.5,0.9,2.1
	c0.5,0.5,1.2,0.8,2.1,0.9c0.8,0.1,1.9,0.1,3.3,0.1h0.1c1.4,0,2.4,0,3.3-0.1c0.9-0.1,1.5-0.4,2.1-0.9c0.5-0.5,0.8-1.2,0.9-2.1
	c0.1-0.8,0.1-1.9,0.1-3.3v-0.1c0-1.4,0-2.4-0.1-3.3c-0.1-0.9-0.4-1.5-0.9-2.1c-0.5-0.5-1.2-0.8-2.1-0.9
	C254.9,167.5,253.8,167.5,252.4,167.5z"/>
<path class="st1" d="M177,0.6c-0.1,0-0.3,0.1-0.5,0.3c-0.4,0.4-0.4,0.5-0.3,0.7c0,0.1,0.1,0.1,0.3,0.3l0.7,0.7
	c0.4,0.4,0.6,0.6,0.6,0.9s-0.2,0.6-0.6,0.9l-0.7,0.7c-0.1,0.1-0.2,0.2-0.3,0.3c-0.1,0.2-0.1,0.4,0.3,0.7c0.4,0.4,0.5,0.4,0.7,0.3
	c0.1,0,0.1-0.1,0.3-0.3l0.7-0.7c0.4-0.4,0.6-0.6,0.9-0.6c0.3,0,0.6,0.2,0.9,0.6l0.7,0.7c0.1,0.1,0.2,0.2,0.3,0.3
	c0.2,0.1,0.4,0.1,0.7-0.3c0.4-0.4,0.4-0.5,0.3-0.7c0-0.1-0.1-0.1-0.3-0.3l-0.7-0.7c-0.4-0.4-0.6-0.6-0.6-0.9c0-0.3,0.2-0.6,0.6-0.9
	l0.7-0.7c0.1-0.1,0.2-0.2,0.3-0.3c0.1-0.2,0.1-0.4-0.3-0.7c-0.4-0.4-0.5-0.4-0.7-0.3c-0.1,0-0.1,0.1-0.3,0.3l-0.7,0.7
	c-0.4,0.4-0.6,0.6-0.9,0.6c-0.3,0-0.6-0.2-0.9-0.6l-0.7-0.7c-0.1-0.1-0.2-0.2-0.3-0.3C177.1,0.6,177,0.6,177,0.6L177,0.6z M177,7.3
	c-0.5,0-0.8-0.4-1-0.5c-0.2-0.2-0.8-0.8-0.4-1.5c0.1-0.1,0.2-0.2,0.4-0.4l0.7-0.7c0.2-0.2,0.4-0.4,0.4-0.5s-0.2-0.3-0.4-0.5L176,2.4
	c-0.2-0.2-0.3-0.3-0.4-0.4c-0.4-0.7,0.2-1.3,0.4-1.5c0.2-0.2,0.8-0.8,1.5-0.4c0.1,0.1,0.2,0.2,0.4,0.4l0.7,0.7
	c0.2,0.2,0.4,0.4,0.5,0.4c0.1,0,0.3-0.2,0.5-0.4l0.7-0.7c0.2-0.2,0.3-0.3,0.4-0.4c0.7-0.4,1.3,0.2,1.5,0.4c0.2,0.2,0.8,0.8,0.4,1.5
	c-0.1,0.1-0.2,0.2-0.4,0.4l-0.7,0.7c-0.2,0.2-0.4,0.4-0.4,0.5s0.2,0.3,0.4,0.5l0.7,0.7c0.2,0.2,0.3,0.3,0.4,0.4
	c0.4,0.7-0.2,1.3-0.4,1.5c-0.2,0.2-0.8,0.8-1.5,0.4c-0.1-0.1-0.2-0.2-0.4-0.4L179.6,6c-0.2-0.2-0.4-0.4-0.5-0.4
	c-0.1,0-0.3,0.2-0.5,0.4l-0.7,0.7c-0.2,0.2-0.3,0.3-0.4,0.4C177.3,7.2,177.1,7.3,177,7.3L177,7.3z"/>
<path class="st4" d="M38.7,43.4c-0.2,0-0.4,0.1-0.8,0.5c-0.5,0.5-0.5,0.8-0.4,1.1c0,0.1,0.2,0.2,0.4,0.4l1.1,1.1
	c0.6,0.6,0.9,0.9,0.9,1.4c0,0.5-0.3,0.9-0.9,1.4l-1.1,1.1c-0.2,0.2-0.3,0.3-0.4,0.4c-0.2,0.3-0.2,0.6,0.4,1.1
	c0.5,0.5,0.8,0.5,1.1,0.4c0.1,0,0.2-0.2,0.4-0.4l1.1-1.1c0.6-0.6,0.9-0.9,1.4-0.9c0.5,0,0.9,0.3,1.4,0.9l1.1,1.1
	c0.2,0.2,0.3,0.3,0.4,0.4c0.3,0.2,0.6,0.2,1.1-0.4c0.5-0.5,0.5-0.8,0.4-1.1c0-0.1-0.2-0.2-0.4-0.4l-1.1-1.1
	c-0.6-0.6-0.9-0.9-0.9-1.4c0-0.5,0.3-0.9,0.9-1.4l1.1-1.1c0.2-0.2,0.3-0.3,0.4-0.4c0.2-0.3,0.2-0.6-0.4-1.1
	c-0.5-0.5-0.8-0.5-1.1-0.4c-0.1,0-0.2,0.2-0.4,0.4L43.4,45c-0.6,0.6-0.9,0.9-1.4,0.9c-0.5,0-0.9-0.3-1.4-0.9l-1.1-1.1
	c-0.2-0.2-0.3-0.3-0.4-0.4C38.9,43.4,38.8,43.4,38.7,43.4L38.7,43.4z M38.7,53.4c-0.7,0-1.2-0.5-1.5-0.8c-0.3-0.3-1.2-1.2-0.5-2.2
	c0.1-0.2,0.3-0.3,0.5-0.6l1.1-1.1c0.4-0.4,0.6-0.6,0.6-0.8c0-0.1-0.3-0.4-0.6-0.8l-1.1-1.1c-0.3-0.3-0.4-0.4-0.5-0.6
	c-0.6-1.1,0.2-2,0.5-2.2c0.3-0.3,1.2-1.2,2.2-0.5c0.2,0.1,0.3,0.3,0.6,0.5l1.1,1.1c0.4,0.4,0.6,0.6,0.8,0.6c0.1,0,0.4-0.3,0.8-0.6
	l1.1-1.1c0.3-0.3,0.4-0.4,0.6-0.5c1.1-0.6,2,0.2,2.2,0.5c0.3,0.3,1.2,1.2,0.5,2.2c-0.1,0.2-0.3,0.3-0.5,0.6l-1.1,1.1
	c-0.4,0.4-0.6,0.6-0.6,0.8c0,0.1,0.3,0.4,0.6,0.8l1.1,1.1c0.3,0.3,0.4,0.4,0.5,0.6c0.6,1.1-0.2,2-0.5,2.2c-0.3,0.3-1.2,1.2-2.2,0.5
	c-0.2-0.1-0.3-0.3-0.6-0.5l-1.1-1.1c-0.4-0.4-0.6-0.6-0.8-0.6c-0.1,0-0.4,0.3-0.8,0.6l-1.1,1.1c-0.3,0.3-0.4,0.4-0.6,0.5
	C39.2,53.3,38.9,53.4,38.7,53.4L38.7,53.4z"/>
<path class="st3" d="M171.1,195.1c0.9-1,1.4-2.3,1.4-3.7c0-3.2-2.6-5.8-5.8-5.8c-1.4,0-2.7,0.5-3.7,1.4L171.1,195.1z M160.9,191.3
	c0,3.2,2.6,5.8,5.8,5.8c1.4,0,2.7-0.5,3.7-1.4l-8.1-8.1C161.4,188.6,160.9,189.9,160.9,191.3z M166.7,198c-3.7,0-6.7-3-6.7-6.7
	c0-3.7,3-6.7,6.7-6.7c3.7,0,6.7,3,6.7,6.7C173.4,195,170.4,198,166.7,198z"/>
<path class="st3" d="M229.7,25.5c0.9-1,1.4-2.3,1.4-3.7c0-3.2-2.6-5.8-5.8-5.8c-1.4,0-2.7,0.5-3.7,1.4L229.7,25.5z M219.5,21.7
	c0,3.2,2.6,5.8,5.8,5.8c1.4,0,2.7-0.5,3.7-1.4l-8.1-8.1C220,19,219.5,20.3,219.5,21.7z M225.3,28.4c-3.7,0-6.7-3-6.7-6.7
	c0-3.7,3-6.7,6.7-6.7c3.7,0,6.7,3,6.7,6.7C232,25.4,229,28.4,225.3,28.4z"/>
<path class="st2" d="M282.5,129.6c0.6-0.7,0.9-1.5,0.9-2.5c0-2.1-1.7-3.8-3.8-3.8c-0.9,0-1.8,0.3-2.5,0.9L282.5,129.6z M275.7,127.1
	c0,2.1,1.7,3.8,3.8,3.8c0.9,0,1.8-0.3,2.5-0.9l-5.4-5.4C276,125.3,275.7,126.2,275.7,127.1z M279.5,131.6c-2.5,0-4.5-2-4.5-4.5
	c0-2.5,2-4.5,4.5-4.5c2.5,0,4.5,2,4.5,4.5C284,129.6,282,131.6,279.5,131.6z"/>
<path class="st4" d="M4.5,136.8c-0.2-0.2-0.5-0.2-0.7,0c-0.2,0.2-0.2,0.5,0,0.7l1.5,1.5l-1.5,1.5c-0.2,0.2-0.2,0.5,0,0.7
	c0.2,0.2,0.5,0.2,0.7,0l1.5-1.5l1.5,1.5c0.2,0.2,0.5,0.2,0.7,0c0.2-0.2,0.2-0.5,0-0.7L6.7,139l1.5-1.5c0.2-0.2,0.2-0.5,0-0.7
	c-0.2-0.2-0.5-0.2-0.7,0l-1.5,1.5L4.5,136.8z"/>
<path class="st3" d="M6.1,133.8c-2.8,0-5.1,2.3-5.1,5.1s2.3,5.1,5.1,5.1c2.8,0,5.1-2.3,5.1-5.1S8.9,133.8,6.1,133.8z M0,139
	c0-3.4,2.7-6.1,6.1-6.1c3.4,0,6.1,2.7,6.1,6.1c0,1.5-0.6,2.9-1.5,4l2.6,2.6c0.2,0.2,0.2,0.5,0,0.7c-0.2,0.2-0.5,0.2-0.7,0l-2.6-2.6
	c-1.1,0.9-2.4,1.5-4,1.5C2.7,145,0,142.3,0,139z"/>
<path class="st1" d="M67.9,14.9c-0.1-0.1-0.3-0.1-0.4,0c-0.1,0.1-0.1,0.3,0,0.4l1,1l-1,1c-0.1,0.1-0.1,0.3,0,0.4
	c0.1,0.1,0.3,0.1,0.4,0l1-1l1,1c0.1,0.1,0.3,0.1,0.4,0c0.1-0.1,0.1-0.3,0-0.4l-1-1l1-1c0.1-0.1,0.1-0.3,0-0.4
	c-0.1-0.1-0.3-0.1-0.4,0l-1,1L67.9,14.9z"/>
<path class="st2" d="M69,12.9c-1.9,0-3.4,1.5-3.4,3.4s1.5,3.4,3.4,3.4c1.9,0,3.4-1.5,3.4-3.4S70.9,12.9,69,12.9z M64.9,16.3
	c0-2.2,1.8-4.1,4.1-4.1c2.2,0,4.1,1.8,4.1,4.1c0,1-0.4,1.9-1,2.6l1.7,1.7c0.1,0.1,0.1,0.3,0,0.4c-0.1,0.1-0.3,0.1-0.4,0l-1.7-1.7
	c-0.7,0.6-1.6,1-2.6,1C66.7,20.4,64.9,18.6,64.9,16.3z"/>
</svg>
