<?xml version="1.0" encoding="utf-8"?>
<!-- Generator: Adobe Illustrator 28.0.0, SVG Export Plug-In . SVG Version: 6.00 Build 0)  -->
<svg version="1.1" id="Layer_1" xmlns="http://www.w3.org/2000/svg" xmlns:xlink="http://www.w3.org/1999/xlink" x="0px" y="0px"
	 viewBox="0 0 32 32" style="enable-background:new 0 0 32 32;" xml:space="preserve">
<style type="text/css">
	.st0{fill:#166A45;}
	.st1{fill-rule:evenodd;clip-rule:evenodd;fill:#166A45;}
</style>
<path class="st0" d="M14.3,12.9L14.3,12.9l6.8,6.8c0.4,0.4,0.4,1.1,0,1.5c-0.4,0.4-1.1,0.4-1.5,0l-6.8-6.8l0,0.1
	c0,0.5,0.1,1,0.2,1.4l0,0.1c0.1,0.5,0.1,0.9,0.1,1.3c0,0.6-0.5,1.1-1.1,1.1c-0.6,0-1.1-0.5-1.1-1.1c0-0.2,0-0.5-0.1-1l0-0.1
	c-0.1-0.5-0.1-1-0.2-1.5c0-0.6-0.1-1.2,0-1.7c0-0.3,0.1-0.6,0.1-0.8c0.1-0.3,0.2-0.6,0.5-0.8c0.3-0.3,0.6-0.4,0.8-0.5
	c0.3-0.1,0.6-0.1,0.8-0.1c0.5,0,1.1,0,1.7,0c0.5,0,1.1,0.1,1.5,0.2l0.1,0c0.5,0.1,0.9,0.1,1,0.1c0.6,0,1.1,0.5,1.1,1.1
	c0,0.6-0.5,1.1-1.1,1.1c-0.3,0-0.8-0.1-1.3-0.1l-0.1,0C15.3,13,14.8,12.9,14.3,12.9z"/>
<path class="st1" d="M4.9,5c0.8-0.8,1.8-1.2,3.6-1.5c1.8-0.2,4.2-0.2,7.4-0.2c3.3,0,5.6,0,7.4,0.2C25.1,3.8,26.2,4.3,27,5
	s1.2,1.8,1.5,3.6c0.2,1.8,0.2,4.2,0.2,7.4c0,3.3,0,5.6-0.2,7.4c-0.2,1.8-0.7,2.8-1.5,3.6s-1.8,1.2-3.6,1.5c-1.8,0.2-4.2,0.2-7.4,0.2
	c-3.3,0-5.6,0-7.4-0.2c-1.8-0.2-2.8-0.7-3.6-1.5s-1.2-1.8-1.5-3.6c-0.2-1.8-0.2-4.2-0.2-7.4c0-3.3,0-5.6,0.2-7.4
	C3.7,6.9,4.1,5.8,4.9,5z M16,1.2h-0.2c-3.2,0-5.7,0-7.6,0.3c-2,0.3-3.6,0.8-4.8,2.1C2.1,4.8,1.5,6.3,1.3,8.3C1,10.3,1,12.8,1,16v0.2
	c0,3.2,0,5.7,0.3,7.6c0.3,2,0.8,3.6,2.1,4.8c1.2,1.2,2.8,1.8,4.8,2.1c2,0.3,4.5,0.3,7.6,0.3H16c3.2,0,5.7,0,7.6-0.3
	c2-0.3,3.6-0.8,4.8-2.1c1.2-1.2,1.8-2.8,2.1-4.8c0.3-2,0.3-4.5,0.3-7.6V16c0-3.2,0-5.7-0.3-7.6c-0.3-2-0.8-3.6-2.1-4.8
	c-1.2-1.2-2.8-1.8-4.8-2.1C21.7,1.2,19.2,1.2,16,1.2z"/>
</svg>
