<?xml version="1.0" encoding="utf-8"?>
<!-- Generator: Adobe Illustrator 28.0.0, SVG Export Plug-In . SVG Version: 6.00 Build 0)  -->
<svg version="1.1" id="svg-367035751_820" xmlns="http://www.w3.org/2000/svg" xmlns:xlink="http://www.w3.org/1999/xlink" x="0px"
	 y="0px" viewBox="0 0 24 24" style="enable-background:new 0 0 24 24;" xml:space="preserve">
<style type="text/css">
	.st0{fill:none;stroke:#000000;stroke-width:2;stroke-linejoin:round;}
	.st1{fill:none;stroke:#000000;stroke-width:2;stroke-linecap:round;stroke-linejoin:round;}
	.st2{fill:none;stroke:#000000;stroke-width:2;stroke-linecap:round;}
</style>
<path class="st0" d="M16,10l2.1,0.6c1.4,0.4,2.1,0.6,2.5,1.1C21,12.3,21,13,21,14.5V22"/>
<path class="st1" d="M8,9h3 M8,13h3"/>
<path class="st0" d="M12,22v-3c0-0.9,0-1.4-0.3-1.7C11.4,17,10.9,17,10,17H9c-0.9,0-1.4,0-1.7,0.3C7,17.6,7,18.1,7,19v3"/>
<path class="st2" d="M2,22h20"/>
<path class="st1" d="M3,22V6.7C3,4.2,3,3,3.8,2.3s2-0.3,4.3,0.4l5,1.5c1.4,0.4,2.1,0.6,2.5,1.2C16,5.9,16,6.7,16,8.2V22"/>
</svg>
