<svg viewBox="0 0 24 24" id="svg10722810187"><path d="M 16.613 16.085 C 13.98 17.568 12.477 20.64 12 21.5 L 12 8 C 12.415 7.254 13.602 5.116 15.632 3.664 C 16.487 3.052 16.914 2.746 17.457 3.024 C 18 3.304 18 3.92 18 5.151 L 18 13.991 C 18 14.657 18 14.989 17.863 15.223 C 17.727 15.457 17.355 15.666 16.613 16.085 Z" fill="transparent" stroke-width="1.5" stroke="var(--token-67decdc6-b6ff-46da-86e0-5c4ede436d4c, rgb(22, 106, 69)) /* {&quot;name&quot;:&quot;PRIMARY&quot;} */" stroke-linecap="round" stroke-linejoin="round" stroke-dasharray=""></path><path d="M 12 7.806 C 11.313 7.084 9.322 5.37 5.98 4.77 C 4.288 4.465 3.442 4.313 2.72 4.896 C 2 5.48 2 6.426 2 8.321 L 2 15.13 C 2 16.862 2 17.728 2.463 18.269 C 2.925 18.809 3.943 18.993 5.981 19.359 C 7.796 19.685 9.213 20.206 10.239 20.729 C 11.249 21.243 11.753 21.5 12 21.5 C 12.247 21.5 12.752 21.243 13.76 20.729 C 14.787 20.206 16.204 19.685 18.02 19.359 C 20.056 18.993 21.075 18.809 21.537 18.269 C 22 17.728 22 16.862 22 15.129 L 22 8.322 C 22 6.428 22 5.481 21.28 4.897 C 20.557 4.313 19 4.77 18 5.5" fill="transparent" stroke-width="1.5" stroke="var(--token-67decdc6-b6ff-46da-86e0-5c4ede436d4c, rgb(22, 106, 69)) /* {&quot;name&quot;:&quot;PRIMARY&quot;} */" stroke-linecap="round" stroke-linejoin="round" stroke-dasharray=""></path></svg>