<svg xmlns="http://www.w3.org/2000/svg" viewBox="0 0 256 256" focusable="false" color="var(--token-db1c7457-9e71-4ea2-8dd6-f4b3d4d6cf25, rgb(34, 34, 34))" style="user-select: none; width: 100%; height: 100%; display: inline-block; fill: var(--token-db1c7457-9e71-4ea2-8dd6-f4b3d4d6cf25, rgb(34, 34, 34)); color: var(--token-db1c7457-9e71-4ea2-8dd6-f4b3d4d6cf25, rgb(34, 34, 34)); flex-shrink: 0;"><g color="var(--token-db1c7457-9e71-4ea2-8dd6-f4b3d4d6cf25, rgb(34, 34, 34))" weight="regular"><path d="M216,48H40a8,8,0,0,0,0,16h8V208a16,16,0,0,0,16,16H192a16,16,0,0,0,16-16V64h8a8,8,0,0,0,0-16ZM192,208H64V64H192ZM80,24a8,8,0,0,1,8-8h80a8,8,0,0,1,0,16H88A8,8,0,0,1,80,24Z"></path></g></svg>