<svg width="25" height="25" viewBox="0 0 25 25" fill="none" xmlns="http://www.w3.org/2000/svg">
<path d="M15.9207 18.6794C15.9904 18.7491 16.0457 18.8318 16.0835 18.9229C16.1212 19.0139 16.1407 19.1115 16.1407 19.2101C16.1407 19.3086 16.1212 19.4062 16.0835 19.4973C16.0457 19.5883 15.9904 19.671 15.9207 19.7407L12.9207 22.7407C12.851 22.8104 12.7683 22.8657 12.6773 22.9035C12.5862 22.9412 12.4886 22.9607 12.3901 22.9607C12.2915 22.9607 12.1939 22.9412 12.1029 22.9035C12.0118 22.8657 11.9291 22.8104 11.8594 22.7407L8.85944 19.7407C8.71871 19.6 8.63965 19.4091 8.63965 19.2101C8.63965 19.011 8.71871 18.8202 8.85944 18.6794C9.00017 18.5387 9.19104 18.4596 9.39007 18.4596C9.58909 18.4596 9.77996 18.5387 9.92069 18.6794L11.6401 20.3997V4.52038L9.92069 6.24069C9.77996 6.38142 9.58909 6.46048 9.39007 6.46048C9.19104 6.46048 9.00017 6.38142 8.85944 6.24069C8.71871 6.09996 8.63965 5.90909 8.63965 5.71006C8.63965 5.51104 8.71871 5.32017 8.85944 5.17944L11.8594 2.17944C11.9291 2.10971 12.0118 2.05439 12.1029 2.01664C12.1939 1.9789 12.2915 1.95947 12.3901 1.95947C12.4886 1.95947 12.5862 1.9789 12.6773 2.01664C12.7683 2.05439 12.851 2.10971 12.9207 2.17944L15.9207 5.17944C16.0614 5.32017 16.1405 5.51104 16.1405 5.71006C16.1405 5.90909 16.0614 6.09996 15.9207 6.24069C15.78 6.38142 15.5891 6.46048 15.3901 6.46048C15.191 6.46048 15.0002 6.38142 14.8594 6.24069L13.1401 4.52038V20.3997L14.8594 18.6794C14.9291 18.6097 15.0118 18.5544 15.1029 18.5166C15.1939 18.4789 15.2915 18.4595 15.3901 18.4595C15.4886 18.4595 15.5862 18.4789 15.6773 18.5166C15.7683 18.5544 15.851 18.6097 15.9207 18.6794Z" fill="#222222"/>
</svg>
