<svg width="23" height="23" viewBox="0 0 23 23" fill="none" xmlns="http://www.w3.org/2000/svg">
<path d="M18.6644 4.5833H3.54585C3.36359 4.5833 3.1888 4.6557 3.05992 4.78458C2.93104 4.91345 2.85864 5.08825 2.85864 5.2705C2.85864 5.45276 2.93104 5.62756 3.05992 5.75643C3.1888 5.88531 3.36359 5.95771 3.54585 5.95771H4.23306V18.3274C4.23306 18.6919 4.37786 19.0415 4.63561 19.2993C4.89336 19.557 5.24295 19.7018 5.60747 19.7018H16.6028C16.9673 19.7018 17.3169 19.557 17.5746 19.2993C17.8324 19.0415 17.9772 18.6919 17.9772 18.3274V5.95771H18.6644C18.8466 5.95771 19.0214 5.88531 19.1503 5.75643C19.2792 5.62756 19.3516 5.45276 19.3516 5.2705C19.3516 5.08825 19.2792 4.91345 19.1503 4.78458C19.0214 4.6557 18.8466 4.5833 18.6644 4.5833ZM16.6028 18.3274H5.60747V5.95771H16.6028V18.3274ZM6.98188 2.52168C6.98188 2.33942 7.05428 2.16463 7.18316 2.03575C7.31203 1.90687 7.48683 1.83447 7.66909 1.83447H14.5411C14.7234 1.83447 14.8982 1.90687 15.0271 2.03575C15.156 2.16463 15.2284 2.33942 15.2284 2.52168C15.2284 2.70394 15.156 2.87873 15.0271 3.00761C14.8982 3.13648 14.7234 3.20889 14.5411 3.20889H7.66909C7.48683 3.20889 7.31203 3.13648 7.18316 3.00761C7.05428 2.87873 6.98188 2.70394 6.98188 2.52168Z" fill="#222222"/>
</svg>
