<svg xmlns="http://www.w3.org/2000/svg" viewBox="0 0 256 256" focusable="false" color="var(--token-67decdc6-b6ff-46da-86e0-5c4ede436d4c, rgb(38, 66, 107))" style="user-select: none; width: 100%; height: 100%; display: inline-block; fill: var(--token-67decdc6-b6ff-46da-86e0-5c4ede436d4c, rgb(38, 66, 107)); color: var(--token-67decdc6-b6ff-46da-86e0-5c4ede436d4c, rgb(38, 66, 107)); flex-shrink: 0;"><g color="var(--token-67decdc6-b6ff-46da-86e0-5c4ede436d4c, rgb(38, 66, 107))" weight="regular"><path d="M56,96v64a8,8,0,0,1-16,0V96a8,8,0,0,1,16,0ZM88,24a8,8,0,0,0-8,8V224a8,8,0,0,0,16,0V32A8,8,0,0,0,88,24Zm40,32a8,8,0,0,0-8,8V192a8,8,0,0,0,16,0V64A8,8,0,0,0,128,56Zm40,32a8,8,0,0,0-8,8v64a8,8,0,0,0,16,0V96A8,8,0,0,0,168,88Zm40-16a8,8,0,0,0-8,8v96a8,8,0,0,0,16,0V80A8,8,0,0,0,208,72Z"></path></g></svg>