<svg xmlns="http://www.w3.org/2000/svg" viewBox="0 0 256 256" focusable="false" color="var(--token-67decdc6-b6ff-46da-86e0-5c4ede436d4c, rgb(38, 66, 107))" style="user-select: none; width: 100%; height: 100%; display: inline-block; fill: var(--token-67decdc6-b6ff-46da-86e0-5c4ede436d4c, rgb(38, 66, 107)); color: var(--token-67decdc6-b6ff-46da-86e0-5c4ede436d4c, rgb(38, 66, 107)); flex-shrink: 0;"><g color="var(--token-67decdc6-b6ff-46da-86e0-5c4ede436d4c, rgb(38, 66, 107))" weight="regular"><path d="M120,64a8,8,0,0,1-8,8H40a8,8,0,0,1,0-16h72A8,8,0,0,1,120,64Zm-8,32H40a8,8,0,0,0,0,16h72a8,8,0,0,0,0-16Zm0,40H40a8,8,0,0,0,0,16h72a8,8,0,0,0,0-16Zm0,40H40a8,8,0,0,0,0,16h72a8,8,0,0,0,0-16ZM144,72h72a8,8,0,0,0,0-16H144a8,8,0,0,0,0,16Zm72,24H144a8,8,0,0,0,0,16h72a8,8,0,0,0,0-16Zm0,40H144a8,8,0,0,0,0,16h72a8,8,0,0,0,0-16Zm0,40H144a8,8,0,0,0,0,16h72a8,8,0,0,0,0-16Z"></path></g></svg>