<svg width="23" height="23" viewBox="0 0 23 23" fill="none" xmlns="http://www.w3.org/2000/svg">
<path d="M19.6168 6.76244L15.7779 2.9244C15.6502 2.79674 15.4987 2.69547 15.3319 2.62638C15.1652 2.55729 14.9864 2.52173 14.8059 2.52173C14.6254 2.52173 14.4466 2.55729 14.2799 2.62638C14.1131 2.69547 13.9616 2.79674 13.8339 2.9244L3.2415 13.5168C3.11332 13.644 3.0117 13.7954 2.94253 13.9621C2.87337 14.1289 2.83805 14.3078 2.83863 14.4884V18.3273C2.83863 18.6918 2.98343 19.0414 3.24119 19.2991C3.49894 19.5569 3.84853 19.7017 4.21304 19.7017H18.6444C18.8266 19.7017 19.0014 19.6293 19.1303 19.5004C19.2592 19.3715 19.3316 19.1967 19.3316 19.0145C19.3316 18.8322 19.2592 18.6574 19.1303 18.5285C19.0014 18.3997 18.8266 18.3273 18.6444 18.3273H9.99588L19.6168 8.70638C19.7444 8.57875 19.8457 8.42722 19.9148 8.26045C19.9839 8.09367 20.0194 7.91493 20.0194 7.73441C20.0194 7.55389 19.9839 7.37514 19.9148 7.20837C19.8457 7.0416 19.7444 6.89007 19.6168 6.76244ZM8.05195 18.3273H4.21304V14.4884L11.7723 6.92909L15.6112 10.768L8.05195 18.3273ZM16.5828 9.79646L12.7447 5.95755L14.8063 3.89593L18.6444 7.73484L16.5828 9.79646Z" fill="#222222"/>
</svg>
