<svg width="16" height="16" viewBox="0 0 16 16" fill="none" xmlns="http://www.w3.org/2000/svg">
<path d="M11.1848 15.9177C10.1093 15.7019 9.04822 15.34 7.7648 14.6037C5.18543 13.1242 2.87332 10.8112 1.39642 8.23531C0.660218 6.95186 0.298401 5.88985 0.082398 4.81538C-0.270385 3.06563 0.542298 1.39815 1.8194 0.356644C2.17221 0.0695345 2.5997 -0.05986 3.02631 0.0272982C3.4484 0.114701 3.78412 0.397171 3.992 0.772415L4.6571 1.96407C4.90192 2.40523 5.10712 2.77315 5.2421 3.09541C5.38522 3.43648 5.46982 3.77217 5.43112 4.144C5.3924 4.51485 5.2403 4.8271 5.02972 5.12935C4.83261 5.41646 4.5545 5.73701 4.22421 6.11592L2.56641 8.02022C3.88132 10.1748 5.8226 12.1179 7.97992 13.4338L9.88431 11.7758C10.2632 11.4458 10.5827 11.1674 10.8689 10.9704C11.1731 10.7597 11.4854 10.6076 11.8562 10.5681C12.2279 10.5302 12.5636 10.614 12.9047 10.758C13.226 10.892 13.595 11.0983 14.0351 11.343L15.2276 12.0083C15.602 12.217 15.8855 12.5517 15.9719 12.9729C16.0601 13.3996 15.9305 13.8278 15.6434 14.1806C14.7677 15.2543 13.4483 16.0004 12.0101 16.0004C11.7383 16.0004 11.4629 15.9736 11.1848 15.9177ZM11.9714 11.6787C11.8544 11.6904 11.7212 11.7382 11.5034 11.8884C11.2748 12.0459 11.003 12.2817 10.5944 12.6372L9.01941 14.0087C9.88702 14.4362 10.643 14.6694 11.4053 14.8242C12.6671 15.0791 13.9424 14.5002 14.7776 13.4751C14.8883 13.34 14.8892 13.2456 14.8793 13.1997C14.8685 13.1484 14.8262 13.062 14.684 12.9819L13.5176 12.333C13.0451 12.0693 12.7301 11.8938 12.4736 11.7868C12.2738 11.7041 12.1442 11.676 12.0389 11.676C12.0155 11.676 11.993 11.676 11.9714 11.6787ZM2.52411 1.22066C1.49902 2.05782 0.921204 3.33296 1.1759 4.59492C1.3298 5.35616 1.56381 6.11324 1.9913 6.98067L3.36292 5.40572C3.7175 4.99702 3.95331 4.7253 4.11173 4.49678C4.26111 4.27901 4.30792 4.14571 4.3205 4.02779C4.33402 3.90987 4.31512 3.76949 4.21341 3.52559C4.10541 3.26997 3.93082 2.95406 3.66711 2.48262L3.0173 1.31612C2.93811 1.17403 2.8508 1.13155 2.7995 1.1208C2.7887 1.1191 2.77612 1.11714 2.7608 1.11714C2.7095 1.11714 2.6294 1.13692 2.52411 1.22066Z" fill="#EAEAEA"/>
</svg>
