<svg width="117" height="62" viewBox="0 0 117 62" fill="none" xmlns="http://www.w3.org/2000/svg">
<mask id="mask0_153_643" style="mask-type:alpha" maskUnits="userSpaceOnUse" x="0" y="0" width="117" height="62">
<rect width="117" height="62" fill="#D9D9D9"/>
</mask>
<g mask="url(#mask0_153_643)">
<path d="M91.898 42.124L96.0224 44.567L95.9276 54.5764C95.9276 57.6123 94.3157 60.4109 91.7083 62.0001L91.898 42.124Z" fill="#E5E7EB"/>
<path d="M88.8165 34.0835L84.6921 36.5264L84.8107 49.3819C84.8107 51.398 85.8774 53.2242 87.5838 54.2915L89.03 55.1693L88.8402 34.0835H88.8165Z" fill="#E5E7EB"/>
<path d="M91.898 33.6565V38.4715L104.082 45.5158C105.172 46.1322 106.475 46.156 107.59 45.5633L110.15 44.1874L91.898 33.6565Z" fill="#E5E7EB"/>
<path d="M93.1544 31L97.3026 33.4192L108.751 26.873C110.316 25.9718 111.311 24.3351 111.382 22.5327L111.453 20.5166L93.1544 30.9763V31Z" fill="#E5E7EB"/>
<path d="M92.1115 28.3197L96.2833 25.9242V12.7131C96.2833 10.934 95.4064 9.25024 93.889 8.30122L92.1589 7.21045V28.296H92.1115V28.3197Z" fill="#E5E7EB"/>
<path d="M88.864 28.8178V24.0028L77.6523 17.3857C76.0404 16.4367 74.0256 16.3892 72.3666 17.2433L70.7073 18.1208L88.864 28.8178Z" fill="#E5E7EB"/>
<path d="M87.3469 31.3081L83.1988 28.8889L71.7265 35.3877C70.162 36.2652 69.1665 37.9018 69.0954 39.7046L69.0005 41.7207L87.3232 31.3081H87.3469Z" fill="#E5E7EB"/>
<path d="M81.4449 38.0918L81.8004 42.8831L73.457 47.8401C70.9444 49.5477 67.6969 49.8562 64.9001 48.599L81.4449 38.0918Z" fill="#E5E7EB"/>
<path d="M80.1174 26.4699L76.0404 29.0315L66.1796 23.5051C64.5681 22.6514 63.5014 21.0385 63.3828 19.2357L63.2405 17.2671L80.1174 26.4936V26.4699Z" fill="#E5E7EB"/>
<path d="M88.4848 19.8761L84.3604 17.4332L84.5027 5.66876C84.5027 3.7239 85.5456 1.92112 87.2046 0.924961L88.722 0L88.5085 19.8998L88.4848 19.8761Z" fill="#E5E7EB"/>
<path d="M100.407 35.1032L104.579 32.7078L113.824 38.0917C115.696 39.1828 116.881 41.1751 116.952 43.3573L117 44.7566L100.407 35.0795V35.1032Z" fill="#E5E7EB"/>
<path d="M99.6728 24.3589L99.7202 19.5439L110.055 14.2074C111.596 13.3299 113.468 13.3299 115.009 14.1599L116.834 15.1561L99.6728 24.3351V24.3589Z" fill="#E5E7EB"/>
<path d="M0.0237185 15.4883C0.0237185 15.3222 0.0948742 15.251 0.260904 15.251H2.48882C2.67857 15.251 2.79716 15.3222 2.89171 15.4883L9.62356 26.9204H9.71843V15.4883C9.71843 15.3222 9.78959 15.251 9.95529 15.251H12.0649C12.231 15.251 12.3021 15.3222 12.3021 15.4883V31.5693C12.3021 31.7354 12.231 31.8066 12.0649 31.8066H9.86074C9.67099 31.8066 9.5524 31.7354 9.45753 31.5693L2.67857 20.1609H2.5837V31.5693C2.5837 31.7354 2.51254 31.8066 2.34651 31.8066H0.237185C0.0711556 31.8066 0 31.7354 0 31.5693V15.4883H0.0237185Z" fill="#E5E7EB"/>
<path d="M15.9762 28.0115C15.9048 27.7508 15.8336 27.4897 15.7628 27.2524C15.7153 26.9916 15.6679 26.7072 15.6205 26.3749C15.5967 26.0429 15.5733 25.6398 15.5493 25.2126C15.5493 24.762 15.5259 24.2164 15.5259 23.5525C15.5259 22.8883 15.5259 22.3428 15.5493 21.8922C15.5493 21.4416 15.5967 21.0384 15.6205 20.7061C15.6442 20.3742 15.6919 20.0897 15.7628 19.8286C15.8102 19.5679 15.881 19.3306 15.9762 19.0698C16.4028 17.6939 17.1141 16.674 18.1093 16.0101C19.1048 15.3459 20.3138 14.9902 21.7359 14.9902C23.1581 14.9902 24.2251 15.2984 25.1732 15.9389C26.1447 16.5794 26.8562 17.4569 27.3303 18.5717C27.3774 18.7138 27.3303 18.8087 27.2117 18.8562L25.1491 19.8524C25.0068 19.9236 24.8886 19.8998 24.8411 19.7337C24.5565 19.1407 24.1773 18.6426 23.7033 18.2157C23.2292 17.7889 22.5654 17.5756 21.7359 17.5756C20.9061 17.5756 20.3138 17.7651 19.8157 18.1683C19.3417 18.548 18.9865 19.0935 18.7497 19.7812C18.7022 19.971 18.6548 20.1369 18.6074 20.3267C18.5599 20.5166 18.5359 20.7299 18.5125 21.0147C18.4885 21.2992 18.4651 21.6314 18.4651 22.0583V23.5763V25.0943C18.4651 25.4974 18.4885 25.8293 18.5125 26.1141C18.5359 26.3986 18.5599 26.636 18.6074 26.8255C18.6548 27.0154 18.7022 27.1815 18.7497 27.3473C18.9865 28.0353 19.3183 28.5571 19.8157 28.9602C20.2904 29.3396 20.9298 29.5532 21.7359 29.5532C22.542 29.5532 23.2058 29.3396 23.7033 28.9128C24.1773 28.4859 24.5565 27.9878 24.8411 27.3948C24.9123 27.2287 25.0068 27.1815 25.1491 27.2761L27.2117 28.2723C27.3303 28.3197 27.3774 28.4147 27.3303 28.5571C26.8562 29.6719 26.1447 30.5494 25.1732 31.1899C24.201 31.83 23.0632 32.1386 21.7359 32.1386C20.4087 32.1386 19.1289 31.8066 18.1093 31.1187C17.1141 30.4545 16.4028 29.4346 15.9762 28.059V28.0115Z" fill="#E5E7EB"/>
<path d="M29.9611 28.0828C29.8899 27.822 29.8188 27.561 29.7476 27.3002C29.7005 27.0392 29.6531 26.7309 29.6056 26.3987C29.5819 26.0667 29.5582 25.6636 29.5345 25.1892C29.5345 24.7149 29.5107 24.1693 29.5107 23.5289C29.5107 22.8884 29.5107 22.3191 29.5345 21.8685C29.5345 21.3941 29.5819 20.991 29.6056 20.659C29.6293 20.3268 29.6768 20.0186 29.7476 19.7575C29.795 19.4967 29.8662 19.2357 29.9611 18.9749C30.3877 17.6468 31.0989 16.6507 32.1182 15.9864C33.1374 15.3222 34.3935 14.9666 35.8631 14.9666C37.3327 14.9666 37.3564 15.0615 37.9727 15.251C38.6128 15.4409 39.158 15.7016 39.6558 16.0339C40.1535 16.3421 40.5564 16.7215 40.8648 17.1722C41.1965 17.5994 41.4334 18.05 41.6231 18.5006C41.6943 18.643 41.6468 18.7613 41.5282 18.8325L39.4898 19.7338C39.3478 19.7812 39.2292 19.7338 39.1817 19.6154C38.8026 18.9512 38.3519 18.4531 37.8541 18.0974C37.3327 17.7414 36.6692 17.5756 35.8631 17.5756C35.0573 17.5756 34.3461 17.7652 33.8483 18.1449C33.3505 18.5243 32.9714 19.0461 32.7582 19.7338C32.7108 19.8762 32.6634 20.0423 32.6159 20.2556C32.5685 20.4454 32.5448 20.6828 32.521 20.991C32.4973 21.2755 32.4736 21.6315 32.4736 22.0584V23.5526V25.0468C32.4736 25.45 32.4973 25.8057 32.521 26.1142C32.5448 26.3987 32.5685 26.6597 32.6159 26.8493C32.6634 27.0392 32.7108 27.2053 32.7582 27.3711C32.9951 28.0591 33.3505 28.5809 33.8483 28.9603C34.3461 29.34 35.0336 29.5296 35.8631 29.5296C36.6929 29.5296 37.2381 29.3634 37.807 29.0077C38.3756 28.6521 38.7788 28.154 38.992 27.466C39.0631 27.2053 39.1343 26.8968 39.1817 26.5648C39.2292 26.2091 39.2529 25.8057 39.2529 25.3313C39.2529 24.857 39.2055 25.1892 39.1106 25.1892H36.3846C36.2189 25.1892 36.1477 25.118 36.1477 24.9519V23.007C36.1477 22.8409 36.2189 22.7697 36.3846 22.7697H41.8603C42.026 22.7697 42.0972 22.8409 42.0972 23.007V24.4538C42.0972 25.1418 42.0734 25.8057 42.0023 26.4699C41.9311 27.1341 41.8366 27.6559 41.718 28.0828C41.3151 29.3872 40.6039 30.3833 39.5609 31.095C38.5417 31.8067 37.3093 32.1624 35.8631 32.1624C34.4172 32.1624 33.1374 31.8304 32.1182 31.1425C31.0989 30.4783 30.364 29.4821 29.9611 28.154V28.0828Z" fill="#E5E7EB"/>
<path d="M54.6836 31.8067C54.4942 31.8067 54.3756 31.7355 54.3282 31.5694L51.1518 25.118H48.3075C48.2127 25.118 48.1652 25.1655 48.1652 25.2604V31.5694C48.1652 31.7355 48.0941 31.8067 47.9284 31.8067H45.5341C45.3684 31.8067 45.2972 31.7355 45.2972 31.5694V15.4646C45.2972 15.2985 45.3684 15.2273 45.5341 15.2273H51.9342C52.6926 15.2273 53.4038 15.346 54.0439 15.5833C54.6836 15.8203 55.2288 16.176 55.7029 16.6032C56.1769 17.0301 56.5327 17.5519 56.817 18.1686C57.0779 18.7851 57.2199 19.4493 57.2199 20.1847C57.2199 21.2755 56.9356 22.2245 56.3667 23.007C55.7977 23.8133 55.0394 24.3826 54.0676 24.7386L57.5519 31.4982C57.5994 31.5694 57.5994 31.6643 57.5519 31.7118C57.5045 31.783 57.4571 31.8067 57.3622 31.8067H54.6599H54.6836ZM51.8156 22.509C52.5743 22.509 53.1903 22.2954 53.6644 21.8685C54.1384 21.4416 54.3519 20.8723 54.3519 20.161C54.3519 19.4493 54.1147 18.8563 53.6644 18.4294C53.1903 18.0025 52.5977 17.7889 51.8156 17.7889H48.2838C48.1889 17.7889 48.1415 17.8364 48.1415 17.9313V22.3191C48.1415 22.414 48.1889 22.4615 48.2838 22.4615H51.8156V22.509Z" fill="#E5E7EB"/>
<path d="M2.77344 41.6733C2.51286 41.6733 2.29939 41.6496 2.10964 41.5784C1.92022 41.5072 1.75419 41.3885 1.61188 41.2464C1.56444 41.3176 1.517 41.3651 1.46989 41.3885C1.42245 41.4122 1.3513 41.4597 1.30386 41.4834L1.16155 41.6258C1.11411 41.697 1.11411 41.7682 1.11411 41.8866V43.1438H0.260895V41.7445C0.260895 41.5784 0.260895 41.4597 0.33205 41.341C0.379487 41.2464 0.426925 41.1515 0.497755 41.0803C0.568911 41.0091 0.640067 40.9616 0.711222 40.9141C0.782378 40.8667 0.853533 40.8195 0.924689 40.7721C0.99552 40.7246 1.04296 40.6771 1.11411 40.6059C1.16155 40.5585 1.20899 40.4635 1.20899 40.3686V40.2028V40.0367C1.20899 39.7284 1.25642 39.4674 1.32758 39.2541C1.39874 39.0405 1.517 38.8744 1.65931 38.7323C1.80163 38.5899 1.96766 38.4949 2.15708 38.4475C2.34683 38.3763 2.55997 38.3525 2.77344 38.3525C2.9869 38.3525 3.20004 38.3763 3.38979 38.4475C3.57922 38.5187 3.74525 38.6136 3.88756 38.7323C4.02954 38.8744 4.14814 39.0405 4.21929 39.2541C4.29045 39.4674 4.33789 39.7284 4.33789 40.0367V40.1791V40.2977C4.33789 40.511 4.40904 40.6534 4.50392 40.7483C4.59846 40.8429 4.69334 40.8904 4.81193 40.8904H5.0254C5.11995 40.8904 5.21482 40.9141 5.26226 40.9616C5.3097 41.0091 5.33341 41.104 5.33341 41.2464C5.33341 41.3885 5.3097 41.4834 5.26226 41.5546C5.21482 41.6021 5.14367 41.6258 5.0254 41.6258H4.76449C4.66962 41.6258 4.57475 41.6258 4.4802 41.5784C4.38532 41.5546 4.29045 41.5072 4.21929 41.4597C4.12442 41.4122 4.05326 41.341 3.98243 41.2227C3.84012 41.3885 3.67409 41.5072 3.46095 41.5784C3.24748 41.6496 3.0103 41.6733 2.77344 41.6733ZM2.77344 39.1117C2.53625 39.1117 2.34683 39.1829 2.22823 39.349C2.10964 39.5148 2.03849 39.7284 2.03849 40.0367C2.03849 40.3452 2.10964 40.5822 2.22823 40.7246C2.34683 40.867 2.53625 40.9379 2.77344 40.9379C3.01062 40.9379 3.20004 40.867 3.31864 40.7246C3.43723 40.5822 3.48467 40.3452 3.48467 40.0367C3.48467 39.4199 3.24748 39.1354 2.77344 39.1354V39.1117Z" fill="#E5E7EB"/>
<path d="M6.68441 38.7798C6.92127 38.6611 7.20589 38.5662 7.49019 38.4715C7.77481 38.4003 8.08283 38.3529 8.39085 38.3529C8.69919 38.3529 9.0072 38.4003 9.24439 38.4715C9.48125 38.5662 9.671 38.6848 9.81298 38.8272C9.9553 38.9934 10.0739 39.1829 10.145 39.3965C10.2162 39.6098 10.2399 39.8709 10.2399 40.1316V40.274V40.3927C10.2399 40.5347 10.3111 40.6534 10.4056 40.7484C10.5242 40.8196 10.6665 40.867 10.856 40.867H10.9745C11.0694 40.867 11.1643 40.8908 11.2117 40.962C11.2592 41.0094 11.2829 41.104 11.2829 41.2464C11.2829 41.3888 11.2592 41.4838 11.2117 41.5546C11.1643 41.6021 11.0931 41.6496 10.9745 41.6496C10.7614 41.6496 10.5717 41.6258 10.4056 41.5546C10.2399 41.4838 10.1213 41.3651 10.0502 41.1752C10.0027 41.2939 9.93158 41.3651 9.8367 41.4363C9.76587 41.5075 9.671 41.5546 9.55241 41.5784C9.43381 41.6021 9.31522 41.6258 9.17323 41.6496H8.69919H6.66069C6.49466 41.6496 6.37607 41.6021 6.32863 41.5312C6.23408 41.6021 6.13921 41.6258 6.02062 41.6496H5.61773H5.02509C4.93021 41.6496 4.83534 41.6258 4.7879 41.5784C4.74047 41.5312 4.71707 41.4363 4.71707 41.2939C4.71707 41.1515 4.74047 41.0328 4.7879 40.9857C4.83534 40.9382 4.9065 40.9145 5.02509 40.9145H5.40426C5.49913 40.9145 5.57029 40.9145 5.61773 40.867C5.66516 40.8433 5.7126 40.7958 5.73632 40.7246C5.75971 40.6534 5.78343 40.5585 5.78343 40.4401V39.9895V36.5976C5.78343 36.5501 5.80715 36.5264 5.85459 36.5264H6.56582C6.61326 36.5264 6.63697 36.5501 6.63697 36.5976V38.8035L6.68441 38.7798ZM8.27258 39.1117C7.98796 39.1117 7.70366 39.1592 7.41904 39.2304C7.13474 39.3253 6.89755 39.3965 6.68441 39.5152V40.5347V40.7009V40.867H8.36713H8.88861C9.03092 40.867 9.1258 40.8433 9.19695 40.7958C9.26811 40.7484 9.31522 40.6772 9.33894 40.5585C9.36266 40.4401 9.38638 40.3215 9.38638 40.1316C9.38638 39.9421 9.38638 39.8234 9.33894 39.7047C9.29183 39.5861 9.24439 39.4677 9.17323 39.3965C9.07836 39.3016 8.98349 39.2541 8.84117 39.2066C8.69919 39.1592 8.53316 39.1354 8.31969 39.1354L8.27258 39.1117ZM8.03539 37.7361C7.98796 37.7361 7.96424 37.7124 7.96424 37.6649V37.0007C7.96424 36.9536 7.98796 36.9298 8.03539 36.9298H8.77034C8.81746 36.9298 8.84117 36.9536 8.84117 37.0007V37.6649C8.84117 37.7124 8.81746 37.7361 8.77034 37.7361H8.03539Z" fill="#E5E7EB"/>
<path d="M12.6101 40.4165C12.6101 40.5586 12.6576 40.6772 12.7762 40.7722C12.8948 40.8434 13.0371 40.8908 13.2502 40.8908H13.3688C13.4637 40.8908 13.5586 40.9146 13.606 40.9858C13.6531 41.0332 13.6768 41.1279 13.6768 41.2703C13.6768 41.4127 13.6531 41.5076 13.606 41.5785C13.5586 41.6259 13.4874 41.6734 13.3688 41.6734C13.1791 41.6734 12.9896 41.6497 12.8473 41.6022C12.705 41.5551 12.5867 41.4601 12.4919 41.294C12.4207 41.4364 12.3258 41.5313 12.1835 41.6022C12.0415 41.6497 11.8518 41.6971 11.6146 41.6971H11.0223C10.9274 41.6971 10.8326 41.6971 10.7851 41.6497C10.7377 41.6259 10.714 41.5551 10.714 41.4364C10.714 41.3177 10.7377 41.1991 10.7851 41.1041C10.8326 41.0095 10.9037 40.962 11.0223 40.962H11.3778C11.4726 40.962 11.5438 40.962 11.5909 40.9146C11.6383 40.8908 11.6858 40.8434 11.7095 40.7959C11.7095 40.7484 11.7569 40.6772 11.7569 40.5823V40.2504V38.6612C11.7569 38.6137 11.7806 38.59 11.8281 38.59H12.5393C12.5867 38.59 12.6101 38.6137 12.6101 38.6612V40.4877V40.4165ZM11.8281 37.7362C11.7806 37.7362 11.7569 37.7125 11.7569 37.665V37.0008C11.7569 36.9537 11.7806 36.9299 11.8281 36.9299H12.563C12.6101 36.9299 12.6339 36.9537 12.6339 37.0008V37.665C12.6339 37.7125 12.6101 37.7362 12.563 37.7362H11.8281Z" fill="#E5E7EB"/>
<path d="M13.3451 41.6259C13.2502 41.6259 13.1553 41.6022 13.1079 41.5547C13.0608 41.5072 13.0371 41.4123 13.0371 41.2702C13.0371 41.1278 13.0608 41.0329 13.1079 40.9617C13.1553 40.9142 13.2265 40.8667 13.3451 40.8667H13.7243C13.8429 40.8667 13.9377 40.8433 14.0089 40.7721C14.0563 40.7247 14.1038 40.606 14.1038 40.4636V36.5739C14.1038 36.5264 14.1272 36.5027 14.1746 36.5027H14.8858C14.9333 36.5027 14.957 36.5264 14.957 36.5739V40.6772C14.957 41.0091 14.8858 41.2465 14.7435 41.3886C14.6015 41.531 14.3881 41.6259 14.0563 41.6259H13.3451Z" fill="#E5E7EB"/>
<path d="M21.1199 42.3849C21.4279 42.3849 21.6414 42.3374 21.7359 42.2659C21.8545 42.1953 21.902 42.1004 21.902 41.9814C21.902 41.8631 21.8782 41.7915 21.8071 41.7441C21.7597 41.6735 21.6651 41.602 21.5228 41.5545C21.4042 41.4836 21.2382 41.4362 21.0487 41.3647C20.859 41.2938 20.6221 41.2223 20.3612 41.128C20.3138 41.128 20.2901 41.0802 20.3138 41.033L20.5273 40.4397C20.5273 40.3926 20.5747 40.3688 20.6221 40.3926C20.7878 40.4638 20.9302 40.5109 21.0962 40.5824C21.2382 40.6533 21.3805 40.7008 21.5228 40.7482C21.6651 40.7954 21.8071 40.8432 21.9494 40.8669C22.0917 40.8903 22.2337 40.9144 22.376 40.9144H23.1347C23.2292 40.9144 23.3241 40.9381 23.3715 40.9852C23.419 41.033 23.4427 41.128 23.4427 41.2697C23.4427 41.4121 23.419 41.5311 23.3715 41.5786C23.3241 41.6495 23.2529 41.6735 23.1347 41.6735H22.6132C22.6369 41.7207 22.6606 41.7681 22.7077 41.8631C22.7552 41.958 22.7552 42.0529 22.7552 42.1479C22.7552 42.2425 22.7315 42.4323 22.6606 42.551C22.6132 42.6693 22.5183 42.788 22.3997 42.883C22.2811 42.9779 22.1154 43.0488 21.9257 43.1203C21.7359 43.1912 21.4991 43.2152 21.2382 43.2152H19.508C18.8442 43.2152 18.3465 43.0728 18.0384 42.7643C17.7064 42.4557 17.5644 42.0529 17.5644 41.5311C17.5644 41.0093 17.5644 41.2463 17.6115 41.1042C17.6352 40.9618 17.6827 40.8194 17.7301 40.7008C17.7775 40.5587 17.825 40.4397 17.8961 40.3214C17.9436 40.2027 18.0147 40.1081 18.0859 40.0131C18.1096 39.9653 18.1567 39.9653 18.2041 40.0131L18.7968 40.3214C18.8442 40.3448 18.8442 40.3688 18.7968 40.4163C18.7019 40.5587 18.6308 40.7242 18.5599 40.9144C18.4888 41.1042 18.4413 41.2938 18.4413 41.4836C18.4413 41.6735 18.465 41.839 18.5362 41.958C18.6074 42.0763 18.7019 42.1953 18.7968 42.2659C18.9154 42.3374 19.034 42.3849 19.176 42.4323C19.3183 42.4557 19.4606 42.4798 19.6029 42.4798H21.0962L21.1199 42.3849ZM19.4131 44.4718C19.3657 44.4718 19.342 44.4484 19.342 44.4009V43.7367C19.342 43.6896 19.3657 43.6655 19.4131 43.6655H20.0532C20.1007 43.6655 20.1244 43.6896 20.1244 43.7367V44.4009C20.1244 44.4484 20.1007 44.4718 20.0532 44.4718H19.4131ZM20.4087 44.4718C20.3612 44.4718 20.3375 44.4484 20.3375 44.4009V43.7367C20.3375 43.6896 20.3612 43.6655 20.4087 43.6655H21.0487C21.0962 43.6655 21.1199 43.6896 21.1199 43.7367V44.4009C21.1199 44.4484 21.0962 44.4718 21.0487 44.4718H20.4087Z" fill="#E5E7EB"/>
<path d="M24.7937 40.4165C24.7937 40.5586 24.8411 40.6772 24.9597 40.7722C25.0783 40.8434 25.2206 40.8908 25.4338 40.8908H25.5523C25.6472 40.8908 25.7421 40.9146 25.7895 40.9858C25.8366 41.0332 25.8604 41.1279 25.8604 41.2703C25.8604 41.4127 25.8366 41.5076 25.7895 41.5785C25.7421 41.6259 25.6709 41.6734 25.5523 41.6734C25.3626 41.6734 25.1732 41.6497 25.0309 41.6022C24.8885 41.5551 24.7703 41.4601 24.6754 41.294C24.6042 41.4364 24.5094 41.5313 24.3671 41.6022C24.2251 41.6497 24.0353 41.6971 23.7981 41.6971H23.2058C23.111 41.6971 23.0161 41.6971 22.9686 41.6497C22.9212 41.6259 22.8975 41.5551 22.8975 41.4364C22.8975 41.3177 22.9212 41.1991 22.9686 41.1041C23.0161 41.0095 23.0872 40.962 23.2058 40.962H23.5613C23.6562 40.962 23.7273 40.962 23.7744 40.9146C23.8219 40.8908 23.8693 40.8434 23.893 40.7959C23.893 40.7484 23.9405 40.6772 23.9405 40.5823V40.2504V38.6612C23.9405 38.6137 23.9642 38.59 24.0116 38.59H24.7228C24.7703 38.59 24.7937 38.6137 24.7937 38.6612V40.4877V40.4165ZM24.0116 37.7362C23.9642 37.7362 23.9405 37.7125 23.9405 37.665V37.0008C23.9405 36.9537 23.9642 36.9299 24.0116 36.9299H24.7466C24.7937 36.9299 24.8174 36.9537 24.8174 37.0008V37.665C24.8174 37.7125 24.7937 37.7362 24.7466 37.7362H24.0116Z" fill="#E5E7EB"/>
<path d="M27.1639 38.7799C27.4011 38.6612 27.6854 38.5663 27.97 38.4713C28.2543 38.4001 28.5623 38.3527 28.8707 38.3527C29.1787 38.3527 29.487 38.4001 29.7239 38.4713C29.9611 38.5425 30.1505 38.6849 30.2928 38.8273C30.4351 38.9931 30.5534 39.183 30.6245 39.3963C30.6957 39.6099 30.7194 39.871 30.7194 40.1317C30.7194 40.3924 30.6957 40.701 30.6245 40.8905C30.5771 41.0804 30.4825 41.2228 30.364 41.3415C30.2454 41.4598 30.0793 41.5073 29.8899 41.5547C29.7002 41.5785 29.4633 41.6022 29.1787 41.6022H27.1639C26.9979 41.6022 26.8796 41.5547 26.8322 41.4835C26.761 41.531 26.6661 41.5785 26.5475 41.5785H26.1684H25.5283C25.4337 41.5785 25.3389 41.5547 25.2914 41.5073C25.244 41.4598 25.2203 41.3652 25.2203 41.2228C25.2203 41.0804 25.244 40.9617 25.2914 40.9146C25.3389 40.8671 25.41 40.8434 25.5283 40.8434H25.9315C26.0261 40.8434 26.0972 40.8434 26.1446 40.7959C26.1921 40.7722 26.2395 40.7247 26.2632 40.6535C26.287 40.5823 26.3107 40.4874 26.3107 40.369V39.8947V36.5502C26.3107 36.5027 26.3344 36.479 26.3818 36.479H27.0927C27.1402 36.479 27.1639 36.5027 27.1639 36.5502V38.7561V38.7799ZM28.7521 39.1118C28.4678 39.1118 28.1831 39.1593 27.8988 39.2305C27.6142 39.3254 27.3774 39.3963 27.1639 39.515V40.5348V40.701V40.8671H28.8469H29.3684C29.5107 40.8671 29.6053 40.8434 29.6764 40.7959C29.7476 40.7485 29.795 40.6772 29.8188 40.5586C29.8425 40.4399 29.8662 40.3216 29.8662 40.1317C29.8662 39.9418 29.8662 39.8235 29.8188 39.7048C29.795 39.5862 29.7239 39.4675 29.6527 39.3963C29.5578 39.3017 29.4633 39.2542 29.321 39.2067C29.1787 39.1593 29.0126 39.1355 28.7995 39.1355L28.7521 39.1118Z" fill="#E5E7EB"/>
<path d="M32.213 43.1439C32.1656 43.1439 32.1419 43.1202 32.1419 43.0727V42.4797C32.1419 42.4322 32.1656 42.4088 32.213 42.4088H33.1137C33.2323 42.4088 33.3271 42.4088 33.4217 42.3851C33.5166 42.3614 33.5877 42.3139 33.6352 42.2664C33.6826 42.2189 33.73 42.124 33.7538 42.0291C33.7775 41.9342 33.8012 41.7921 33.8012 41.6497H33.0188C32.7819 41.6497 32.5685 41.6259 32.3787 41.5785C32.1893 41.531 32.047 41.4364 31.9047 41.3177C31.7864 41.1991 31.6678 41.0329 31.6204 40.8434C31.5492 40.6535 31.5255 40.4165 31.5255 40.108C31.5255 39.7997 31.573 39.5387 31.6441 39.3254C31.739 39.1118 31.8573 38.9219 31.9996 38.7799C32.1419 38.6375 32.3079 38.5425 32.4973 38.4713C32.6871 38.4004 32.8765 38.3767 33.09 38.3767C33.3034 38.3767 33.5403 38.4001 33.73 38.4713C33.9195 38.5425 34.0855 38.6375 34.2278 38.7561C34.3698 38.8748 34.4647 39.0643 34.5595 39.2779C34.6544 39.4912 34.6781 39.7523 34.6781 40.0605V40.9146H35.1996C35.2945 40.9146 35.389 40.9383 35.4365 41.0092C35.4839 41.0567 35.5076 41.1516 35.5076 41.294C35.5076 41.4364 35.4839 41.5547 35.4365 41.6022C35.389 41.6497 35.3182 41.6734 35.1996 41.6734H34.6781V41.8395C34.6781 42.3139 34.5595 42.6458 34.3227 42.8832C34.0855 43.0964 33.73 43.2151 33.2797 43.2151H32.2367L32.213 43.1439ZM33.09 39.1118C32.8528 39.1118 32.6871 39.2067 32.5448 39.3725C32.4262 39.5387 32.355 39.776 32.355 40.0605C32.355 40.3453 32.4262 40.5823 32.5448 40.701C32.6634 40.8196 32.8528 40.8671 33.1137 40.8671H33.8012V40.013C33.8012 39.7285 33.7538 39.4912 33.6352 39.3491C33.5166 39.2067 33.3505 39.1118 33.09 39.1118Z" fill="#E5E7EB"/>
<path d="M35.1759 41.6259C35.081 41.6259 34.9862 41.6022 34.9387 41.5547C34.8916 41.5072 34.8679 41.4123 34.8679 41.2702C34.8679 41.1278 34.8916 41.0329 34.9387 40.9617C34.9862 40.9142 35.0573 40.8667 35.1759 40.8667H35.5551C35.6737 40.8667 35.7685 40.8433 35.8397 40.7721C35.8871 40.7247 35.9346 40.606 35.9346 40.4636V36.5739C35.9346 36.5264 35.958 36.5027 36.0054 36.5027H36.7166C36.7641 36.5027 36.7878 36.5264 36.7878 36.5739V40.6772C36.7878 41.0091 36.7166 41.2465 36.5743 41.3886C36.4323 41.531 36.2189 41.6259 35.8871 41.6259H35.1759Z" fill="#E5E7EB"/>
<path d="M37.7833 36.5739C37.7833 36.5346 37.8152 36.5027 37.8545 36.5027H38.5653C38.6046 36.5027 38.6365 36.5346 38.6365 36.5739V41.5547C38.6365 41.594 38.6046 41.6259 38.5653 41.6259H37.8545C37.8152 41.6259 37.7833 41.594 37.7833 41.5547V36.5739Z" fill="#E5E7EB"/>
<path d="M41.7892 38.5662C41.7892 38.5188 41.8129 38.4954 41.8603 38.4954H42.5715C42.6187 38.4954 42.6424 38.5188 42.6424 38.5662V40.3928C42.6424 40.5348 42.6898 40.6535 42.8084 40.7484C42.927 40.8196 43.0693 40.8671 43.2824 40.8671H43.401C43.4959 40.8671 43.5908 40.8908 43.6379 40.962C43.6853 41.0095 43.7091 41.1041 43.7091 41.2465C43.7091 41.3889 43.6853 41.4839 43.6379 41.5551C43.5908 41.6022 43.5196 41.6497 43.401 41.6497C43.235 41.6497 43.0693 41.6497 42.9507 41.6022C42.8321 41.5785 42.7135 41.5076 42.6424 41.3889V41.5313C42.6424 41.7921 42.6424 42.0531 42.5715 42.2427C42.5241 42.4563 42.4529 42.6221 42.3581 42.7408C42.2632 42.8594 42.1209 42.9781 41.9552 43.0493C41.7892 43.1202 41.576 43.1439 41.3151 43.1439H41.0308C40.9834 43.1439 40.9597 43.1202 40.9597 43.073V42.48C40.9597 42.4326 40.9834 42.4088 41.0308 42.4088H41.1965C41.3388 42.4088 41.4574 42.3851 41.5523 42.3376C41.6231 42.2902 41.6943 42.2189 41.7417 42.124C41.7892 42.0294 41.8129 41.9107 41.8129 41.7683V41.294V38.59L41.7892 38.5662ZM41.8603 37.7362C41.8129 37.7362 41.7892 37.7125 41.7892 37.665V37.0008C41.7892 36.9537 41.8129 36.9299 41.8603 36.9299H42.5953C42.6424 36.9299 42.6661 36.9537 42.6661 37.0008V37.665C42.6661 37.7125 42.6424 37.7362 42.5953 37.7362H41.8603Z" fill="#E5E7EB"/>
<path d="M44.9889 38.4474C45.2495 38.4474 45.5104 38.4711 45.7238 38.4949C45.937 38.5186 46.1267 38.5898 46.2924 38.6847C46.4585 38.7794 46.577 38.9218 46.6482 39.1116C46.7431 39.3012 46.7665 39.5385 46.7665 39.8467V40.2973C46.7665 40.5584 46.7665 40.7479 46.6956 40.9141C46.6482 41.0802 46.577 41.1989 46.4822 41.3172C46.3873 41.4122 46.2687 41.4834 46.1267 41.5308C45.9844 41.5783 45.8184 41.602 45.6289 41.602H43.377C43.2821 41.602 43.1876 41.5783 43.1401 41.5071C43.0927 41.4596 43.069 41.341 43.069 41.1989C43.069 41.0565 43.0927 40.9615 43.1401 40.9141C43.1876 40.8666 43.2584 40.8429 43.377 40.8429H45.2732C45.4155 40.8429 45.5104 40.8429 45.6052 40.8191C45.6764 40.8191 45.7475 40.7717 45.7947 40.7245C45.8421 40.6771 45.8658 40.6296 45.8895 40.5347V40.2499V39.8467C45.8895 39.6097 45.8184 39.4436 45.7001 39.3486C45.5815 39.23 45.368 39.1828 45.1075 39.1828H43.8747C43.8273 39.1828 43.8036 39.1591 43.8036 39.1116V38.5898C43.8036 38.5661 43.8036 38.5186 43.851 38.4949C43.8985 38.4711 43.8985 38.4474 43.9222 38.3999L45.5815 36.4788C45.6052 36.4551 45.6527 36.4314 45.6764 36.4788L46.1742 36.882C46.2216 36.9057 46.2216 36.9532 46.1979 36.9769L44.9414 38.4237L44.9889 38.4474Z" fill="#E5E7EB"/>
<path d="M48.0703 38.5661C48.0703 38.5186 48.0941 38.4949 48.1415 38.4949H48.8524C48.8998 38.4949 48.9236 38.5186 48.9236 38.5661V40.3923C48.9236 40.5347 48.971 40.6533 49.0896 40.7483C49.2082 40.8195 49.3502 40.8666 49.5636 40.8666H49.6822C49.7771 40.8666 49.8717 40.8903 49.9191 40.9615C49.9665 41.009 49.9902 41.1039 49.9902 41.2463C49.9902 41.3888 49.9665 41.4834 49.9191 41.5546C49.8717 41.602 49.8008 41.6495 49.6822 41.6495C49.5162 41.6495 49.3502 41.6495 49.2319 41.602C49.1133 41.5783 48.9947 41.5071 48.9236 41.3884V41.5308C48.9236 41.7919 48.9236 42.0526 48.8524 42.2425C48.8053 42.4558 48.7341 42.6219 48.6393 42.7406C48.5444 42.8593 48.4021 42.9776 48.2364 43.0488C48.0703 43.12 47.8569 43.1437 47.5963 43.1437H47.3117C47.2646 43.1437 47.2408 43.12 47.2408 43.0725V42.4795C47.2408 42.4321 47.2646 42.4083 47.3117 42.4083H47.4777C47.62 42.4083 47.7386 42.3849 47.8332 42.3374C47.9043 42.29 47.9755 42.2188 48.0229 42.1238C48.0703 42.0289 48.0941 41.9102 48.0941 41.7682V41.2938V38.5898L48.0703 38.5661Z" fill="#E5E7EB"/>
<path d="M50.4646 39.9655C50.4646 39.681 50.512 39.4199 50.5832 39.2304C50.6544 39.0168 50.7726 38.8509 50.9149 38.7323C51.0572 38.6136 51.2233 38.5187 51.4127 38.4475C51.6025 38.4 51.8156 38.3525 52.0291 38.3525C52.2425 38.3525 52.4557 38.3763 52.6691 38.4475C52.8586 38.5187 53.0246 38.6136 53.1669 38.7323C53.3089 38.8509 53.4275 39.0405 53.4986 39.2541C53.5698 39.4674 53.6172 39.7284 53.6172 40.0367V40.1791V40.2977C53.6172 40.511 53.6647 40.6534 53.7595 40.7483C53.8541 40.8433 53.9727 40.8904 54.0913 40.8904H54.3047C54.3993 40.8904 54.4942 40.9141 54.5416 40.9853C54.589 41.0328 54.6128 41.1278 54.6128 41.2702C54.6128 41.4126 54.589 41.5072 54.5416 41.5784C54.4942 41.6258 54.423 41.6733 54.3047 41.6733H54.0438C53.949 41.6733 53.8541 41.6733 53.7595 41.6258C53.6647 41.6021 53.5698 41.5546 53.4986 41.5072C53.4038 41.4597 53.3326 41.3888 53.2618 41.2939C53.1195 41.4597 52.9534 41.5784 52.7403 41.6496C52.5268 41.7208 52.2896 41.7682 52.0291 41.7682C51.7682 41.7682 51.555 41.7445 51.3415 41.6733C51.1284 41.6021 50.9624 41.4834 50.8201 41.3414C50.7726 41.4122 50.7018 41.4834 50.6306 41.5309C50.5595 41.5784 50.4883 41.6258 50.4172 41.6496C50.346 41.6733 50.2511 41.697 50.1803 41.697H49.9431H49.6825C49.5877 41.697 49.4928 41.6733 49.4454 41.6021C49.3979 41.5546 49.3742 41.436 49.3742 41.3176C49.3742 41.199 49.3979 41.0803 49.4454 41.0091C49.4928 40.9379 49.564 40.9379 49.6825 40.9379H49.9906C50.1092 40.9379 50.2277 40.8904 50.3223 40.7958C50.4172 40.7009 50.4646 40.511 50.4646 40.2503V40.1316V40.0129V39.9655ZM52.0291 39.1117C51.7919 39.1117 51.6025 39.1829 51.4839 39.349C51.3653 39.5148 51.3178 39.7284 51.3178 40.0129C51.3178 40.2977 51.3653 40.5585 51.4839 40.7009C51.6025 40.8433 51.7919 40.9141 52.0291 40.9141C52.2662 40.9141 52.4557 40.8433 52.5743 40.7009C52.6928 40.5585 52.7403 40.3215 52.7403 40.0129C52.7403 39.3962 52.5031 39.1117 52.0291 39.1117Z" fill="#E5E7EB"/>
<path d="M54.2807 41.6259C54.1858 41.6259 54.0909 41.6022 54.0435 41.5547C53.9964 41.5072 53.9727 41.4123 53.9727 41.2702C53.9727 41.1278 53.9964 41.0329 54.0435 40.9617C54.0909 40.9142 54.1621 40.8667 54.2807 40.8667H54.6598C54.7784 40.8667 54.8733 40.8433 54.9445 40.7721C54.9919 40.7247 55.0393 40.606 55.0393 40.4636V36.5739C55.0393 36.5264 55.0627 36.5027 55.1102 36.5027H55.8214C55.8688 36.5027 55.8926 36.5264 55.8926 36.5739V40.6772C55.8926 41.0091 55.8214 41.2465 55.6791 41.3886C55.5371 41.531 55.3236 41.6259 54.9919 41.6259H54.2807Z" fill="#E5E7EB"/>
<path d="M56.8882 36.5739C56.8882 36.5346 56.9201 36.5027 56.9594 36.5027H57.6702C57.7095 36.5027 57.7414 36.5346 57.7414 36.5739V41.5547C57.7414 41.594 57.7095 41.6259 57.6702 41.6259H56.9594C56.9201 41.6259 56.8882 41.594 56.8882 41.5547V36.5739Z" fill="#E5E7EB"/>
<path d="M2.60742 46.9624V46.6305C2.60742 46.583 2.63114 46.5593 2.67857 46.5593H3.3898C3.43692 46.5593 3.46064 46.583 3.46064 46.6305V49.0734C3.46064 49.2158 3.48435 49.3345 3.55551 49.3816C3.60295 49.4291 3.69782 49.4765 3.84013 49.4765H4.12443C4.3379 49.4765 4.43245 49.5952 4.43245 49.8559C4.43245 50.117 4.40905 50.117 4.36162 50.1645C4.31418 50.212 4.24302 50.2357 4.12443 50.2357H3.50807C3.24749 50.2357 3.05774 50.1882 2.91543 50.117C2.77345 50.0458 2.67857 49.8797 2.63114 49.6664C2.51254 49.7613 2.39395 49.8325 2.25196 49.8797C2.10965 49.9272 1.94362 49.9509 1.77792 49.9509C1.61189 49.9509 1.39842 49.9272 1.209 49.8797C1.01925 49.8325 0.876938 49.7376 0.758671 49.6189C0.640078 49.5003 0.521485 49.3579 0.45033 49.1683C0.379174 48.9785 0.332062 48.7652 0.332062 48.5278C0.332062 48.2908 0.379174 47.9823 0.45033 47.7928C0.545204 47.6029 0.640078 47.4367 0.782389 47.3181C0.924376 47.1997 1.09041 47.1048 1.25644 47.0573C1.44586 47.0099 1.61189 46.9861 1.82536 46.9861H2.5837L2.60742 46.9624ZM1.13784 46.0612C1.09041 46.0612 1.06669 46.0374 1.06669 45.99V45.3258C1.06669 45.2786 1.09041 45.2549 1.13784 45.2549H1.77792C1.82536 45.2549 1.84907 45.2786 1.84907 45.3258V45.99C1.84907 46.0374 1.82536 46.0612 1.77792 46.0612H1.13784ZM1.87279 49.1683C2.10965 49.1683 2.2994 49.0971 2.41767 48.9547C2.53626 48.8126 2.5837 48.6228 2.5837 48.3617V47.7215H1.89619C1.68304 47.7215 1.4933 47.769 1.3747 47.8874C1.23272 48.006 1.18528 48.1959 1.18528 48.5041C1.18528 48.8126 1.25644 48.9073 1.3747 49.0259C1.4933 49.1446 1.65933 49.1921 1.87279 49.1921V49.1683ZM2.13337 46.0612C2.08593 46.0612 2.06222 46.0374 2.06222 45.99V45.3258C2.06222 45.2786 2.08593 45.2549 2.13337 45.2549H2.77345C2.82088 45.2549 2.8446 45.2786 2.8446 45.3258V45.99C2.8446 46.0374 2.82088 46.0612 2.77345 46.0612H2.13337Z" fill="#E5E7EB"/>
<path d="M4.1007 50.2357C4.00582 50.2357 3.93467 50.212 3.88723 50.1645C3.84012 50.117 3.84012 50.0221 3.84012 49.88C3.84012 49.7376 3.84012 49.619 3.88723 49.5715C3.93467 49.524 4.00582 49.4766 4.1007 49.4766H6.32894C6.42349 49.4766 6.51836 49.5003 6.5658 49.5715C6.61324 49.619 6.63696 49.7139 6.63696 49.8563C6.63696 49.9987 6.61324 50.117 6.5658 50.1645C6.51836 50.212 6.44721 50.2357 6.32894 50.2357H4.1007Z" fill="#E5E7EB"/>
<path d="M7.72736 49.8562C7.65621 49.9982 7.53761 50.0932 7.3953 50.1644C7.25332 50.2118 7.06357 50.2593 6.80266 50.2593H6.09176C5.99688 50.2593 5.90201 50.2356 5.85457 50.1881C5.80714 50.1406 5.78342 50.0457 5.78342 49.9036C5.78342 49.7612 5.80714 49.6426 5.85457 49.5951C5.90201 49.5476 5.97317 49.5002 6.09176 49.5002H6.58952C6.6844 49.5002 6.75555 49.5002 6.80266 49.4527C6.8501 49.429 6.89754 49.3818 6.92126 49.3343C6.92126 49.2869 6.96869 49.1919 6.96869 49.097V48.7651V47.1996C6.96869 47.1759 6.96869 47.1522 7.01613 47.1284H7.11101H7.7748C7.82191 47.1284 7.84563 47.1522 7.84563 47.1996V49.0258C7.84563 49.1682 7.89307 49.2869 8.01166 49.3818C8.13025 49.4527 8.27256 49.5002 8.48571 49.5002H8.6043C8.69917 49.5002 8.79405 49.5239 8.84116 49.5951C8.8886 49.6426 8.91231 49.7375 8.91231 49.8799C8.91231 50.022 8.8886 50.1169 8.84116 50.1881C8.79405 50.2356 8.72289 50.283 8.6043 50.283C8.41455 50.283 8.22513 50.2593 8.08282 50.2118C7.9405 50.1644 7.82191 50.0694 7.72736 49.9036V49.8562ZM6.54209 51.6823C6.49465 51.6823 6.47093 51.6586 6.47093 51.6111V50.9469C6.47093 50.8998 6.49465 50.8761 6.54209 50.8761H7.18216C7.2296 50.8761 7.25332 50.8998 7.25332 50.9469V51.6111C7.25332 51.6586 7.2296 51.6823 7.18216 51.6823H6.54209ZM7.53761 51.6823C7.49018 51.6823 7.46646 51.6586 7.46646 51.6111V50.9469C7.46646 50.8998 7.49018 50.8761 7.53761 50.8761H8.17769C8.22513 50.8761 8.24885 50.8998 8.24885 50.9469V51.6111C8.24885 51.6586 8.22513 51.6823 8.17769 51.6823H7.53761Z" fill="#E5E7EB"/>
<path d="M8.84148 50.2357C8.74661 50.2357 8.67545 50.212 8.62801 50.1645C8.5809 50.117 8.5809 50.0221 8.5809 49.88C8.5809 49.7376 8.5809 49.619 8.62801 49.5715C8.67545 49.524 8.74661 49.4766 8.84148 49.4766H9.76585C9.86073 49.4766 9.9556 49.5003 10.003 49.5715C10.0505 49.619 10.0742 49.7139 10.0742 49.8563C10.0742 49.9987 10.0505 50.117 10.003 50.1645C9.9556 50.212 9.88445 50.2357 9.76585 50.2357H8.84148Z" fill="#E5E7EB"/>
<path d="M11.8755 50.2832C11.6149 50.2832 11.4015 50.2594 11.188 50.1882C10.9749 50.117 10.8088 49.9984 10.6665 49.8563C10.6191 49.9275 10.5483 49.9984 10.4771 50.0458C10.406 50.0933 10.3348 50.1408 10.2636 50.1645C10.1925 50.1882 10.0979 50.212 10.0268 50.212H9.78959H9.52901C9.43414 50.212 9.33927 50.1882 9.29183 50.117C9.24439 50.0696 9.22067 49.9512 9.22067 49.8326C9.22067 49.7139 9.24439 49.5952 9.29183 49.524C9.33927 49.4532 9.41042 49.4532 9.52901 49.4532H9.83703C9.88447 49.4532 9.95562 49.4532 10.0031 49.4294C10.0505 49.4294 10.1213 49.3582 10.145 49.3107C10.1925 49.2633 10.2399 49.1921 10.2636 49.0971C10.2874 49.0022 10.3111 48.9076 10.3111 48.7652V48.6465V48.5279C10.3111 48.2434 10.3585 47.9823 10.4297 47.7928C10.5008 47.5792 10.6191 47.4134 10.7614 47.2947C10.9037 47.176 11.0697 47.0811 11.2592 47.0099C11.4489 46.9624 11.6621 46.9153 11.8755 46.9153C12.089 46.9153 12.3021 46.9387 12.5156 47.0099C12.705 47.0811 12.8711 47.176 13.0134 47.2947C13.1557 47.4368 13.2739 47.6029 13.3451 47.8165C13.4163 48.0298 13.4637 48.2909 13.4637 48.5991C13.4637 48.9076 13.4163 49.1446 13.3451 49.3582C13.2739 49.5715 13.1557 49.7376 13.0134 49.8563C12.8711 49.9984 12.705 50.0933 12.5156 50.1408C12.3259 50.212 12.1127 50.2357 11.8755 50.2357V50.2832ZM11.8755 47.7216C11.6383 47.7216 11.4489 47.7928 11.3303 47.9589C11.2117 48.1247 11.1643 48.3383 11.1643 48.6228C11.1643 48.9076 11.2117 49.1683 11.3303 49.3107C11.4489 49.4532 11.6383 49.524 11.8755 49.524C12.1127 49.524 12.3021 49.4532 12.4207 49.3107C12.5393 49.1683 12.5868 48.9313 12.5868 48.6228C12.5868 48.0061 12.3496 47.7216 11.8755 47.7216Z" fill="#E5E7EB"/>
<path d="M14.9807 51.7535C14.9333 51.7535 14.9095 51.7298 14.9095 51.6823V51.0893C14.9095 51.0419 14.9333 51.0184 14.9807 51.0184H15.8813C15.9999 51.0184 16.0948 51.0184 16.1894 50.9947C16.2842 50.971 16.3554 50.9235 16.4028 50.876C16.4503 50.8286 16.4977 50.7336 16.5214 50.6387C16.5451 50.5438 16.5689 50.4017 16.5689 50.2593H15.7865C15.5496 50.2593 15.3361 50.2356 15.1464 50.1881C14.957 50.1406 14.8147 50.046 14.6724 49.9273C14.5541 49.8087 14.4355 49.6425 14.3881 49.453C14.3169 49.2631 14.2932 49.0261 14.2932 48.7176C14.2932 48.4094 14.3406 48.1483 14.4118 47.935C14.5066 47.7214 14.6249 47.5316 14.7672 47.3895C14.9095 47.2471 15.0756 47.1521 15.265 47.0809C15.4547 47.0101 15.6442 46.9863 15.8576 46.9863C16.0711 46.9863 16.308 47.0097 16.4977 47.0809C16.6871 47.1521 16.8532 47.2471 16.9955 47.3657C17.1375 47.4844 17.2323 47.674 17.3272 47.8876C17.4221 48.1008 17.4458 48.3619 17.4458 48.6701V49.5242H17.9673C18.0622 49.5242 18.1567 49.5476 18.2041 49.6188C18.2516 49.6663 18.2753 49.7612 18.2753 49.9036C18.2753 50.046 18.2516 50.1644 18.2041 50.2118C18.1567 50.2593 18.0859 50.283 17.9673 50.283H17.4458V50.4492C17.4458 50.9235 17.3272 51.2555 17.0903 51.4928C16.8532 51.7061 16.4977 51.8247 16.0474 51.8247H15.0044L14.9807 51.7535ZM15.8576 47.7214C15.6204 47.7214 15.4547 47.8164 15.3124 47.9822C15.1938 48.1483 15.1227 48.3856 15.1227 48.6701C15.1227 48.9549 15.1938 49.1919 15.3124 49.3106C15.431 49.4293 15.6204 49.4767 15.8813 49.4767H16.5689V48.6227C16.5689 48.3382 16.5214 48.1008 16.4028 47.9588C16.2842 47.8164 16.1182 47.7214 15.8576 47.7214Z" fill="#E5E7EB"/>
<path d="M18.1093 50.2357C18.0144 50.2357 17.9432 50.212 17.8958 50.1645C17.8487 50.117 17.8487 50.0221 17.8487 49.88C17.8487 49.7376 17.8487 49.619 17.8958 49.5715C17.9432 49.524 18.0144 49.4766 18.1093 49.4766H19.0336C19.1285 49.4766 19.2234 49.5003 19.2708 49.5715C19.3183 49.619 19.342 49.7139 19.342 49.8563C19.342 49.9987 19.3183 50.117 19.2708 50.1645C19.2234 50.212 19.1522 50.2357 19.0336 50.2357H18.1093Z" fill="#E5E7EB"/>
<path d="M19.2945 47.2234C19.2945 47.1996 19.2945 47.1522 19.342 47.1284C19.3894 47.1047 19.3894 47.081 19.4131 47.0335L21.0725 45.1124C21.0958 45.0886 21.1433 45.0649 21.167 45.1124L21.6648 45.5155C21.7122 45.5392 21.7122 45.5867 21.6885 45.6104L20.4324 47.0572C20.693 47.0572 20.9301 47.0572 21.1433 47.1047C21.3568 47.1284 21.5465 47.1996 21.7122 47.2946C21.8782 47.3895 21.9968 47.5316 22.0917 47.6977C22.1862 47.8876 22.2337 48.1246 22.2337 48.4094V49.0258C22.2337 49.1682 22.2811 49.2631 22.3997 49.3343C22.5183 49.4055 22.6603 49.453 22.85 49.453H22.9686C23.0635 49.453 23.1581 49.4768 23.2055 49.5476C23.2529 49.5951 23.2767 49.69 23.2767 49.8324C23.2767 49.9748 23.2529 50.0694 23.2055 50.1406C23.1581 50.1881 23.0872 50.2356 22.9686 50.2356C22.7552 50.2356 22.5657 50.2118 22.3997 50.1406C22.2337 50.0694 22.1151 49.9748 22.0443 49.785C21.9494 49.9511 21.8308 50.0694 21.6885 50.1169C21.5228 50.1881 21.333 50.2118 21.0958 50.2118H18.8442C18.7493 50.2118 18.6545 50.1881 18.607 50.1169C18.5596 50.0694 18.5362 49.9511 18.5362 49.8087C18.5362 49.6663 18.5596 49.5714 18.607 49.5239C18.6545 49.4768 18.7256 49.453 18.8442 49.453H20.7404C20.8827 49.453 20.9776 49.453 21.0725 49.4293C21.1433 49.4293 21.2144 49.3818 21.2619 49.3343C21.3093 49.2869 21.333 49.2394 21.3568 49.1445V48.86V48.4569C21.3568 48.0059 21.0958 47.7926 20.5744 47.7926H19.342C19.2945 47.7926 19.2708 47.7689 19.2708 47.7214V47.1996L19.2945 47.2234Z" fill="#E5E7EB"/>
<path d="M23.1581 50.2357C23.0632 50.2357 22.992 50.212 22.9446 50.1645C22.8975 50.117 22.8975 50.0221 22.8975 49.88C22.8975 49.7376 22.8975 49.619 22.9446 49.5715C22.992 49.524 23.0632 49.4766 23.1581 49.4766H24.0824C24.1773 49.4766 24.2722 49.5003 24.3196 49.5715C24.3671 49.619 24.3908 49.7139 24.3908 49.8563C24.3908 49.9987 24.3671 50.117 24.3196 50.1645C24.2722 50.212 24.201 50.2357 24.0824 50.2357H23.1581Z" fill="#E5E7EB"/>
<path d="M24.0828 50.2357C23.9879 50.2357 23.9168 50.212 23.8693 50.1645C23.8222 50.117 23.8222 50.0221 23.8222 49.88C23.8222 49.7376 23.8222 49.619 23.8693 49.5715C23.9168 49.524 23.9879 49.4766 24.0828 49.4766H25.0072C25.102 49.4766 25.1969 49.5003 25.2443 49.5715C25.2918 49.619 25.3155 49.7139 25.3155 49.8563C25.3155 49.9987 25.2918 50.117 25.2443 50.1645C25.1969 50.212 25.1257 50.2357 25.0072 50.2357H24.0828Z" fill="#E5E7EB"/>
<path d="M24.3671 47.5791C24.5331 47.413 24.7225 47.2472 24.936 47.1522C25.1491 47.0335 25.4337 46.9861 25.7418 46.9861C26.0501 46.9861 26.3581 47.0335 26.5953 47.1522C26.8322 47.2472 26.9982 47.3892 27.1405 47.5554C27.2825 47.7215 27.3774 47.9348 27.4248 48.1484C27.4722 48.3854 27.5197 48.6227 27.5197 48.8835V48.9784V49.0733C27.5197 49.2157 27.5908 49.3107 27.7091 49.3815C27.8277 49.4528 27.97 49.5002 28.1598 49.5002H28.278C28.3729 49.5002 28.4678 49.524 28.5152 49.5952C28.5626 49.6426 28.5864 49.7376 28.5864 49.88C28.5864 50.022 28.5626 50.117 28.5152 50.1882C28.4678 50.2356 28.3966 50.2831 28.278 50.2831C28.0649 50.2831 27.8751 50.2594 27.7091 50.1882C27.5434 50.1407 27.4248 50.022 27.3299 49.8325C27.2351 49.9983 27.0931 50.117 26.927 50.1882C26.761 50.2594 26.5479 50.2831 26.3107 50.2831H23.9405C23.8456 50.2831 23.7507 50.2594 23.7033 50.1882C23.6558 50.1407 23.6321 50.022 23.6321 49.9034C23.6321 49.785 23.6558 49.6664 23.7033 49.5952C23.7507 49.524 23.8219 49.524 23.9405 49.524H25.9789C26.1213 49.524 26.2158 49.524 26.3107 49.5002C26.3818 49.5002 26.453 49.4528 26.5004 49.4053C26.5479 49.3581 26.5716 49.2869 26.5953 49.2157V48.9072C26.5953 48.7889 26.5953 48.599 26.5479 48.4566C26.5241 48.3145 26.4767 48.1958 26.4056 48.1009C26.3344 48.006 26.2395 47.911 26.1209 47.8639C26.0027 47.8164 25.8604 47.769 25.6943 47.769C25.5286 47.769 25.3626 47.7927 25.244 47.8639C25.1017 47.9348 24.9834 48.006 24.8885 48.1246C24.8411 48.1484 24.8174 48.1721 24.77 48.1246L24.3671 47.7215C24.3196 47.674 24.3196 47.6503 24.3671 47.6266V47.5791Z" fill="#E5E7EB"/>
<path d="M28.4203 50.2357C28.3255 50.2357 28.2543 50.212 28.2069 50.1645C28.1598 50.117 28.1598 50.0221 28.1598 49.88C28.1598 49.7376 28.1598 49.619 28.2069 49.5715C28.2543 49.524 28.3255 49.4766 28.4203 49.4766H30.2216C30.3165 49.4766 30.4114 49.5003 30.4588 49.5715C30.5063 49.619 30.53 49.7139 30.53 49.8563C30.53 49.9987 30.5063 50.117 30.4588 50.1645C30.4114 50.212 30.3402 50.2357 30.2216 50.2357H28.4203Z" fill="#E5E7EB"/>
<path d="M28.3255 50.2355C28.2306 50.2355 28.1357 50.2118 28.0883 50.1643C28.0412 50.1168 28.0175 50.0219 28.0175 49.8798C28.0175 49.7374 28.0412 49.6425 28.0883 49.5713C28.1357 49.5238 28.2069 49.4764 28.3255 49.4764H29.5819C29.7002 49.4764 29.795 49.453 29.8662 49.3818C29.9136 49.3343 29.9611 49.2156 29.9611 49.0732V45.1835C29.9611 45.136 29.9848 45.1123 30.0322 45.1123H30.7431C30.7906 45.1123 30.8143 45.136 30.8143 45.1835V49.2868C30.8143 49.6188 30.7431 49.8561 30.6012 49.9982C30.4588 50.1406 30.2454 50.2355 29.9136 50.2355H28.3018H28.3255Z" fill="#E5E7EB"/>
<path d="M31.81 45.1837C31.81 45.1444 31.8419 45.1125 31.8812 45.1125H32.5921C32.6314 45.1125 32.6632 45.1444 32.6632 45.1837V50.1646C32.6632 50.2039 32.6314 50.2358 32.5921 50.2358H31.8812C31.8419 50.2358 31.81 50.2039 31.81 50.1646V45.1837Z" fill="#E5E7EB"/>
<path d="M38.3519 48.9551C38.3519 49.2158 38.3519 49.4057 38.2808 49.5718C38.2333 49.7376 38.1622 49.8563 38.0676 49.975C37.9727 50.0936 37.8541 50.1411 37.7118 50.1886C37.5698 50.2357 37.4038 50.2594 37.2141 50.2594H35.4365C35.389 50.2594 35.3653 50.2357 35.3653 50.1886V49.5955C35.3653 49.5481 35.389 49.5243 35.4365 49.5243H36.8586C37.0009 49.5243 37.0955 49.5243 37.1904 49.5006C37.2615 49.5006 37.3327 49.4531 37.3801 49.4057C37.4275 49.3582 37.4513 49.287 37.475 49.2161C37.4987 49.1449 37.475 49.05 37.475 48.9313V48.4332C37.475 47.9826 37.2141 47.769 36.6926 47.769H35.7682C35.7208 47.769 35.6971 47.7453 35.6971 47.6982V47.1051C35.6971 47.0577 35.7208 47.0339 35.7682 47.0339H37.0009C37.4038 47.0339 37.7356 47.1526 37.9727 47.3659C38.2096 47.5795 38.3282 47.9352 38.3282 48.3858V49.0025L38.3519 48.9551Z" fill="#E5E7EB"/>
<path d="M38.85 51.7536C38.8022 51.7536 38.7788 51.7298 38.7788 51.6823V51.0893C38.7788 51.0419 38.8022 51.0181 38.85 51.0181H39.0157C39.2292 51.0181 39.3949 50.971 39.4897 50.8523C39.5846 50.7337 39.6321 50.5913 39.6321 50.378V47.1996C39.6321 47.1522 39.6555 47.1284 39.7032 47.1284H40.4141C40.4619 47.1284 40.4853 47.1522 40.4853 47.1996V50.4017C40.4853 51.3267 40.035 51.7773 39.1343 51.7773H38.85V51.7536Z" fill="#E5E7EB"/>
<path d="M41.481 45.1837C41.481 45.1444 41.5129 45.1125 41.5522 45.1125H42.2631C42.3024 45.1125 42.3342 45.1444 42.3342 45.1837V50.1646C42.3342 50.2039 42.3024 50.2358 42.2631 50.2358H41.5522C41.5129 50.2358 41.481 50.2039 41.481 50.1646V45.1837Z" fill="#E5E7EB"/>
<path d="M43.9937 51.7535C43.9462 51.7535 43.9225 51.7298 43.9225 51.6823V51.0893C43.9225 51.0419 43.9462 51.0184 43.9937 51.0184H44.8943C45.0129 51.0184 45.1078 51.0184 45.2023 50.9947C45.2972 50.971 45.3684 50.9235 45.4158 50.876C45.4632 50.8286 45.5107 50.7336 45.5344 50.6387C45.5581 50.5438 45.5818 50.4017 45.5818 50.2593H44.7994C44.5626 50.2593 44.3491 50.2356 44.1594 50.1881C43.9699 50.1406 43.8276 50.046 43.6853 49.9273C43.5671 49.8087 43.4485 49.6425 43.401 49.453C43.3299 49.2631 43.3062 49.0261 43.3062 48.7176C43.3062 48.4094 43.3536 48.1483 43.4247 47.935C43.5196 47.7214 43.6379 47.5316 43.7802 47.3895C43.9225 47.2471 44.0885 47.1521 44.278 47.0809C44.4677 47.0101 44.6571 46.9863 44.8706 46.9863C45.0841 46.9863 45.3209 47.0097 45.5107 47.0809C45.7001 47.1521 45.8661 47.2471 46.0084 47.3657C46.1504 47.4844 46.2453 47.674 46.3402 47.8876C46.4351 48.1008 46.4588 48.3619 46.4588 48.6701V49.5242H46.9803C47.0751 49.5242 47.1697 49.5476 47.2171 49.6188C47.2645 49.6663 47.2883 49.7612 47.2883 49.9036C47.2883 50.046 47.2645 50.1644 47.2171 50.2118C47.1697 50.2593 47.0988 50.283 46.9803 50.283H46.4588V50.4492C46.4588 50.9235 46.3402 51.2555 46.1033 51.4928C45.8661 51.7061 45.5107 51.8247 45.0604 51.8247H44.0174L43.9937 51.7535ZM44.8706 47.7214C44.6334 47.7214 44.4677 47.8164 44.3254 47.9822C44.2068 48.1483 44.1357 48.3856 44.1357 48.6701C44.1357 48.9549 44.2068 49.1919 44.3254 49.3106C44.444 49.4293 44.6334 49.4767 44.8943 49.4767H45.5818V48.6227C45.5818 48.3382 45.5344 48.1008 45.4158 47.9588C45.2972 47.8164 45.1312 47.7214 44.8706 47.7214Z" fill="#E5E7EB"/>
<path d="M46.9566 50.2357C46.8617 50.2357 46.7905 50.212 46.7431 50.1645C46.696 50.117 46.696 50.0221 46.696 49.88C46.696 49.7376 46.696 49.619 46.7431 49.5715C46.7905 49.524 46.8617 49.4766 46.9566 49.4766H48.7816C48.8765 49.4766 48.9713 49.5003 49.0188 49.5715C49.0662 49.619 49.0899 49.7139 49.0899 49.8563C49.0899 49.9987 49.0662 50.117 49.0188 50.1645C48.9713 50.212 48.9002 50.2357 48.7816 50.2357H46.9566Z" fill="#E5E7EB"/>
<path d="M49.5399 48.5753C49.5399 48.2908 49.5874 48.0298 49.6585 47.8402C49.7297 47.6266 49.8483 47.4608 49.9903 47.3421C50.1326 47.2235 50.2986 47.1285 50.488 47.0573C50.6778 47.0099 50.8909 46.9624 51.1044 46.9624C51.3178 46.9624 51.531 46.9861 51.7445 47.0573C51.9339 47.1285 52.0999 47.2235 52.2422 47.3421C52.3845 47.4608 52.5028 47.6504 52.574 47.864C52.6451 48.0772 52.6925 48.3383 52.6925 48.6465V48.7889V48.9076C52.6925 49.1209 52.74 49.2633 52.8349 49.3582C52.9294 49.4531 53.048 49.5003 53.1666 49.5003H53.3801C53.4746 49.5003 53.5695 49.524 53.6169 49.5952C53.6644 49.6427 53.6881 49.7376 53.6881 49.88C53.6881 50.0224 53.6644 50.117 53.6169 50.1882C53.5695 50.2357 53.4983 50.2832 53.3801 50.2832H53.1192C53.0243 50.2832 52.9294 50.2832 52.8349 50.2357C52.74 50.212 52.6451 50.1645 52.574 50.117C52.4791 50.0696 52.4079 49.9987 52.3371 49.9037C52.1948 50.0696 52.0288 50.1882 51.8156 50.2594C51.6021 50.3306 51.3653 50.3781 51.1044 50.3781C50.8438 50.3781 50.6303 50.3544 50.4169 50.2832C50.2037 50.212 50.0377 50.0933 49.8954 49.9512C49.8479 50.0221 49.7771 50.0933 49.706 50.1408C49.6348 50.1882 49.5636 50.2357 49.4925 50.2594C49.4213 50.2832 49.3268 50.3069 49.2556 50.3069H49.0184H48.7579C48.663 50.3069 48.5681 50.2832 48.5207 50.212C48.4732 50.1645 48.4495 50.0458 48.4495 49.9275C48.4495 49.8088 48.4732 49.6901 48.5207 49.6189C48.5681 49.5477 48.6393 49.5477 48.7579 49.5477H49.0659C49.1845 49.5477 49.3031 49.5003 49.3976 49.4057C49.4925 49.3107 49.5399 49.1209 49.5399 48.8601V48.7414V48.6228V48.5753ZM51.1281 47.7215C50.8909 47.7215 50.7015 47.7928 50.5829 47.9589C50.4643 48.1247 50.4169 48.3383 50.4169 48.6228C50.4169 48.9076 50.4643 49.1683 50.5829 49.3107C50.7015 49.4531 50.8909 49.524 51.1281 49.524C51.3653 49.524 51.5547 49.4531 51.6733 49.3107C51.7919 49.1683 51.8393 48.9313 51.8393 48.6228C51.8393 48.006 51.6021 47.7215 51.1281 47.7215Z" fill="#E5E7EB"/>
<path d="M53.38 50.2357C53.2851 50.2357 53.214 50.212 53.1666 50.1645C53.1194 50.117 53.1194 50.0221 53.1194 49.88C53.1194 49.7376 53.1194 49.619 53.1666 49.5715C53.214 49.524 53.2851 49.4766 53.38 49.4766H54.3044C54.3993 49.4766 54.4941 49.5003 54.5416 49.5715C54.589 49.619 54.6127 49.7139 54.6127 49.8563C54.6127 49.9987 54.589 50.117 54.5416 50.1645C54.4941 50.212 54.423 50.2357 54.3044 50.2357H53.38Z" fill="#E5E7EB"/>
<path d="M54.2807 50.2355C54.1858 50.2355 54.0909 50.2118 54.0435 50.1643C53.9964 50.1168 53.9727 50.0219 53.9727 49.8798C53.9727 49.7374 53.9964 49.6425 54.0435 49.5713C54.0909 49.5238 54.1621 49.4764 54.2807 49.4764H54.6598C54.7784 49.4764 54.8733 49.453 54.9445 49.3818C54.9919 49.3343 55.0393 49.2156 55.0393 49.0732V45.1835C55.0393 45.136 55.0627 45.1123 55.1102 45.1123H55.8214C55.8688 45.1123 55.8926 45.136 55.8926 45.1835V49.2868C55.8926 49.6188 55.8214 49.8561 55.6791 49.9982C55.5371 50.1406 55.3236 50.2355 54.9919 50.2355H54.2807Z" fill="#E5E7EB"/>
<path d="M56.8882 45.1837C56.8882 45.1444 56.9201 45.1125 56.9594 45.1125H57.6702C57.7095 45.1125 57.7414 45.1444 57.7414 45.1837V50.1646C57.7414 50.2039 57.7095 50.2358 57.6702 50.2358H56.9594C56.9201 50.2358 56.8882 50.2039 56.8882 50.1646V45.1837Z" fill="#E5E7EB"/>
</g>
</svg>
