<svg width="74" height="50" viewBox="0 0 74 50" fill="none" xmlns="http://www.w3.org/2000/svg">
<mask id="mask0_153_702" style="mask-type:alpha" maskUnits="userSpaceOnUse" x="0" y="0" width="74" height="50">
<rect width="74" height="50" fill="#D9D9D9"/>
</mask>
<g mask="url(#mask0_153_702)">
<path d="M52.7587 28.3896V28.4442C52.7587 32.0507 50.1568 34.7009 45.9284 34.7009C42.5135 34.7009 40.1554 33.3347 38.5294 31.3949L41.4025 28.6351C42.7033 30.1109 44.0585 30.9301 45.9829 30.9301C47.5548 30.9301 48.6661 30.0288 48.6661 28.608C48.6453 28.5704 48.9727 26.1221 44.9528 26.1221H43.2183L42.5675 23.444L48.6538 17.2725L46.2148 18.8544H39.6407V15.2483H52.4604V18.4175L47.6633 23.0346C50.2381 23.4719 52.7587 24.8377 52.7587 28.3896ZM40.8602 6.50302C40.8602 4.77152 42.0917 3.37788 43.8199 3.37788H45.7673L45.2575 3.63438C45.2806 8.38029 45.1643 8.97805 45.4649 9.67185L43.8415 9.67148C42.1133 9.67148 40.8602 8.25599 40.8602 6.52487V6.50302ZM43.8199 10.4666H45.5492V9.83871C45.6752 10.0594 45.8449 10.2308 46.0951 10.3506C46.6452 10.6143 46.2454 10.4485 62.0206 10.4975V2.58313H61.1886V9.65867C61.1886 9.65867 46.7642 9.71479 46.4901 9.5905C46.2521 9.48239 46.1656 9.23531 46.1261 8.97202C46.0631 8.54451 46.1015 8.5366 46.0899 2.58313H43.8415C41.5408 2.58313 39.9745 4.42311 39.9745 6.52487V6.54671C39.9745 8.64809 41.5192 10.4666 43.8199 10.4666ZM68.1527 1.74393H66.3298C66.3694 1.13525 66.0904 0 67.3185 0H67.9055V0.584575C67.3371 0.627138 67.0101 0.444835 67.0101 0.903229V1.09721H68.1527V1.74393ZM70.2598 10.583C70.0379 10.583 69.8123 10.5517 69.5837 10.4885L69.8022 9.68127C70.1785 9.78937 70.6596 9.79578 70.858 9.45603C71.0896 9.05376 71.0068 8.91213 71.0191 2.58313H71.8511C71.8273 8.49103 71.9086 8.656 71.7732 9.34077C71.6136 10.1419 71.1325 10.583 70.2598 10.583ZM46.0899 1.74393H45.2575V0.905112H46.0899V1.74393ZM64.4033 4.63818C64.7937 3.87017 65.6134 3.44267 66.4514 3.43363V3.43212H67.7958L67.3207 3.6713V7.43789C66.6658 7.4183 66.2057 7.50079 65.5993 7.30644C64.7713 7.04353 64.2104 6.40019 64.2104 5.46645C64.2104 5.16626 64.2746 4.88979 64.4033 4.63818ZM64.4033 7.61078C65.4866 8.39046 66.9638 8.26164 67.041 8.27633L67.3207 7.6846C67.2756 8.25825 67.477 9.05978 66.9463 9.4613C66.4977 9.79992 65.6977 9.789 65.2039 9.67072C64.9996 9.62214 64.7654 9.53814 64.5017 9.41949L64.2418 10.2267C64.7691 10.4229 65.2733 10.583 65.8331 10.583C66.6446 10.583 67.2338 10.389 67.6015 10.0014C67.9689 9.6131 68.1527 9.09067 68.1527 8.43378V2.58313C67.1287 2.61552 66.3518 2.47879 65.4173 2.80347C62.913 3.67318 62.863 6.5034 64.4033 7.61078ZM44.4255 1.74393H43.5931V0.905112H44.4255V1.74393ZM35.8126 2.57409H36.6718V10.4504H35.9685L30.4345 3.36583L30.9238 4.51388V10.4504H30.0641V2.57409H30.8902L36.1747 9.35019L35.8126 8.38368V2.57409ZM3.36014 10.5065L0.000366211 2.57409H0.982677C1.03265 2.69613 3.71032 9.23305 3.98182 9.89597L3.89679 9.0304L6.55246 2.57409H7.50084L4.14144 10.5065H3.36014ZM18.2488 2.57409H19.1304V10.45H18.2488V2.57409ZM27.7057 6.53466C27.7057 8.32379 26.4336 9.76376 24.6476 9.76376C22.8617 9.76376 21.5668 8.30119 21.5668 6.51244V6.48946C21.5668 4.70071 22.8397 3.26074 24.6253 3.26074C26.4112 3.26074 27.7057 4.72331 27.7057 6.51244V6.53466ZM24.6476 2.43924C22.2702 2.43924 20.6516 4.34062 20.6516 6.51244V6.53466C20.6516 8.7061 22.2478 10.5853 24.6253 10.5853C27.0027 10.5853 28.6213 8.68388 28.6213 6.51244V6.48946C28.6213 4.3184 27.0251 2.43924 24.6476 2.43924ZM16.794 8.31249V8.33471C16.794 9.68466 15.6778 10.5627 14.1264 10.5627C12.8875 10.5627 11.872 10.1464 10.9344 9.30235L11.4812 8.64998C12.296 9.39237 13.0773 9.76338 14.1603 9.76338C15.2094 9.76338 15.9012 9.20141 15.9012 8.42474V8.40251C15.9012 6.20433 11.247 7.65447 11.247 4.63291V4.61069C11.247 3.37298 12.3296 2.46147 13.8143 2.46147C14.9524 2.46147 15.7673 2.78803 16.5598 3.42948L16.0466 4.11538C14.2752 2.65997 12.1286 3.21742 12.1286 4.53196V4.55456C12.1286 5.29696 12.5302 5.71317 14.2495 6.08455C15.9907 6.46724 16.794 7.10869 16.794 8.31249ZM9.58032 10.4504H8.6987V2.57447H9.58032V10.4504ZM60.898 11.3359H61.7304V12.1748H60.898V11.3359ZM59.2336 11.3359H60.066V12.1748H59.2336V11.3359ZM6.97798 30.7388H14.2122V34.3732H0.172289V31.0397C7.18757 25.0267 9.76716 23.8516 9.76716 21.2315C9.76716 19.6194 8.70989 18.7452 7.21927 18.7452C5.7555 18.7452 4.75268 19.5644 3.34336 21.3129L0.416189 18.9365C2.28646 16.3681 4.10265 14.9745 7.49039 14.9745C11.4204 14.9745 14.0223 17.2969 14.0223 20.8763V20.9306C14.0223 25.4188 10.6581 26.8656 4.88917 31.561L4.08363 32.1878L6.97798 30.7388ZM69.6367 24.8652C69.6367 28.1436 67.3058 30.8213 63.9445 30.8213C60.5837 30.8213 58.1987 28.089 58.1987 24.8102V24.7555C58.1987 21.4771 60.53 18.7998 63.8905 18.7998C67.251 18.7998 69.6367 21.5321 69.6367 24.8102V24.8652ZM63.9445 14.9202C58.0906 14.9202 53.835 19.3735 53.835 24.8102V24.8652C53.835 30.3022 58.0358 34.7009 63.8905 34.7009C69.7452 34.7009 74 30.2472 74 24.8102V24.7555C74 19.3188 69.7989 14.9202 63.9445 14.9202Z" fill="white"/>
<path d="M25.553 13.6621L26.5141 14.5917L25.5918 15.5601L24.6311 14.6305" fill="white"/>
<path d="M27.7522 14.6305L28.7125 15.5601L29.6348 14.5917L28.6741 13.6621" fill="white"/>
<path d="M26.3992 15.8512L27.1477 16.5748L27.8652 15.8207L27.1175 15.0972" fill="white"/>
<path d="M29.1422 16.2651L29.8903 16.989L30.6078 16.2349L29.8597 15.511" fill="white"/>
<path d="M25.176 17.0041L25.9241 17.728L26.6416 16.9739L25.8943 16.25" fill="white"/>
<path d="M27.6862 17.092L28.434 17.8159L29.1518 17.0618L28.4037 16.3379" fill="white"/>
<path d="M26.7043 17.9594L27.2305 18.4687L27.7354 17.938L27.2092 17.4287" fill="white"/>
<path d="M28.6894 18.3589L29.2156 18.8682L29.7209 18.3375L29.1947 17.8286" fill="white"/>
<rect x="33.052" y="15.6978" width="1.65954" height="1.67324" transform="rotate(-10.3957 33.052 15.6978)" fill="white"/>
<rect x="30.9162" y="16.1162" width="1.33152" height="1.34253" transform="rotate(-10.3752 30.9162 16.1162)" fill="white"/>
<rect x="33.4479" y="17.9558" width="1.33122" height="1.34259" transform="rotate(-10.3938 33.4479 17.9558)" fill="white"/>
<rect x="31.637" y="17.9053" width="1.03658" height="1.04501" transform="rotate(-10.3841 31.637 17.9053)" fill="white"/>
<rect x="33.6209" y="19.8586" width="1.03676" height="1.04542" transform="rotate(-10.3841 33.6209 19.8586)" fill="white"/>
<rect x="30.109" y="18.3235" width="1.03716" height="1.04523" transform="rotate(-10.3804 30.109 18.3235)" fill="white"/>
<rect x="31.9599" y="19.6702" width="1.03676" height="1.04542" transform="rotate(-10.3841 31.9599 19.6702)" fill="white"/>
<rect x="30.6552" y="19.5396" width="0.729502" height="0.735239" transform="rotate(-10.3965 30.6552 19.5396)" fill="white"/>
<rect x="32.0336" y="21.0349" width="0.729035" height="0.734986" transform="rotate(-10.3729 32.0336 21.0349)" fill="white"/>
<path d="M37.88 19.7148L37.1666 21.226L38.6658 21.9447L39.3785 20.4339" fill="white"/>
<path d="M35.7524 19.0171L35.1803 20.2292L36.3827 20.8058L36.9548 19.5938" fill="white"/>
<path d="M36.7362 22.0027L36.1641 23.2152L37.3668 23.7914L37.9389 22.5794" fill="white"/>
<path d="M35.1606 21.0935L34.7153 22.0374L35.6517 22.4864L36.0974 21.5425" fill="white"/>
<path d="M35.6361 23.8481L35.1904 24.7921L36.1265 25.241L36.5725 24.2971" fill="white"/>
<path d="M33.6785 20.5315L33.2329 21.4754L34.1693 21.9244L34.615 20.9805" fill="white"/>
<path d="M34.3987 22.7153L33.953 23.6592L34.8891 24.1082L35.3351 23.1643" fill="white"/>
<path d="M33.2724 22.0498L32.9588 22.7139L33.6174 23.0295L33.931 22.3658" fill="white"/>
<rect x="33.6231" y="24.8152" width="0.728138" height="0.736253" transform="rotate(-64.5505 33.6231 24.8152)" fill="white"/>
<path d="M38.6874 26.9502L37.2322 27.7547L38.0307 29.2218L39.4859 28.4173" fill="white"/>
<path d="M37.3676 25.1294L36.2003 25.775L36.8406 26.9517L38.0079 26.3061" fill="white"/>
<path d="M36.4326 28.1311L35.265 28.7767L35.9057 29.9538L37.073 29.3082" fill="white"/>
<path d="M35.6823 26.4644L34.7735 26.9672L35.2717 27.8832L36.1813 27.3808" fill="white"/>
<path d="M34.4692 28.9785L33.5599 29.4814L34.0586 30.3974L34.9678 29.8949" fill="white"/>
<path d="M34.8066 25.1348L33.8974 25.6372L34.396 26.554L35.3056 26.0512" fill="white"/>
<path d="M34.1231 27.3303L33.2139 27.8332L33.7125 28.7492L34.6217 28.2467" fill="white"/>
<path d="M33.5957 26.1265L32.9561 26.4801L33.3071 27.1246L33.9463 26.7713" fill="white"/>
<path d="M32.6227 27.9155L31.9832 28.2692L32.3337 28.9137L32.9733 28.5604" fill="white"/>
<rect x="34.7443" y="34.7756" width="1.65697" height="1.67634" transform="rotate(-82.9534 34.7443 34.7756)" fill="white"/>
<rect x="34.8118" y="32.2329" width="1.32915" height="1.34471" transform="rotate(-82.9408 34.8118 32.2329)" fill="white"/>
<rect x="32.3106" y="34.116" width="1.32915" height="1.34508" transform="rotate(-82.9408 32.3106 34.116)" fill="white"/>
<rect x="32.7414" y="32.061" width="1.03486" height="1.04711" transform="rotate(-82.9621 32.7414 32.061)" fill="white"/>
<rect x="30.2973" y="33.3833" width="1.03486" height="1.04711" transform="rotate(-82.9621 30.2973 33.3833)" fill="white"/>
<rect x="32.8019" y="30.4631" width="1.03528" height="1.04753" transform="rotate(-82.9442 32.8019 30.4631)" fill="white"/>
<rect x="30.9731" y="31.8398" width="1.03491" height="1.04753" transform="rotate(-82.9416 30.9731 31.8398)" fill="white"/>
<rect x="31.3188" y="30.2795" width="0.727898" height="0.736287" transform="rotate(-82.9369 31.3188 30.2795)" fill="white"/>
<rect x="29.4894" y="31.1555" width="0.727898" height="0.736662" transform="rotate(-82.9369 29.4894 31.1555)" fill="white"/>
<path d="M28.5865 36.3481L27.37 35.2095L26.2407 36.4359L27.4572 37.5741" fill="white"/>
<path d="M28.3623 12.9113L27.1458 11.7727L26.0166 12.9991L27.2331 14.1374" fill="white"/>
<path d="M29.8847 34.5113L28.9087 33.5979L28.0028 34.5817L28.9788 35.4948" fill="white"/>
<path d="M26.7639 34.5635L25.7876 33.6501L24.8817 34.634L25.8577 35.547" fill="white"/>
<path d="M28.0961 33.3203L27.336 32.6091L26.6308 33.3749L27.3905 34.086" fill="white"/>
<path d="M25.3468 32.9523L24.5871 32.2412L23.8819 33.007L24.6419 33.7185" fill="white"/>
<path d="M29.072 32.0634L28.312 31.3523L27.6068 32.118L28.3664 32.8292" fill="white"/>
<path d="M26.7893 32.1013L26.0293 31.3901L25.324 32.1559L26.0837 32.867" fill="white"/>
<path d="M27.7563 31.2176L27.2219 30.717L26.7259 31.256L27.2603 31.7562" fill="white"/>
<path d="M25.7652 30.8508L25.2308 30.3506L24.7344 30.8892L25.2689 31.3894" fill="white"/>
<rect x="19.5757" y="34.9932" width="1.65984" height="1.67317" transform="rotate(-11.3377 19.5757 34.9932)" fill="white"/>
<rect x="22.0743" y="34.2612" width="1.33145" height="1.34261" transform="rotate(-11.3414 22.0743 34.2612)" fill="white"/>
<rect x="19.5146" y="32.4624" width="1.33127" height="1.34227" transform="rotate(-11.3414 19.5146 32.4624)" fill="white"/>
<rect x="21.6564" y="32.2344" width="1.03681" height="1.04525" transform="rotate(-11.3261 21.6564 32.2344)" fill="white"/>
<rect x="23.1772" y="31.791" width="1.03663" height="1.04565" transform="rotate(-11.3261 23.1772 31.791)" fill="white"/>
<rect x="21.3039" y="30.4751" width="1.03681" height="1.04525" transform="rotate(-11.3261 21.3039 30.4751)" fill="white"/>
<rect x="22.9569" y="30.3242" width="0.729484" height="0.735218" transform="rotate(-11.3214 22.9569 30.3242)" fill="white"/>
<rect x="21.5553" y="28.8513" width="0.729192" height="0.735292" transform="rotate(-11.3559 21.5553 28.8513)" fill="white"/>
<path d="M16.5541 29.6486L17.2422 28.1262L15.7314 27.4324L15.0433 28.9548" fill="white"/>
<path d="M18.6925 30.311L19.2445 29.0895L18.0328 28.5332L17.4805 29.7547" fill="white"/>
<path d="M17.6591 27.3422L18.2114 26.1207L16.9994 25.564L16.4474 26.7858" fill="white"/>
<rect x="18.9115" y="27.8975" width="1.03537" height="1.04656" transform="rotate(-65.4843 18.9115 27.8975)" fill="white"/>
<path d="M20.5124 30.603L20.9424 29.6519L19.9989 29.2188L19.5689 30.1698" fill="white"/>
<rect x="18.3932" y="25.1506" width="1.03545" height="1.04689" transform="rotate(-65.4843 18.3932 25.1506)" fill="white"/>
<rect x="20.4044" y="28.4336" width="1.03545" height="1.04688" transform="rotate(-65.4843 20.4044 28.4336)" fill="white"/>
<rect x="19.6472" y="26.2639" width="1.03519" height="1.04671" transform="rotate(-65.4569 19.6472 26.2639)" fill="white"/>
<path d="M21.1222 27.2367L21.4246 26.5678L20.7608 26.2627L20.4583 26.932" fill="white"/>
<path d="M20.8395 25.2165L21.1419 24.5471L20.4781 24.2424L20.1757 24.9118" fill="white"/>
<path d="M15.627 22.4277L17.0691 21.599L16.2464 20.1455L14.8047 20.9742" fill="white"/>
<path d="M16.977 24.2264L18.1339 23.5616L17.4738 22.3955L16.3173 23.0607" fill="white"/>
<path d="M17.8627 21.2095L19.0196 20.5447L18.3595 19.3782L17.203 20.0434" fill="white"/>
<path d="M18.6403 22.8634L19.5406 22.3455L19.027 21.4377L18.1264 21.9553" fill="white"/>
<path d="M19.8121 20.3297L20.7123 19.8118L20.1988 18.9041L19.2982 19.4216" fill="white"/>
<path d="M19.5372 24.1783L20.4382 23.6608L19.9247 22.7527L19.0237 23.2706" fill="white"/>
<path d="M20.185 21.9718L21.0856 21.4543L20.5721 20.5461L19.6714 21.064" fill="white"/>
<path d="M20.7321 23.1667L21.3657 22.8025L21.0043 22.1641L20.3707 22.5279" fill="white"/>
<path d="M21.6752 21.3613L22.3092 20.9971L21.9479 20.3586L21.3139 20.7229" fill="white"/>
<rect x="20.5484" y="16.0559" width="1.65663" height="1.67621" transform="rotate(-83.9006 20.5484 16.0559)" fill="white"/>
<rect x="20.3046" y="18.3047" width="1.32885" height="1.34515" transform="rotate(-83.8942 20.3046 18.3047)" fill="white"/>
<rect x="22.7742" y="16.3801" width="1.32922" height="1.34515" transform="rotate(-83.8959 22.7742 16.3801)" fill="white"/>
<rect x="22.1826" y="18.1755" width="1.03483" height="1.04704" transform="rotate(-83.8765 22.1826 18.1755)" fill="white"/>
<rect x="24.6024" y="16.8083" width="1.03477" height="1.04719" transform="rotate(-83.9175 24.6024 16.8083)" fill="white"/>
<rect x="22.1459" y="19.7705" width="1.03483" height="1.04704" transform="rotate(-83.8765 22.1459 19.7705)" fill="white"/>
<rect x="23.9527" y="18.3623" width="1.03483" height="1.04704" transform="rotate(-83.8765 23.9527 18.3623)" fill="white"/>
<rect x="23.4279" y="19.6492" width="0.728009" height="0.73678" transform="rotate(-83.8835 23.4279 19.6492)" fill="white"/>
<rect x="25.2428" y="18.7412" width="0.727969" height="0.737115" transform="rotate(-83.9128 25.2428 18.7412)" fill="white"/>
<path d="M32.4237 25.7013C31.5548 25.1958 30.3457 25.0489 29.093 25.5122C28.5456 25.7213 27.9974 26.0862 27.5349 26.4437C27.2437 24.6602 27.3857 23.0048 27.4536 22.1916C27.454 22.1871 27.4592 22.1848 27.4633 22.1874C28.0887 22.5848 27.9134 23.6952 27.7822 24.0127C27.7796 24.0191 27.7889 24.0233 27.7934 24.018C28.5728 23.0884 28.192 22.062 28.032 21.8021C28.0029 21.755 28.1793 21.8978 28.324 22.085C28.8689 22.7856 28.6172 23.5724 28.678 23.554C28.678 23.554 28.6813 23.554 28.6821 23.5521C29.0442 22.8345 28.9278 21.9245 28.1831 21.2673C28.1491 21.2383 28.2819 21.2819 28.324 21.297C28.9592 21.5196 29.2903 22.1803 29.2858 22.7694C29.2858 22.8989 29.7147 21.6627 28.678 21.0345C28.484 20.9173 28.2849 20.8529 28.1547 20.8371C28.0533 20.8262 28.71 20.7264 29.1714 21.042C29.4484 21.2307 29.5212 21.459 29.5141 21.3949C29.4335 20.5674 28.4676 20.2405 27.8821 20.4887C27.8202 20.52 28.1126 20.0823 28.678 20.1162C28.7869 20.1226 28.8875 20.1463 28.9681 20.1851C28.9737 20.1878 28.9789 20.1802 28.9748 20.1753C28.5478 19.6823 27.8452 19.6721 27.4723 20.2424C27.4696 20.2461 27.4641 20.2461 27.4618 20.2424C27.3205 19.9866 27.2023 19.6593 27.1512 19.3504C27.1389 19.2713 27.1127 19.7327 26.8293 20.2424C26.8271 20.2461 26.8219 20.2461 26.8193 20.2424C26.4452 19.6706 25.7433 19.6819 25.3167 20.1753C25.3122 20.1802 25.3174 20.1878 25.3234 20.1851C25.6083 20.0484 26.1465 20.0887 26.4161 20.4793C26.4195 20.4846 26.4146 20.4913 26.4087 20.4887C25.8052 20.2326 24.8572 20.5802 24.7771 21.3949C24.7767 21.4017 24.7856 21.4055 24.789 21.3995C24.8158 21.3486 24.8822 21.2401 25.0064 21.1302C25.489 20.7008 26.2479 20.8251 26.1364 20.8371C25.8399 20.874 25.2313 21.1407 25.0064 21.7501C24.8226 22.2481 24.9997 22.9038 25.0064 22.7415C25.0124 22.1874 25.3268 21.4454 26.1028 21.2563C26.1088 21.2548 26.1133 21.2631 26.1084 21.2673C24.9024 22.3381 25.6318 23.653 25.6206 23.5491C25.5833 23.1246 25.5524 22.3667 26.2494 21.7946C26.2546 21.7904 26.2628 21.7961 26.2591 21.8021C26.0991 22.062 25.7187 23.0884 26.4978 24.018C26.5023 24.0233 26.5116 24.0191 26.509 24.0127C26.3781 23.6952 26.2028 22.5848 26.8278 22.1874C26.8319 22.1848 26.8371 22.1871 26.8375 22.1916C26.9058 23.0048 27.0479 24.6602 26.7562 26.4437C25.7657 25.6791 24.7905 25.1777 23.5344 25.2335C22.9027 25.2614 22.3034 25.447 21.8674 25.7013C21.8518 25.7103 21.8633 25.7333 21.8801 25.728C23.7071 25.1382 25.2884 25.8538 26.7585 27.0893C26.0159 27.7428 25.3421 28.4268 24.9505 28.6332C24.8591 28.507 24.7006 28.4343 24.5272 28.4724C24.2005 28.5451 24.1226 28.9583 24.2997 29.136C24.9415 29.7828 25.9451 28.4995 27.1456 27.4268C28.3009 28.4581 29.3507 29.7824 29.9914 29.136C30.0425 29.0844 30.1018 28.9142 30.0712 28.779C29.994 28.4415 29.5499 28.3439 29.3407 28.6332C28.964 28.4415 28.3028 27.7665 27.5327 27.0893C29.0132 25.8429 30.5773 25.1472 32.4107 25.728C32.4278 25.7333 32.4394 25.7103 32.4237 25.7013Z" fill="white"/>
<path d="M26.5776 43.3565H27.0538V39.0491H26.5776V43.3565ZM14.0988 42.8763L13.3548 41.0341C14.1245 40.376 15.0796 40.4969 15.6942 41.0341L14.9502 42.8763H14.0988ZM11.4733 42.8763C11.0989 42.865 10.8356 42.9121 10.488 42.8017C9.20105 42.3912 9.55086 40.584 10.9911 40.584H11.4733V42.8763ZM24.714 42.8763C23.9469 42.8526 23.2559 43.013 22.9042 42.3964C22.9735 42.0883 22.9355 41.8119 22.9459 40.3979H22.4697V42.0243C22.4697 43.2179 21.0436 43.1403 20.7072 42.4236C20.5722 42.1354 20.6546 42.0149 20.63 40.3979H20.1534V42.0605C20.1534 42.6029 19.8174 42.8763 19.3497 42.8763H18.4271V40.3979H17.9509V42.8763H15.4503L16.2838 40.8661C15.811 40.4487 15.1527 40.0559 14.5217 40.0559C13.8806 40.0559 13.2351 40.4318 12.7592 40.8661L13.5987 42.8763H11.9496V40.0981H11.1877C10.1106 40.0981 9.21671 40.7233 9.21671 41.7482C9.21671 43.5724 11.4323 43.3475 11.4733 43.3565C11.4659 43.4157 11.5326 43.8277 11.2589 44.0349C11.0031 44.2285 10.5462 44.2229 10.2617 44.1551C10.1446 44.1268 10.0107 44.079 9.86003 44.0108L9.71123 44.473C10.0133 44.5852 10.3016 44.6771 10.6219 44.6771C11.5297 44.6771 11.9496 44.2198 11.9496 43.4466V43.3565C19.7223 43.3072 19.4926 43.4695 19.9662 43.2066C20.1467 43.1068 20.2925 42.9727 20.4036 42.8044C20.5189 42.9965 20.6755 43.1467 20.8739 43.2548C21.2905 43.4805 21.926 43.4594 22.312 43.2665C22.5122 43.1667 22.6662 43.0127 22.7733 42.8044C22.9571 43.1215 23.2424 43.3253 23.8153 43.3509V43.3565H25.1903V39.0491H24.714V42.8763ZM67.4486 42.6635C67.0272 43.6582 65.5765 43.6869 65.1566 42.6484C65.0331 42.3437 65.0331 41.9825 65.1566 41.6733C65.6649 40.4009 67.5471 40.7663 67.5471 42.1625C67.5471 42.3422 67.5143 42.5094 67.4486 42.6635ZM62.8287 42.6635C62.4644 43.5185 61.3665 43.6451 60.7925 43.0477C60.3215 42.5558 60.3353 41.7546 60.7899 41.2714C61.1602 40.874 61.7312 40.81 62.1679 40.9919C62.8563 41.2819 63.0857 42.0605 62.8287 42.6635ZM51.2461 42.8763C50.8818 42.865 50.6177 42.9132 50.2724 42.7987C49.0182 42.3825 49.3173 40.5779 50.7755 40.5779H51.2461V42.8763ZM69.5114 42.8763H67.8745C68.3855 41.7437 67.5919 40.416 66.2847 40.416C65.0809 40.416 64.2388 41.662 64.7307 42.8763H63.2542C63.7521 41.7768 62.9977 40.416 61.6648 40.416C60.4602 40.416 59.6189 41.6623 60.1108 42.8763H58.5985V39.0491H58.1223V42.8763H56.6045C56.5783 42.3833 56.7152 41.6537 56.3065 41.193C56.0294 40.8774 55.721 40.7791 55.3003 40.7791H53.1928L54.0894 39.0491H53.5714L52.6569 40.773C52.6864 40.9644 52.7438 41.1139 52.8714 41.2589C55.2533 41.2793 55.4088 41.2085 55.6904 41.3282C55.9112 41.4205 56.0458 41.5889 56.0924 41.7934C56.1491 42.0397 56.1204 42.2251 56.1282 42.8763H51.7224V40.0981H50.972C49.71 40.0981 49.0074 40.8563 49.0074 41.7301C49.0074 42.8251 49.8793 43.3565 50.972 43.3565H60.4203C61.1211 44.1189 62.3007 44.0541 62.9447 43.3565H65.0402C65.7387 44.1166 66.9172 44.0568 67.565 43.3565H69.988V39.0491H69.5114V42.8763ZM71.3749 43.3565H71.8512V39.0491H71.3749V43.3565ZM36.2825 44.4135H36.7718V43.9204H36.2825V44.4135ZM40.9389 42.8763L40.1946 41.0341C40.9583 40.3809 41.9119 40.4913 42.5344 41.0341L41.7903 42.8763H40.9389ZM44.3144 42.8763H42.2905L43.1236 40.8661C42.6496 40.4465 41.9891 40.0559 41.3615 40.0559C40.7182 40.0559 40.0745 40.4337 39.599 40.8661L40.4385 42.8763H38.6648V40.0981H38.1882V43.4586C38.1882 43.8831 38.1576 44.1969 37.7358 44.1969C37.6377 44.1969 37.5859 44.1882 37.4919 44.1607L37.367 44.6233C37.7649 44.7332 38.2348 44.6963 38.4682 44.3498C38.6793 44.036 38.6543 43.6029 38.6648 43.3565H44.791V39.0491H44.3144V42.8763ZM8.15721 40.518C7.62764 39.9342 7.01453 40.1459 6.80569 40.0981V40.5779C7.15327 40.5915 7.314 40.5391 7.5497 40.6529C7.7481 40.7493 7.88832 40.9049 7.94575 41.1241C8.01027 41.3761 7.9741 41.5727 7.98454 42.8763H5.75178V43.3565H8.46078C8.44101 41.5373 8.51 41.3444 8.38619 40.938C8.33659 40.7742 8.26014 40.6341 8.15721 40.518ZM34.5412 44.4191H35.0305V43.9261H34.5412V44.4191ZM31.6454 42.8763C31.2818 42.865 31.0174 42.9132 30.6717 42.7987C29.416 42.3821 29.7184 40.5779 31.1748 40.5779H31.6454V42.8763ZM36.7654 40.0981H36.2892V42.8763H34.4913V40.0981H34.015V42.8763H32.1216V40.0981C31.5227 40.1169 30.6292 39.9757 29.9426 40.5629C28.9692 41.3957 29.2202 43.3565 31.3717 43.3565H36.7654V40.0981ZM33.707 44.4191H34.1963V43.9261H33.707V44.4191ZM1.87885 39.0491H1.38956V39.5421H1.87885V39.0491ZM50.8859 39.0491H50.3966V39.5421H50.8859V39.0491ZM32.1194 39.0491H31.6301V39.5421H32.1194V39.0491ZM4.68854 44.4191H5.17783V43.9261H4.68854V44.4191ZM31.2851 39.0491H30.7959V39.5421H31.2851V39.0491ZM2.7131 39.0491H2.22381V39.5421H2.7131V39.0491ZM3.85428 44.4191H4.34357V43.9261H3.85428V44.4191ZM2.2391 42.8763C1.87624 42.865 1.61033 42.9132 1.26574 42.7987C0.0123062 42.3836 0.308417 40.5779 1.76883 40.5779H2.2391V42.8763ZM5.08497 40.0981H4.60873V42.8763H2.71534V40.0981C2.14438 40.1158 1.69051 40.0404 1.15535 40.2209C0.706711 40.373 0.340116 40.6529 0.140223 41.0823C-0.0678748 41.529 -0.0302083 42.0978 0.16148 42.4624C0.506445 43.12 1.22807 43.3565 1.96499 43.3565H5.08497V40.0981ZM46.1779 43.3565H46.6542V39.0491H46.1779V43.3565ZM51.7197 39.0491H51.2305V39.5421H51.7197V39.0491Z" fill="white"/>
<path d="M0.466797 46.5112H1.06461V48.2356L2.68278 46.5112H3.41671L2.00254 47.9859L3.47974 49.9403H2.75587L1.59455 48.3972L1.06461 48.946V49.9403H0.466797" fill="white"/>
<rect x="4.02509" y="46.5115" width="0.597815" height="3.42911" fill="white"/>
<path d="M5.54318 46.5112H6.09736L7.9199 48.8823V46.5112H8.50764V49.9403H8.00716L6.1313 47.5007V49.9403H5.54318" fill="white"/>
<path d="M9.24805 48.2356V48.2258C9.24805 47.2657 9.97713 46.4521 11.0023 46.4521C11.5953 46.4521 11.96 46.619 12.3098 46.9177L11.9309 47.3735C11.0098 46.5832 9.87532 47.1524 9.87532 48.216V48.2258C9.87532 48.9313 10.3366 49.4504 11.0314 49.4504C11.3525 49.4504 11.6442 49.3475 11.853 49.1908V48.549H10.9829V48.0251H12.4314V49.465C11.2149 50.5148 9.24805 49.9754 9.24805 48.2356Z" fill="white"/>
<path d="M14.5254 49.3918C16.1119 49.3918 16.0929 47.0599 14.5254 47.0599H13.8549V49.3918H14.5254ZM13.2571 46.5115H14.5254C16.9525 46.5115 16.9197 49.9406 14.5254 49.9406H13.2571V46.5115Z" fill="white"/>
<path d="M19.8237 48.2356V48.2258C19.8237 47.5595 19.3427 47.0062 18.6669 47.0062C17.9915 47.0062 17.5201 47.5497 17.5201 48.216V48.2258C17.5201 48.8921 18.0012 49.4458 18.6766 49.4458C19.3524 49.4458 19.8237 48.9019 19.8237 48.2356ZM16.8932 48.2356V48.2258C16.8932 47.2608 17.632 46.4521 18.6766 46.4521C19.7216 46.4521 20.4506 47.251 20.4506 48.216V48.2258C20.4506 49.1908 19.7122 49.9991 18.6669 49.9991C17.6223 49.9991 16.8932 49.2006 16.8932 48.2356Z" fill="white"/>
<path d="M21.1931 46.5112H21.8297L22.8649 48.1327L23.8998 46.5112H24.5364V49.9403H23.9386V47.4811L22.8649 49.0977H22.8455L21.7812 47.4909V49.9403H21.1931" fill="white"/>
<path d="M29.651 48.2356V48.2258C29.651 47.5595 29.1699 47.0062 28.4941 47.0062C27.8187 47.0062 27.3473 47.5497 27.3473 48.216V48.2258C27.3473 48.8921 27.8284 49.4458 28.5038 49.4458C29.1796 49.4458 29.651 48.9019 29.651 48.2356ZM26.7204 48.2356V48.2258C26.7204 47.2608 27.4592 46.4521 28.5038 46.4521C29.5488 46.4521 30.2779 47.251 30.2779 48.216V48.2258C30.2779 49.1908 29.5391 49.9991 28.4941 49.9991C27.4495 49.9991 26.7204 49.2006 26.7204 48.2356Z" fill="white"/>
<path d="M31.0206 46.5112H33.5525V47.06H31.6184V47.9956H33.3339V48.5441H31.6184V49.9403H31.0206" fill="white"/>
<path d="M35.4393 49.441L35.7988 49.0098C36.1244 49.2941 36.4499 49.4557 36.8728 49.4557C37.242 49.4557 37.4755 49.2843 37.4755 49.0244V49.015C37.4755 48.2489 35.575 48.7717 35.575 47.4666V47.4568C35.575 46.4044 37.0336 46.1358 37.9711 46.8937L37.6504 47.3491C36.868 46.7611 36.1732 46.9924 36.1732 47.4033V47.4131C36.1732 48.1683 38.0733 47.6907 38.0733 48.9559V48.9657C38.0733 50.168 36.3854 50.2919 35.4393 49.441Z" fill="white"/>
<path d="M40.7607 48.5788L40.1726 47.207L39.5893 48.5788H40.7607ZM39.9052 46.4868H40.459L41.9559 49.9404H41.3242L40.9792 49.1125H39.3704L39.0209 49.9404H38.4082L39.9052 46.4868Z" fill="white"/>
<path d="M42.3076 48.4859V46.5115H42.9054V48.4614C42.9054 49.0984 43.231 49.4411 43.7654 49.4411C44.2954 49.4411 44.6209 49.118 44.6209 48.4859V46.5115H45.2188V48.4565C45.2188 49.4803 44.6452 49.9948 43.7557 49.9948C42.8711 49.9948 42.3076 49.4803 42.3076 48.4859Z" fill="white"/>
<path d="M47.362 49.3918C48.9485 49.3918 48.9298 47.0599 47.362 47.0599H46.6915V49.3918H47.362ZM46.0937 46.5115H47.362C49.7891 46.5115 49.7563 49.9406 47.362 49.9406H46.0937V46.5115Z" fill="white"/>
<rect x="49.9271" y="46.5115" width="0.597814" height="3.42911" fill="white"/>
<path d="M54.9531 48.5788L54.365 47.207L53.7817 48.5788H54.9531ZM54.0976 46.4868H54.6514L56.1483 49.9404H55.5166L55.1716 49.1125H53.5628L53.2133 49.9404H52.6006L54.0976 46.4868Z" fill="white"/>
<path d="M58.1857 48.2113C58.6135 48.2113 58.8857 47.9861 58.8857 47.6381V47.6283C58.8857 47.261 58.6231 47.0599 58.1808 47.0599H57.3112V48.2113H58.1857ZM56.7133 46.5115H58.2293C58.9483 46.5115 59.4932 46.8765 59.4932 47.594C59.4794 47.6317 59.5641 48.388 58.6813 48.6426L59.5999 49.9406H58.895L58.0593 48.7451H57.3112V49.9406H56.7133V46.5115Z" fill="white"/>
<path d="M62.392 48.5788L61.8039 47.207L61.2206 48.5788H62.392ZM61.5365 46.4868H62.0907L63.5873 49.9404H62.9555L62.6106 49.1125H61.0017L60.6523 49.9404H60.0396L61.5365 46.4868Z" fill="white"/>
<path d="M65.7313 49.4069C66.1397 49.4069 66.3873 49.2449 66.3873 48.9364V48.9266C66.3873 48.6377 66.1591 48.466 65.6877 48.466H64.74V49.4069H65.7313ZM65.5564 47.9567C65.9401 47.9567 66.1978 47.8049 66.1978 47.4912V47.4814C66.1978 47.2121 65.9842 47.0456 65.6 47.0456H64.74V47.9567H65.5564ZM64.1519 46.5115H65.678C66.2762 46.5115 66.7957 46.794 66.7957 47.3834C66.7819 47.4211 66.8568 47.8708 66.3097 48.1575C66.7084 48.2946 66.9851 48.5251 66.9851 48.9903V49.0001C66.9851 49.6125 66.4846 49.9406 65.7264 49.9406H64.1519V46.5115Z" fill="white"/>
<rect x="67.7254" y="46.5115" width="0.597814" height="3.42911" fill="white"/>
<path d="M71.2463 48.5788L70.6581 47.207L70.0749 48.5788H71.2463ZM70.3907 46.4868H70.9445L72.4415 49.9404H71.8098L71.4648 49.1125H69.8559L69.5065 49.9404H68.8938L70.3907 46.4868Z" fill="white"/>
</g>
</svg>
