<?xml version="1.0" encoding="UTF-8"?>
<svg id="Layer_2" data-name="Layer 2" xmlns="http://www.w3.org/2000/svg" xmlns:xlink="http://www.w3.org/1999/xlink" viewBox="0 0 360.1 190.7">
  <defs>
    <style>
      .cls-1 {
        fill: url(#linear-gradient-12);
      }

      .cls-1, .cls-2, .cls-3, .cls-4, .cls-5, .cls-6, .cls-7, .cls-8, .cls-9, .cls-10, .cls-11, .cls-12, .cls-13 {
        stroke-width: 0px;
      }

      .cls-2 {
        fill: url(#linear-gradient);
      }

      .cls-3 {
        fill: url(#linear-gradient-6);
      }

      .cls-4 {
        fill: url(#linear-gradient-11);
      }

      .cls-5 {
        fill: url(#linear-gradient-5);
      }

      .cls-6 {
        fill: url(#linear-gradient-2);
      }

      .cls-7 {
        fill: url(#linear-gradient-7);
      }

      .cls-8 {
        fill: url(#linear-gradient-3);
      }

      .cls-9 {
        fill: url(#linear-gradient-9);
      }

      .cls-10 {
        fill: url(#linear-gradient-8);
      }

      .cls-11 {
        fill: #26426b;
      }

      .cls-12 {
        fill: url(#linear-gradient-10);
      }

      .cls-13 {
        fill: url(#linear-gradient-4);
      }
    </style>
    <linearGradient id="linear-gradient" x1="286.16" y1="13983.29" x2="295.06" y2="14065.65" gradientTransform="translate(0 14159.4) scale(1 -1)" gradientUnits="userSpaceOnUse">
      <stop offset="0" stop-color="#7772ae"/>
      <stop offset="1" stop-color="#443863"/>
    </linearGradient>
    <linearGradient id="linear-gradient-2" x1="263.45" y1="13982.34" x2="272.86" y2="14069.59" xlink:href="#linear-gradient"/>
    <linearGradient id="linear-gradient-3" x1="282.84" y1="14036.91" x2="339.01" y2="14036.91" gradientTransform="translate(0 14159.4) scale(1 -1)" gradientUnits="userSpaceOnUse">
      <stop offset="0" stop-color="#5d7f68"/>
      <stop offset="1" stop-color="#86c3a2"/>
    </linearGradient>
    <linearGradient id="linear-gradient-4" x1="286.71" y1="14076.45" x2="343.03" y2="14076.45" gradientTransform="translate(0 14159.4) scale(1 -1)" gradientUnits="userSpaceOnUse">
      <stop offset="0" stop-color="#96a8ab"/>
      <stop offset="1" stop-color="#cce5e8"/>
    </linearGradient>
    <linearGradient id="linear-gradient-5" x1="290.45" y1="14075.8" x2="289.29" y2="14120.59" gradientTransform="translate(0 14159.4) scale(1 -1)" gradientUnits="userSpaceOnUse">
      <stop offset="0" stop-color="#507f96"/>
      <stop offset=".7" stop-color="#87c4e2"/>
    </linearGradient>
    <linearGradient id="linear-gradient-6" x1="283.3" y1="14054.88" x2="194.81" y2="14148.04" gradientTransform="translate(0 14159.4) scale(1 -1)" gradientUnits="userSpaceOnUse">
      <stop offset="0" stop-color="#38716e"/>
      <stop offset="0" stop-color="#397471"/>
      <stop offset="0" stop-color="#498d88"/>
      <stop offset=".3" stop-color="#55a19b"/>
      <stop offset=".4" stop-color="#5eb0a8"/>
      <stop offset=".6" stop-color="#63b7b0"/>
      <stop offset=".9" stop-color="#65bab3"/>
    </linearGradient>
    <linearGradient id="linear-gradient-7" x1="272.03" y1="14077.63" x2="178.95" y2="14006.87" gradientTransform="translate(0 14159.4) scale(1 -1)" gradientUnits="userSpaceOnUse">
      <stop offset="0" stop-color="#808845"/>
      <stop offset="0" stop-color="#838e4a"/>
      <stop offset=".2" stop-color="#97a75f"/>
      <stop offset=".3" stop-color="#a7bb6f"/>
      <stop offset=".5" stop-color="#b2ca7b"/>
      <stop offset=".7" stop-color="#b8d281"/>
      <stop offset=".9" stop-color="#bbd584"/>
    </linearGradient>
    <linearGradient id="linear-gradient-8" x1="281.31" y1="14060.91" x2="194.86" y2="13995.25" xlink:href="#linear-gradient-7"/>
    <linearGradient id="linear-gradient-9" x1="263.83" y1="14041.17" x2="182.71" y2="14126.6" xlink:href="#linear-gradient-6"/>
    <linearGradient id="linear-gradient-10" x1="267.81" y1="14076.52" x2="266.71" y2="14118.76" xlink:href="#linear-gradient-5"/>
    <linearGradient id="linear-gradient-11" x1="309.03" y1="14040.27" x2="360.1" y2="14040.27" xlink:href="#linear-gradient-3"/>
    <linearGradient id="linear-gradient-12" x1="306.77" y1="14101.11" x2="359.59" y2="14101.11" xlink:href="#linear-gradient-4"/>
  </defs>
  <g id="Layer_1-2" data-name="Layer 1">
    <g>
      <path class="cls-2" d="m282.84,129.57l12.69,7.51-.29,30.79c0,9.34-4.96,17.95-12.99,22.83h0l.58-61.13Z"/>
      <path class="cls-6" d="m273.36,104.83l-12.69,7.51.36,39.54c0,6.2,3.28,11.82,8.54,15.1l4.45,2.7-.58-64.86h-.07Z"/>
      <path class="cls-8" d="m282.84,103.52v14.81l37.5,21.67c3.36,1.9,7.37,1.97,10.8.15l7.88-4.23-56.17-32.39h0Z"/>
      <path class="cls-13" d="m286.71,95.35l12.77,7.44,35.24-20.14c4.81-2.77,7.88-7.81,8.1-13.35l.22-6.2-56.32,32.17h0v.07Z"/>
      <path class="cls-5" d="m283.5,87.11l12.84-7.37v-40.64c0-5.47-2.7-10.65-7.37-13.57l-5.33-3.36v64.86h-.15v.07Z"/>
      <path class="cls-3" d="m273.5,88.64v-14.81l-34.51-20.35c-4.96-2.92-11.16-3.06-16.27-.44l-5.11,2.7,55.88,32.9h0Z"/>
      <path class="cls-7" d="m268.83,96.3l-12.77-7.44-35.31,19.99c-4.81,2.7-7.88,7.73-8.1,13.28l-.29,6.2,56.39-32.03h.07Z"/>
      <path class="cls-10" d="m250.67,117.16l1.09,14.74-25.68,15.25c-7.73,5.25-17.73,6.2-26.34,2.33h0l50.92-32.32h0Z"/>
      <path class="cls-9" d="m246.58,81.42l-12.55,7.88-30.35-17c-4.96-2.63-8.24-7.59-8.61-13.13l-.44-6.06,51.94,28.38h0v-.07Z"/>
      <path class="cls-12" d="m272.33,61.13l-12.69-7.51.44-36.18c0-5.98,3.21-11.53,8.32-14.59l4.67-2.85-.66,61.21h0l-.07-.07Z"/>
      <path class="cls-4" d="m309.03,107.97l12.84-7.37,28.45,16.56c5.76,3.36,9.41,9.48,9.63,16.2l.15,4.3-51.07-29.76h0v.07Z"/>
      <path class="cls-1" d="m306.77,74.92l.15-14.81,31.81-16.41c4.74-2.7,10.51-2.7,15.25-.15l5.62,3.06-52.82,28.23h0v.07Z"/>
      <g>
        <path class="cls-11" d="m.07,47.64c0-.51.22-.73.73-.73h6.86c.58,0,.95.22,1.24.73l20.72,35.16h.29v-35.16c0-.51.22-.73.73-.73h6.49c.51,0,.73.22.73.73v49.46c0,.51-.22.73-.73.73h-6.78c-.58,0-.95-.22-1.24-.73L8.24,62.01h-.29v35.09c0,.51-.22.73-.73.73H.73c-.51,0-.73-.22-.73-.73v-49.46h.07Z"/>
        <path class="cls-11" d="m49.17,86.16c-.22-.8-.44-1.6-.66-2.33-.15-.8-.29-1.68-.44-2.7-.07-1.02-.15-2.26-.22-3.57,0-1.39-.07-3.06-.07-5.11s0-3.72.07-5.11c0-1.39.15-2.63.22-3.65.07-1.02.22-1.9.44-2.7.15-.8.36-1.53.66-2.33,1.31-4.23,3.5-7.37,6.57-9.41s6.78-3.14,11.16-3.14,7.66.95,10.58,2.92c2.99,1.97,5.18,4.67,6.64,8.1.15.44,0,.73-.36.88l-6.35,3.06c-.44.22-.8.15-.95-.36-.88-1.82-2.04-3.36-3.5-4.67s-3.5-1.97-6.06-1.97-4.38.58-5.91,1.82c-1.46,1.17-2.55,2.85-3.28,4.96-.15.58-.29,1.09-.44,1.68s-.22,1.24-.29,2.12c-.07.88-.15,1.9-.15,3.21v9.34c0,1.24.07,2.26.15,3.14.07.88.15,1.6.29,2.19.15.58.29,1.09.44,1.6.73,2.12,1.75,3.72,3.28,4.96,1.46,1.17,3.43,1.82,5.91,1.82s4.52-.66,6.06-1.97c1.46-1.31,2.63-2.85,3.5-4.67.22-.51.51-.66.95-.36l6.35,3.06c.36.15.51.44.36.88-1.46,3.43-3.65,6.13-6.64,8.1s-6.49,2.92-10.58,2.92-8.02-1.02-11.16-3.14c-3.06-2.04-5.25-5.18-6.57-9.41v-.15Z"/>
        <path class="cls-11" d="m92.21,86.38c-.22-.8-.44-1.6-.66-2.41-.15-.8-.29-1.75-.44-2.77-.07-1.02-.15-2.26-.22-3.72,0-1.46-.07-3.14-.07-5.11s0-3.72.07-5.11c0-1.46.15-2.7.22-3.72.07-1.02.22-1.97.44-2.77.15-.8.36-1.6.66-2.41,1.31-4.09,3.5-7.15,6.64-9.19,3.14-2.04,7-3.14,11.53-3.14s4.6.29,6.49.88c1.97.58,3.65,1.39,5.18,2.41,1.53.95,2.77,2.12,3.72,3.5,1.02,1.31,1.75,2.7,2.33,4.09.22.44.07.8-.29,1.02l-6.27,2.77c-.44.15-.8,0-.95-.36-1.17-2.04-2.55-3.57-4.09-4.67-1.6-1.09-3.65-1.6-6.13-1.6s-4.67.58-6.2,1.75-2.7,2.77-3.36,4.89c-.15.44-.29.95-.44,1.6-.15.58-.22,1.31-.29,2.26-.07.88-.15,1.97-.15,3.28v9.19c0,1.24.07,2.33.15,3.28.07.88.15,1.68.29,2.26.15.58.29,1.09.44,1.6.73,2.12,1.82,3.72,3.36,4.89s3.65,1.75,6.2,1.75,4.23-.51,5.98-1.6c1.75-1.09,2.99-2.63,3.65-4.74.22-.8.44-1.75.58-2.77.15-1.09.22-2.33.22-3.79s-.15-.44-.44-.44h-8.39c-.51,0-.73-.22-.73-.73v-5.98c0-.51.22-.73.73-.73h16.85c.51,0,.73.22.73.73v4.45c0,2.12-.07,4.16-.29,6.2s-.51,3.65-.88,4.96c-1.24,4.01-3.43,7.08-6.64,9.27-3.14,2.19-6.93,3.28-11.38,3.28s-8.39-1.02-11.53-3.14c-3.14-2.04-5.4-5.11-6.64-9.19v-.22Z"/>
        <path class="cls-11" d="m168.3,97.83c-.58,0-.95-.22-1.09-.73l-9.78-19.84h-8.75c-.29,0-.44.15-.44.44v19.41c0,.51-.22.73-.73.73h-7.37c-.51,0-.73-.22-.73-.73v-49.54c0-.51.22-.73.73-.73h19.7c2.33,0,4.52.36,6.49,1.09,1.97.73,3.65,1.82,5.11,3.14s2.55,2.92,3.43,4.81c.8,1.9,1.24,3.94,1.24,6.2,0,3.36-.88,6.27-2.63,8.68-1.75,2.48-4.09,4.23-7.08,5.33l10.72,20.79c.15.22.15.51,0,.66-.15.22-.29.29-.58.29h-8.32.07Zm-8.83-28.6c2.33,0,4.23-.66,5.69-1.97,1.46-1.31,2.12-3.06,2.12-5.25s-.73-4.01-2.12-5.33c-1.46-1.31-3.28-1.97-5.69-1.97h-10.87c-.29,0-.44.15-.44.44v13.5c0,.29.15.44.44.44h10.87v.15Z"/>
      </g>
      <g>
        <path class="cls-11" d="m8.54,128.18c-.8,0-1.46-.07-2.04-.29-.58-.22-1.09-.58-1.53-1.02-.15.22-.29.36-.44.44s-.36.22-.51.29c-.15.15-.29.29-.44.44-.15.22-.15.44-.15.8v3.87H.8v-4.3c0-.51,0-.88.22-1.24.15-.29.29-.58.51-.8.22-.22.44-.36.66-.51s.44-.29.66-.44c.22-.15.36-.29.58-.51.15-.15.29-.44.29-.73v-1.02c0-.95.15-1.75.36-2.41.22-.66.58-1.17,1.02-1.6.44-.44.95-.73,1.53-.88.58-.22,1.24-.29,1.9-.29s1.31.07,1.9.29c.58.22,1.09.51,1.53.88.44.44.8.95,1.02,1.6s.36,1.46.36,2.41,0,.29,0,.44v.36c0,.66.22,1.09.51,1.39.29.29.58.44.95.44h.66c.29,0,.58.07.73.22s.22.44.22.88-.07.73-.22.95c-.15.15-.36.22-.73.22h-.8c-.29,0-.58,0-.88-.15-.29-.07-.58-.22-.8-.36-.29-.15-.51-.36-.73-.73-.44.51-.95.88-1.6,1.09-.66.22-1.39.29-2.12.29h0Zm0-7.88c-.73,0-1.31.22-1.68.73s-.58,1.17-.58,2.12.22,1.68.58,2.12c.36.44.95.66,1.68.66s1.31-.22,1.68-.66c.36-.44.51-1.17.51-2.12,0-1.9-.73-2.77-2.19-2.77v-.07Z"/>
        <path class="cls-11" d="m20.57,119.28c.73-.36,1.6-.66,2.48-.95.88-.22,1.82-.36,2.77-.36s1.9.15,2.63.36c.73.29,1.31.66,1.75,1.09.44.51.8,1.09,1.02,1.75s.29,1.46.29,2.26,0,.29,0,.44v.36c0,.44.22.8.51,1.09.36.22.8.36,1.39.36h.36c.29,0,.58.07.73.29.15.15.22.44.22.88s-.07.73-.22.95c-.15.15-.36.29-.73.29-.66,0-1.24-.07-1.75-.29-.51-.22-.88-.58-1.09-1.17-.15.36-.36.58-.66.8-.22.22-.51.36-.88.44s-.73.15-1.17.22h-7.73c-.51,0-.88-.15-1.02-.36-.29.22-.58.29-.95.36h-3.06c-.29,0-.58-.07-.73-.22s-.22-.44-.22-.88.07-.8.22-.95c.15-.15.36-.22.73-.22h1.17c.29,0,.51,0,.66-.15.15-.07.29-.22.36-.44s.15-.51.15-.88v-11.82c0-.15.07-.22.22-.22h2.19c.15,0,.22.07.22.22v6.78l.15-.07Zm4.89,1.02c-.88,0-1.75.15-2.63.36-.88.29-1.6.51-2.26.88v4.16h6.78c.44,0,.73-.07.95-.22s.36-.36.44-.73.15-.73.15-1.31,0-.95-.15-1.31-.29-.73-.51-.95c-.29-.29-.58-.44-1.02-.58s-.95-.22-1.6-.22l-.15-.07Zm-.73-4.23c-.15,0-.22-.07-.22-.22v-2.04c0-.15.07-.22.22-.22h2.26c.15,0,.22.07.22.22v2.04c0,.15-.07.22-.22.22h-2.26Z"/>
        <path class="cls-11" d="m38.81,124.31c0,.44.15.8.51,1.09.36.22.8.36,1.46.36h.36c.29,0,.58.07.73.29.15.15.22.44.22.88s-.07.73-.22.95c-.15.15-.36.29-.73.29-.58,0-1.17-.07-1.6-.22s-.8-.44-1.09-.95c-.22.44-.51.73-.95.95-.44.15-1.02.29-1.75.29h-1.82c-.29,0-.58,0-.73-.15-.15-.07-.22-.29-.22-.66s.07-.73.22-1.02c.15-.29.36-.44.73-.44h1.09c.29,0,.51,0,.66-.15.15-.07.29-.22.36-.36,0-.15.15-.36.15-.66v-5.91c0-.15.07-.22.22-.22h2.19c.15,0,.22.07.22.22v5.62-.22Zm-2.41-8.24c-.15,0-.22-.07-.22-.22v-2.04c0-.15.07-.22.22-.22h2.26c.15,0,.22.07.22.22v2.04c0,.15-.07.22-.22.22h-2.26Z"/>
        <path class="cls-11" d="m41.07,128.03c-.29,0-.58-.07-.73-.22s-.22-.44-.22-.88.07-.73.22-.95c.15-.15.36-.29.73-.29h1.17c.36,0,.66-.07.88-.29.15-.15.29-.51.29-.95v-11.96c0-.15.07-.22.22-.22h2.19c.15,0,.22.07.22.22v12.62c0,1.02-.22,1.75-.66,2.19s-1.09.73-2.12.73h-2.19Z"/>
        <path class="cls-11" d="m65,130.37c.95,0,1.6-.15,1.9-.36.36-.22.51-.51.51-.88s-.07-.58-.29-.73c-.15-.22-.44-.44-.88-.58-.36-.22-.88-.36-1.46-.58s-1.31-.44-2.12-.73c-.15,0-.22-.15-.15-.29l.66-1.82c0-.15.15-.22.29-.15.51.22.95.36,1.46.58.44.22.88.36,1.31.51.44.15.88.29,1.31.36.44.07.88.15,1.31.15h2.33c.29,0,.58.07.73.22s.22.44.22.88-.07.8-.22.95c-.15.22-.36.29-.73.29h-1.6l.29.58c.15.29.15.58.15.88s-.07.88-.29,1.24c-.15.36-.44.73-.8,1.02s-.88.51-1.46.73-1.31.29-2.12.29h-5.33c-2.04,0-3.57-.44-4.52-1.39-1.02-.95-1.46-2.19-1.46-3.79s0-.88.15-1.31c.07-.44.22-.88.36-1.24.15-.44.29-.8.51-1.17.15-.36.36-.66.58-.95.07-.15.22-.15.36,0l1.82.95c.15.07.15.15,0,.29-.29.44-.51.95-.73,1.53s-.36,1.17-.36,1.75.07,1.09.29,1.46.51.73.8.95c.36.22.73.36,1.17.51.44.07.88.15,1.31.15h4.6l.07-.29Zm-5.25,6.42c-.15,0-.22-.07-.22-.22v-2.04c0-.15.07-.22.22-.22h1.97c.15,0,.22.07.22.22v2.04c0,.15-.07.22-.22.22h-1.97Zm3.06,0c-.15,0-.22-.07-.22-.22v-2.04c0-.15.07-.22.22-.22h1.97c.15,0,.22.07.22.22v2.04c0,.15-.07.22-.22.22h-1.97Z"/>
        <path class="cls-11" d="m76.31,124.31c0,.44.15.8.51,1.09.36.22.8.36,1.46.36h.36c.29,0,.58.07.73.29.15.15.22.44.22.88s-.07.73-.22.95c-.15.15-.36.29-.73.29-.58,0-1.17-.07-1.6-.22s-.8-.44-1.09-.95c-.22.44-.51.73-.95.95-.44.15-1.02.29-1.75.29h-1.82c-.29,0-.58,0-.73-.15-.15-.07-.22-.29-.22-.66s.07-.73.22-1.02c.15-.29.36-.44.73-.44h1.09c.29,0,.51,0,.66-.15.15-.07.29-.22.36-.36,0-.15.15-.36.15-.66v-5.91c0-.15.07-.22.22-.22h2.19c.15,0,.22.07.22.22v5.62-.22Zm-2.41-8.24c-.15,0-.22-.07-.22-.22v-2.04c0-.15.07-.22.22-.22h2.26c.15,0,.22.07.22.22v2.04c0,.15-.07.22-.22.22h-2.26Z"/>
        <path class="cls-11" d="m83.6,119.28c.73-.36,1.6-.66,2.48-.95.88-.22,1.82-.36,2.77-.36s1.9.15,2.63.36,1.31.66,1.75,1.09c.44.51.8,1.09,1.02,1.75s.29,1.46.29,2.26-.07,1.75-.29,2.33c-.15.58-.44,1.02-.8,1.39s-.88.51-1.46.66c-.58.07-1.31.15-2.19.15h-6.2c-.51,0-.88-.15-1.02-.36-.22.15-.51.29-.88.29h-3.14c-.29,0-.58-.07-.73-.22s-.22-.44-.22-.88.07-.8.22-.95.36-.22.73-.22h1.24c.29,0,.51,0,.66-.15.15-.07.29-.22.36-.44s.15-.51.15-.88v-11.75c0-.15.07-.22.22-.22h2.19c.15,0,.22.07.22.22v6.86Zm4.89,1.02c-.88,0-1.75.15-2.63.36-.88.29-1.6.51-2.26.88v4.16h6.78c.44,0,.73-.07.95-.22s.36-.36.44-.73.15-.73.15-1.31,0-.95-.15-1.31c-.07-.36-.29-.73-.51-.95-.29-.29-.58-.44-1.02-.58s-.95-.22-1.6-.22l-.15-.07Z"/>
        <path class="cls-11" d="m99.14,132.7c-.15,0-.22-.07-.22-.22v-1.82c0-.15.07-.22.22-.22h2.77c.36,0,.66,0,.95-.07s.51-.22.66-.36.29-.44.36-.73.15-.73.15-1.17h-2.41c-.73,0-1.39-.07-1.97-.22-.58-.15-1.02-.44-1.46-.8-.36-.36-.73-.88-.88-1.46-.22-.58-.29-1.31-.29-2.26s.15-1.75.36-2.41c.29-.66.66-1.24,1.09-1.68s.95-.73,1.53-.95c.58-.22,1.17-.29,1.82-.29s1.39.07,1.97.29c.58.22,1.09.51,1.53.88s.73.95,1.02,1.6.36,1.46.36,2.41v2.63h1.6c.29,0,.58.07.73.29.15.15.22.44.22.88s-.07.8-.22.95c-.15.15-.36.22-.73.22h-1.6v.51c0,1.46-.36,2.48-1.09,3.21-.73.66-1.82,1.02-3.21,1.02h-3.21l-.07-.22Zm2.7-12.4c-.73,0-1.24.29-1.68.8-.36.51-.58,1.24-.58,2.12s.22,1.6.58,1.97.95.51,1.75.51h2.12v-2.63c0-.88-.15-1.6-.51-2.04s-.88-.73-1.68-.73h0Z"/>
        <path class="cls-11" d="m108.26,128.03c-.29,0-.58-.07-.73-.22s-.22-.44-.22-.88.07-.73.22-.95c.15-.15.36-.29.73-.29h1.17c.36,0,.66-.07.88-.29.15-.15.29-.51.29-.95v-11.96c0-.15.07-.22.22-.22h2.19c.15,0,.22.07.22.22v12.62c0,1.02-.22,1.75-.66,2.19s-1.09.73-2.12.73h-2.19Z"/>
        <path class="cls-11" d="m118.91,127.81c0,.15-.07.22-.22.22h-2.19c-.15,0-.22-.07-.22-.22v-15.32c0-.15.07-.22.22-.22h2.19c.15,0,.22.07.22.22v15.32Z"/>
        <path class="cls-11" d="m128.62,118.62c0-.15.07-.22.22-.22h2.19c.15,0,.22.07.22.22v5.62c0,.44.15.8.51,1.09.36.22.8.36,1.46.36h.36c.29,0,.58.07.73.29.15.15.22.44.22.88s-.07.73-.22.95c-.15.15-.36.29-.73.29-.51,0-1.02,0-1.39-.15-.36-.07-.73-.29-.95-.66v.44c0,.8,0,1.6-.22,2.19-.15.66-.36,1.17-.66,1.53s-.73.73-1.24.95-1.17.29-1.97.29h-.88c-.15,0-.22-.07-.22-.22v-1.82c0-.15.07-.22.22-.22h.51c.44,0,.8-.07,1.09-.22.22-.15.44-.36.58-.66.15-.29.22-.66.22-1.09v-9.78l-.07-.07Zm.22-2.55c-.15,0-.22-.07-.22-.22v-2.04c0-.15.07-.22.22-.22h2.26c.15,0,.22.07.22.22v2.04c0,.15-.07.22-.22.22h-2.26Z"/>
        <path class="cls-11" d="m138.47,118.26c.8,0,1.6.07,2.26.15.66.07,1.24.29,1.75.58.51.29.88.73,1.09,1.31.29.58.36,1.31.36,2.26v1.39c0,.8,0,1.39-.22,1.9-.15.51-.36.88-.66,1.24-.29.29-.66.51-1.09.66s-.95.22-1.53.22h-6.93c-.29,0-.58-.07-.73-.29-.15-.15-.22-.51-.22-.95s.07-.73.22-.88c.15-.15.36-.22.73-.22h5.84c.44,0,.73,0,1.02-.07.22,0,.44-.15.58-.29.15-.15.22-.29.29-.58v-2.12c0-.73-.22-1.24-.58-1.53-.36-.36-1.02-.51-1.82-.51h-3.79c-.15,0-.22-.07-.22-.22v-1.6c0-.07,0-.22.15-.29s.15-.15.22-.29l5.11-5.91c.07-.07.22-.15.29,0l1.53,1.24c.15.07.15.22.07.29l-3.87,4.45.15.07Z"/>
        <path class="cls-11" d="m147.95,118.62c0-.15.07-.22.22-.22h2.19c.15,0,.22.07.22.22v5.62c0,.44.15.8.51,1.09.36.22.8.36,1.46.36h.36c.29,0,.58.07.73.29.15.15.22.44.22.88s-.07.73-.22.95c-.15.15-.36.29-.73.29-.51,0-1.02,0-1.39-.15-.36-.07-.73-.29-.95-.66v.44c0,.8,0,1.6-.22,2.19-.15.66-.36,1.17-.66,1.53s-.73.73-1.24.95-1.17.29-1.97.29h-.88c-.15,0-.22-.07-.22-.22v-1.82c0-.15.07-.22.22-.22h.51c.44,0,.8-.07,1.09-.22.22-.15.44-.36.58-.66.15-.29.22-.66.22-1.09v-9.78l-.07-.07Z"/>
        <path class="cls-11" d="m155.32,122.93c0-.88.15-1.68.36-2.26.22-.66.58-1.17,1.02-1.53s.95-.66,1.53-.88c.58-.15,1.24-.29,1.9-.29s1.31.07,1.97.29c.58.22,1.09.51,1.53.88s.8.95,1.02,1.6.36,1.46.36,2.41v.8c0,.66.15,1.09.44,1.39s.66.44,1.02.44h.66c.29,0,.58.07.73.29.15.15.22.44.22.88s-.07.73-.22.95c-.15.15-.36.29-.73.29h-.8c-.29,0-.58,0-.88-.15-.29-.07-.58-.22-.8-.36-.29-.15-.51-.36-.73-.66-.44.51-.95.88-1.6,1.09-.66.22-1.39.36-2.19.36s-1.46-.07-2.12-.29c-.66-.22-1.17-.58-1.6-1.02-.15.22-.36.44-.58.58s-.44.29-.66.36-.51.15-.73.15h-1.53c-.29,0-.58-.07-.73-.29-.15-.15-.22-.51-.22-.88s.07-.73.22-.95.36-.22.73-.22h.95c.36,0,.73-.15,1.02-.44.29-.29.44-.88.44-1.68v-.88Zm4.81-2.63c-.73,0-1.31.22-1.68.73s-.51,1.17-.51,2.04.15,1.68.51,2.12c.36.44.95.66,1.68.66s1.31-.22,1.68-.66c.36-.44.51-1.17.51-2.12,0-1.9-.73-2.77-2.19-2.77Z"/>
        <path class="cls-11" d="m167.06,128.03c-.29,0-.58-.07-.73-.22s-.22-.44-.22-.88.07-.73.22-.95c.15-.15.36-.29.73-.29h1.17c.36,0,.66-.07.88-.29.15-.15.29-.51.29-.95v-11.96c0-.15.07-.22.22-.22h2.19c.15,0,.22.07.22.22v12.62c0,1.02-.22,1.75-.66,2.19s-1.09.73-2.12.73h-2.19Z"/>
        <path class="cls-11" d="m177.71,127.81c0,.15-.07.22-.22.22h-2.19c-.15,0-.22-.07-.22-.22v-15.32c0-.15.07-.22.22-.22h2.19c.15,0,.22.07.22.22v15.32Z"/>
        <path class="cls-11" d="m8.02,144.45v-1.02c0-.15.07-.22.22-.22h2.19c.15,0,.22.07.22.22v7.51c0,.44.07.8.29.95.15.15.44.29.88.29h.88c.66,0,.95.36.95,1.17s-.07.8-.22.95c-.15.15-.36.22-.73.22h-1.9c-.8,0-1.39-.15-1.82-.36s-.73-.73-.88-1.39c-.36.29-.73.51-1.17.66s-.95.22-1.46.22-1.17-.07-1.75-.22-1.02-.44-1.39-.8-.73-.8-.95-1.39c-.22-.58-.36-1.24-.36-1.97s.15-1.68.36-2.26c.29-.58.58-1.09,1.02-1.46s.95-.66,1.46-.8c.58-.15,1.09-.22,1.75-.22h2.33l.07-.07Zm-4.52-2.77c-.15,0-.22-.07-.22-.22v-2.04c0-.15.07-.22.22-.22h1.97c.15,0,.22.07.22.22v2.04c0,.15-.07.22-.22.22h-1.97Zm2.26,9.56c.73,0,1.31-.22,1.68-.66s.51-1.02.51-1.82v-1.97h-2.12c-.66,0-1.24.15-1.6.51-.44.36-.58.95-.58,1.9s.22,1.24.58,1.6.88.51,1.53.51v-.07Zm.8-9.56c-.15,0-.22-.07-.22-.22v-2.04c0-.15.07-.22.22-.22h1.97c.15,0,.22.07.22.22v2.04c0,.15-.07.22-.22.22h-1.97Z"/>
        <path class="cls-11" d="m12.62,154.52c-.29,0-.51-.07-.66-.22-.15-.15-.15-.44-.15-.88s0-.8.15-.95.36-.29.66-.29h6.86c.29,0,.58.07.73.29.15.15.22.44.22.88s-.07.8-.22.95c-.15.15-.36.22-.73.22h-6.86Z"/>
        <path class="cls-11" d="m23.78,153.35c-.22.44-.58.73-1.02.95-.44.15-1.02.29-1.82.29h-2.19c-.29,0-.58-.07-.73-.22s-.22-.44-.22-.88.07-.8.22-.95c.15-.15.36-.29.73-.29h1.53c.29,0,.51,0,.66-.15.15-.07.29-.22.36-.36,0-.15.15-.44.15-.73v-5.84c0-.07,0-.15.15-.22h2.33c.15,0,.22.07.22.22v5.62c0,.44.15.8.51,1.09.36.22.8.36,1.46.36h.36c.29,0,.58.07.73.29.15.15.22.44.22.88s-.07.73-.22.95c-.15.15-.36.29-.73.29-.58,0-1.17-.07-1.6-.22s-.8-.44-1.09-.95v-.15Zm-3.65,5.62c-.15,0-.22-.07-.22-.22v-2.04c0-.15.07-.22.22-.22h1.97c.15,0,.22.07.22.22v2.04c0,.15-.07.22-.22.22h-1.97Zm3.06,0c-.15,0-.22-.07-.22-.22v-2.04c0-.15.07-.22.22-.22h1.97c.15,0,.22.07.22.22v2.04c0,.15-.07.22-.22.22h-1.97Z"/>
        <path class="cls-11" d="m27.21,154.52c-.29,0-.51-.07-.66-.22-.15-.15-.15-.44-.15-.88s0-.8.15-.95.36-.29.66-.29h2.85c.29,0,.58.07.73.29.15.15.22.44.22.88s-.07.8-.22.95c-.15.15-.36.22-.73.22h-2.85Z"/>
        <path class="cls-11" d="m36.55,154.66c-.8,0-1.46-.07-2.12-.29s-1.17-.58-1.6-1.02c-.15.22-.36.44-.58.58s-.44.29-.66.36-.51.15-.73.15h-1.53c-.29,0-.58-.07-.73-.29-.15-.15-.22-.51-.22-.88s.07-.73.22-.95.36-.22.73-.22h.95c.15,0,.36,0,.51-.07.15,0,.36-.22.44-.36.15-.15.29-.36.36-.66s.15-.58.15-1.02v-.73c0-.88.15-1.68.36-2.26.22-.66.58-1.17,1.02-1.53s.95-.66,1.53-.88c.58-.15,1.24-.29,1.9-.29s1.31.07,1.97.29c.58.22,1.09.51,1.53.88.44.44.8.95,1.02,1.6s.36,1.46.36,2.41-.15,1.68-.36,2.33-.58,1.17-1.02,1.53c-.44.44-.95.73-1.53.88-.58.22-1.24.29-1.97.29v.15Zm0-7.88c-.73,0-1.31.22-1.68.73s-.51,1.17-.51,2.04.15,1.68.51,2.12c.36.44.95.66,1.68.66s1.31-.22,1.68-.66c.36-.44.51-1.17.51-2.12,0-1.9-.73-2.77-2.19-2.77Z"/>
        <path class="cls-11" d="m46.11,159.18c-.15,0-.22-.07-.22-.22v-1.82c0-.15.07-.22.22-.22h2.77c.36,0,.66,0,.95-.07s.51-.22.66-.36.29-.44.36-.73.15-.73.15-1.17h-2.41c-.73,0-1.39-.07-1.97-.22-.58-.15-1.02-.44-1.46-.8-.36-.36-.73-.88-.88-1.46-.22-.58-.29-1.31-.29-2.26s.15-1.75.36-2.41c.29-.66.66-1.24,1.09-1.68s.95-.73,1.53-.95c.58-.22,1.17-.29,1.82-.29s1.39.07,1.97.29c.58.22,1.09.51,1.53.88s.73.95,1.02,1.6.36,1.46.36,2.41v2.63h1.6c.29,0,.58.07.73.29.15.15.22.44.22.88s-.07.8-.22.95c-.15.15-.36.22-.73.22h-1.6v.51c0,1.46-.36,2.48-1.09,3.21-.73.66-1.82,1.02-3.21,1.02h-3.21l-.07-.22Zm2.7-12.4c-.73,0-1.24.29-1.68.8-.36.51-.58,1.24-.58,2.12s.22,1.6.58,1.97.95.51,1.75.51h2.12v-2.63c0-.88-.15-1.6-.51-2.04s-.88-.73-1.68-.73h0Z"/>
        <path class="cls-11" d="m55.74,154.52c-.29,0-.51-.07-.66-.22-.15-.15-.15-.44-.15-.88s0-.8.15-.95.36-.29.66-.29h2.85c.29,0,.58.07.73.29.15.15.22.44.22.88s-.07.8-.22.95c-.15.15-.36.22-.73.22h-2.85Z"/>
        <path class="cls-11" d="m59.38,145.25c0-.07,0-.22.15-.29s.15-.15.22-.29l5.11-5.91c.07-.07.22-.15.29,0l1.53,1.24c.15.07.15.22.07.29l-3.87,4.45c.8,0,1.53,0,2.19.15.66.07,1.24.29,1.75.58.51.29.88.73,1.17,1.24.29.58.44,1.31.44,2.19v1.9c0,.44.15.73.51.95s.8.36,1.39.36h.36c.29,0,.58.07.73.29.15.15.22.44.22.88s-.07.73-.22.95c-.15.15-.36.29-.73.29-.66,0-1.24-.07-1.75-.29s-.88-.51-1.09-1.09c-.29.51-.66.88-1.09,1.02-.51.22-1.09.29-1.82.29h-6.93c-.29,0-.58-.07-.73-.29-.15-.15-.22-.51-.22-.95s.07-.73.22-.88c.15-.15.36-.22.73-.22h5.84c.44,0,.73,0,1.02-.07.22,0,.44-.15.58-.29.15-.15.22-.29.29-.58v-2.12c0-1.39-.8-2.04-2.41-2.04h-3.79c-.15,0-.22-.07-.22-.22v-1.6l.07.07Z"/>
        <path class="cls-11" d="m71.28,154.52c-.29,0-.51-.07-.66-.22-.15-.15-.15-.44-.15-.88s0-.8.15-.95.36-.29.66-.29h2.85c.29,0,.58.07.73.29.15.15.22.44.22.88s-.07.8-.22.95c-.15.15-.36.22-.73.22h-2.85Z"/>
        <path class="cls-11" d="m74.12,154.52c-.29,0-.51-.07-.66-.22-.15-.15-.15-.44-.15-.88s0-.8.15-.95.36-.29.66-.29h2.85c.29,0,.58.07.73.29.15.15.22.44.22.88s-.07.8-.22.95c-.15.15-.36.22-.73.22h-2.85Z"/>
        <path class="cls-11" d="m75,146.34c.51-.51,1.09-1.02,1.75-1.31.66-.36,1.53-.51,2.48-.51s1.9.15,2.63.51c.73.29,1.24.73,1.68,1.24.44.51.73,1.17.88,1.82.15.73.29,1.46.29,2.26s0,.22,0,.29v.29c0,.44.22.73.58.95s.8.36,1.39.36h.36c.29,0,.58.07.73.29.15.15.22.44.22.88s-.07.73-.22.95c-.15.15-.36.29-.73.29-.66,0-1.24-.07-1.75-.29-.51-.15-.88-.51-1.17-1.09-.29.51-.73.88-1.24,1.09s-1.17.29-1.9.29h-7.3c-.29,0-.58-.07-.73-.29-.15-.15-.22-.51-.22-.88s.07-.73.22-.95.36-.22.73-.22h6.27c.44,0,.73,0,1.02-.07.22,0,.44-.15.58-.29.15-.15.22-.36.29-.58v-.95c0-.36,0-.95-.15-1.39-.07-.44-.22-.8-.44-1.09-.22-.29-.51-.58-.88-.73s-.8-.29-1.31-.29-1.02.07-1.39.29c-.44.22-.8.44-1.09.8-.15.07-.22.15-.36,0l-1.24-1.24c-.15-.15-.15-.22,0-.29v-.15Z"/>
        <path class="cls-11" d="m87.47,154.52c-.29,0-.51-.07-.66-.22-.15-.15-.15-.44-.15-.88s0-.8.15-.95.36-.29.66-.29h5.54c.29,0,.58.07.73.29.15.15.22.44.22.88s-.07.8-.22.95c-.15.15-.36.22-.73.22h-5.54Z"/>
        <path class="cls-11" d="m87.18,154.52c-.29,0-.58-.07-.73-.22s-.22-.44-.22-.88.07-.73.22-.95c.15-.15.36-.29.73-.29h3.87c.36,0,.66-.07.88-.29.15-.15.29-.51.29-.95v-11.96c0-.15.07-.22.22-.22h2.19c.15,0,.22.07.22.22v12.62c0,1.02-.22,1.75-.66,2.19s-1.09.73-2.12.73h-4.96.07Z"/>
        <path class="cls-11" d="m100.53,154.3c0,.15-.07.22-.22.22h-2.19c-.15,0-.22-.07-.22-.22v-15.32c0-.15.07-.22.22-.22h2.19c.15,0,.22.07.22.22v15.32Z"/>
        <path class="cls-11" d="m118.04,150.58c0,.8,0,1.39-.22,1.9-.15.51-.36.88-.66,1.24s-.66.51-1.09.66-.95.22-1.53.22h-5.47c-.15,0-.22-.07-.22-.22v-1.82c0-.15.07-.22.22-.22h4.38c.44,0,.73,0,1.02-.07.22,0,.44-.15.58-.29.15-.15.22-.36.29-.58s0-.51,0-.88v-1.53c0-1.39-.8-2.04-2.41-2.04h-2.85c-.15,0-.22-.07-.22-.22v-1.82c0-.15.07-.22.22-.22h3.79c1.24,0,2.26.36,2.99,1.02s1.09,1.75,1.09,3.14v1.9l.07-.15Z"/>
        <path class="cls-11" d="m119.57,159.18c-.15,0-.22-.07-.22-.22v-1.82c0-.15.07-.22.22-.22h.51c.66,0,1.17-.15,1.46-.51s.44-.8.44-1.46v-9.78c0-.15.07-.22.22-.22h2.19c.15,0,.22.07.22.22v9.85c0,2.85-1.39,4.23-4.16,4.23h-.88v-.07Z"/>
        <path class="cls-11" d="m130.29,154.3c0,.15-.07.22-.22.22h-2.19c-.15,0-.22-.07-.22-.22v-15.32c0-.15.07-.22.22-.22h2.19c.15,0,.22.07.22.22v15.32Z"/>
        <path class="cls-11" d="m135.4,159.18c-.15,0-.22-.07-.22-.22v-1.82c0-.15.07-.22.22-.22h2.77c.36,0,.66,0,.95-.07s.51-.22.66-.36.29-.44.36-.73.15-.73.15-1.17h-2.41c-.73,0-1.39-.07-1.97-.22-.58-.15-1.02-.44-1.46-.8-.36-.36-.73-.88-.88-1.46-.22-.58-.29-1.31-.29-2.26s.15-1.75.36-2.41c.29-.66.66-1.24,1.09-1.68s.95-.73,1.53-.95c.58-.22,1.17-.29,1.82-.29s1.39.07,1.97.29c.58.22,1.09.51,1.53.88s.73.95,1.02,1.6.36,1.46.36,2.41v2.63h1.6c.29,0,.58.07.73.29.15.15.22.44.22.88s-.07.8-.22.95c-.15.15-.36.22-.73.22h-1.6v.51c0,1.46-.36,2.48-1.09,3.21-.73.66-1.82,1.02-3.21,1.02h-3.21l-.07-.22Zm2.7-12.4c-.73,0-1.24.29-1.68.8-.36.51-.58,1.24-.58,2.12s.22,1.6.58,1.97.95.51,1.75.51h2.12v-2.63c0-.88-.15-1.6-.51-2.04s-.88-.73-1.68-.73h0Z"/>
        <path class="cls-11" d="m144.52,154.52c-.29,0-.51-.07-.66-.22-.15-.15-.15-.44-.15-.88s0-.8.15-.95.36-.29.66-.29h5.62c.29,0,.58.07.73.29.15.15.22.44.22.88s-.07.8-.22.95c-.15.15-.36.22-.73.22h-5.62Z"/>
        <path class="cls-11" d="m152.47,149.41c0-.88.15-1.68.36-2.26.22-.66.58-1.17,1.02-1.53s.95-.66,1.53-.88c.58-.15,1.24-.29,1.9-.29s1.31.07,1.97.29c.58.22,1.09.51,1.53.88s.8.95,1.02,1.6.36,1.46.36,2.41v.8c0,.66.15,1.09.44,1.39s.66.44,1.02.44h.66c.29,0,.58.07.73.29.15.15.22.44.22.88s-.07.73-.22.95c-.15.15-.36.29-.73.29h-.8c-.29,0-.58,0-.88-.15-.29-.07-.58-.22-.8-.36-.29-.15-.51-.36-.73-.66-.44.51-.95.88-1.6,1.09-.66.22-1.39.36-2.19.36s-1.46-.07-2.12-.29c-.66-.22-1.17-.58-1.6-1.02-.15.22-.36.44-.58.58s-.44.29-.66.36-.51.15-.73.15h-1.53c-.29,0-.58-.07-.73-.29-.15-.15-.22-.51-.22-.88s.07-.73.22-.95.36-.22.73-.22h.95c.36,0,.73-.15,1.02-.44.29-.29.44-.88.44-1.68v-.88Zm4.89-2.63c-.73,0-1.31.22-1.68.73s-.51,1.17-.51,2.04.15,1.68.51,2.12c.36.44.95.66,1.68.66s1.31-.22,1.68-.66c.36-.44.51-1.17.51-2.12,0-1.9-.73-2.77-2.19-2.77Z"/>
        <path class="cls-11" d="m164.29,154.52c-.29,0-.51-.07-.66-.22-.15-.15-.15-.44-.15-.88s0-.8.15-.95.36-.29.66-.29h2.85c.29,0,.58.07.73.29.15.15.22.44.22.88s-.07.8-.22.95c-.15.15-.36.22-.73.22h-2.85Z"/>
        <path class="cls-11" d="m167.06,154.52c-.29,0-.58-.07-.73-.22s-.22-.44-.22-.88.07-.73.22-.95c.15-.15.36-.29.73-.29h1.17c.36,0,.66-.07.88-.29.15-.15.29-.51.29-.95v-11.96c0-.15.07-.22.22-.22h2.19c.15,0,.22.07.22.22v12.62c0,1.02-.22,1.75-.66,2.19s-1.09.73-2.12.73h-2.19Z"/>
        <path class="cls-11" d="m177.71,154.3c0,.15-.07.22-.22.22h-2.19c-.15,0-.22-.07-.22-.22v-15.32c0-.15.07-.22.22-.22h2.19c.15,0,.22.07.22.22v15.32Z"/>
      </g>
    </g>
  </g>
</svg>