<svg width="21" height="22" viewBox="0 0 21 22" fill="none" xmlns="http://www.w3.org/2000/svg">
<mask id="mask0_48_1284" style="mask-type:alpha" maskUnits="userSpaceOnUse" x="0" y="0" width="21" height="22">
<rect width="20.9997" height="22" fill="#D9D9D9"/>
</mask>
<g mask="url(#mask0_48_1284)">
<path fill-rule="evenodd" clip-rule="evenodd" d="M13.5346 18.7389C11.5383 18.9937 9.45898 18.9937 7.46267 18.7389C8.04855 19.7611 9.1814 20.4651 10.4986 20.4651C11.8158 20.4651 12.9487 19.7611 13.5346 18.7389ZM3.56018 8.44186C3.56018 4.62921 6.66476 1.53488 10.4996 1.53488C14.3345 1.53488 17.4391 4.63023 17.4391 8.44186C17.4391 9.55005 17.4934 10.7923 18.278 11.9455L18.28 11.9496C18.4091 12.1368 18.5228 12.2903 18.6293 12.4346C18.7717 12.628 18.9018 12.805 19.0431 13.026C19.2613 13.3678 19.3965 13.6635 19.4405 13.95C19.5819 14.8751 18.9909 15.6077 17.9574 16.0354C13.5745 17.8487 7.42477 17.8487 3.0419 16.0354C2.0084 15.6077 1.4174 14.8751 1.55875 13.95C1.60279 13.6635 1.73799 13.3678 1.95616 13.026C2.09751 12.805 2.2276 12.628 2.36997 12.4356C2.4765 12.2903 2.59019 12.1368 2.71925 11.9496L2.7213 11.9455C3.50589 10.7923 3.56018 9.54902 3.56018 8.44186ZM10.4996 0C5.82075 0 2.02377 3.77684 2.02377 8.44186C2.02377 9.52651 1.95104 10.3461 1.4512 11.0819C1.38257 11.1821 1.29039 11.309 1.18898 11.4472C1.01486 11.6866 0.814098 11.9619 0.661481 12.2003C0.393121 12.6208 0.130906 13.1273 0.04077 13.7188C-0.254221 15.6456 1.10294 16.894 2.45396 17.4527C3.4598 17.8691 4.54656 18.1976 5.68043 18.438C6.26836 20.505 8.21449 22 10.4986 22C12.7828 22 14.7289 20.506 15.3168 18.438C16.4507 18.1976 17.5385 17.8701 18.5453 17.4527C19.8963 16.894 21.2535 15.6456 20.9595 13.7188C20.8684 13.1273 20.6062 12.6208 20.3378 12.2003C20.1852 11.9619 19.9855 11.6866 19.8103 11.4472C19.7099 11.309 19.6177 11.1832 19.5481 11.0819C19.0482 10.3461 18.9755 9.52651 18.9755 8.44186C18.9755 3.77684 15.1785 0 10.4996 0Z" fill="#161616"/>
</g>
</svg>
