<svg width="19" height="19" viewBox="0 0 19 19" fill="none" xmlns="http://www.w3.org/2000/svg">
<mask id="mask0_48_1753" style="mask-type:alpha" maskUnits="userSpaceOnUse" x="0" y="-1" width="20" height="20">
<rect y="-0.00031662" width="19.0002" height="19.0003" fill="#D9D9D9"/>
</mask>
<g mask="url(#mask0_48_1753)">
<path d="M4.26206 1.32247C4.62685 1.28642 4.89303 0.962978 4.85697 0.598178C4.82198 0.23444 4.49748 -0.0327971 4.13268 0.00325861C2.89513 0.124151 1.91633 0.409416 1.16234 1.16234C0.409415 1.91633 0.124152 2.89514 0.00325955 4.1327C-0.032796 4.4975 0.234439 4.822 0.598176 4.857C0.962974 4.89305 1.28641 4.62582 1.32247 4.26208C1.4317 3.14011 1.66924 2.5314 2.09978 2.09979C2.53139 1.66925 3.14009 1.4317 4.26206 1.32247Z" fill="#161616"/>
<path d="M14.8666 0.00318041C14.5018 -0.0328753 14.1783 0.234361 14.1423 0.5981C14.1073 0.962899 14.3734 1.28634 14.7372 1.3224C15.8602 1.43162 16.4678 1.66917 16.8995 2.10078C17.3311 2.53132 17.5675 3.14003 17.6778 4.262C17.7128 4.6268 18.0373 4.89297 18.4011 4.85692C18.7659 4.82192 19.032 4.49742 18.997 4.13368C18.8761 2.89506 18.5898 1.91626 17.8369 1.16333C17.084 0.410398 16.1041 0.124073 14.8666 0.00318041Z" fill="#161616"/>
<path d="M7.73285 -9.53674e-07C7.367 -9.53674e-07 7.07007 0.296929 7.07007 0.662788C7.07007 1.02865 7.367 1.32558 7.73285 1.32558H11.2674C11.6343 1.32558 11.9301 1.02865 11.9301 0.662788C11.9301 0.296929 11.6343 -9.53674e-07 11.2674 -9.53674e-07H7.73285Z" fill="#161616"/>
<path d="M1.32557 7.7329C1.32557 7.36704 1.02864 7.07011 0.662786 7.07011C0.296928 7.07011 0 7.36704 0 7.7329V11.2674C0 11.6343 0.296928 11.9302 0.662786 11.9302C1.02864 11.9302 1.32557 11.6343 1.32557 11.2674V7.7329Z" fill="#161616"/>
<path d="M1.32239 14.7383C1.28634 14.3735 0.962897 14.1073 0.5981 14.1434C0.234363 14.1784 -0.0328723 14.5029 0.00318325 14.8677C0.124075 16.1053 0.409339 17.0841 1.16332 17.838C1.91625 18.591 2.89505 18.8762 4.13367 18.9971C4.4974 19.0332 4.8219 18.766 4.8569 18.4022C4.89295 18.0374 4.62678 17.714 4.26198 17.6779C3.14002 17.5687 2.53131 17.3311 2.09971 16.9006C1.66916 16.469 1.43162 15.8613 1.32239 14.7383Z" fill="#161616"/>
<path d="M12.0182 9.63218C12.384 9.63218 12.681 9.92911 12.681 10.295V11.3554H13.7414C14.1073 11.3554 14.4042 11.6524 14.4042 12.0182C14.4042 12.3841 14.1073 12.681 13.7414 12.681H12.681V13.7415C12.681 14.1073 12.384 14.4043 12.0182 14.4043C11.6523 14.4043 11.3554 14.1073 11.3554 13.7415V12.681H10.2949C9.92907 12.681 9.63214 12.3841 9.63214 12.0182C9.63214 11.6524 9.92907 11.3554 10.2949 11.3554H11.3554V10.295C11.3554 9.92911 11.6523 9.63218 12.0182 9.63218Z" fill="#161616"/>
<path fill-rule="evenodd" clip-rule="evenodd" d="M12.0182 7.51126C9.52928 7.51126 7.51123 9.52932 7.51123 12.0182C7.51123 14.5071 9.52928 16.5252 12.0182 16.5252C14.5071 16.5252 16.5251 14.5071 16.5251 12.0182C16.5251 9.52932 14.5071 7.51126 12.0182 7.51126ZM6.18565 12.0182C6.18565 8.79654 8.7965 6.18568 12.0182 6.18568C15.2398 6.18568 17.8507 8.79654 17.8507 12.0182C17.8507 13.2187 17.488 14.3343 16.8666 15.2611C16.7775 15.3937 16.6831 15.5231 16.5845 15.6471L18.8051 17.8677C19.0638 18.1265 19.0638 18.5464 18.8051 18.8052C18.5463 19.0639 18.1264 19.0639 17.8677 18.8052L15.6471 16.5846C14.6513 17.3767 13.3904 17.8508 12.0182 17.8508C8.7965 17.8508 6.18565 15.2399 6.18565 12.0182Z" fill="#161616"/>
</g>
<path d="M4.1718 19.0001C4.15921 18.9992 4.14661 18.9983 4.134 18.9974C2.8956 18.8768 1.9164 18.5915 1.164 17.8382C0.409805 17.084 0.124512 16.1057 0.00390625 14.8682C-0.0329895 14.5028 0.234299 14.1788 0.598801 14.1437C0.963303 14.1077 1.28641 14.3741 1.3224 14.7386C1.43221 15.8618 1.6698 16.4693 2.10001 16.9004C2.532 17.3315 3.14041 17.5691 4.26271 17.678C4.6272 17.714 4.8936 18.038 4.8576 18.4025C4.82521 18.7328 4.55521 18.9839 4.2339 19.0001H4.1718ZM17.868 18.8057L15.6477 16.5845C14.6514 17.3765 13.3905 17.8508 12.0189 17.8508C8.79691 17.8508 6.186 15.2399 6.186 12.0188C6.186 8.7968 8.79691 6.1859 12.0189 6.1859C15.24 6.1859 17.8509 8.7968 17.8509 12.0188C17.8509 13.2185 17.4882 14.3345 16.8672 15.2615C16.7781 15.3938 16.6836 15.5234 16.5846 15.6476L18.8058 17.8679C19.0641 18.1271 19.0641 18.5465 18.8058 18.8057C18.6762 18.9344 18.5061 18.9992 18.3369 18.9992C18.1668 18.9992 17.9976 18.9344 17.868 18.8057ZM7.5117 12.0188C7.5117 14.5073 9.52951 16.5251 12.0189 16.5251C14.5074 16.5251 16.5252 14.5073 16.5252 12.0188C16.5252 9.5294 14.5074 7.5116 12.0189 7.5116C9.52951 7.5116 7.5117 9.5294 7.5117 12.0188ZM11.3556 13.7414V12.6812H10.2954C9.92911 12.6812 9.63211 12.3842 9.63211 12.0188C9.63211 11.6525 9.92911 11.3555 10.2954 11.3555H11.3556V10.2953C11.3556 9.929 11.6526 9.632 12.0189 9.632C12.3843 9.632 12.6813 9.929 12.6813 10.2953V11.3555H13.7415C14.1078 11.3555 14.4048 11.6525 14.4048 12.0188C14.4048 12.3842 14.1078 12.6812 13.7415 12.6812H12.6813V13.7414C12.6813 14.1077 12.3843 14.4047 12.0189 14.4047C11.6526 14.4047 11.3556 14.1077 11.3556 13.7414ZM0.000305176 11.2673V7.733C0.000305176 7.3676 0.297302 7.0706 0.662704 7.0706C1.02901 7.0706 1.326 7.3676 1.326 7.733V11.2673C1.326 11.6345 1.02901 11.9306 0.662704 11.9306C0.297302 11.9306 0.000305176 11.6345 0.000305176 11.2673ZM17.6781 4.2626C17.5674 3.1403 17.3316 2.5319 16.8996 2.1008C16.4685 1.6697 15.8601 1.4321 14.7378 1.3223C14.3733 1.2863 14.1078 0.9632 14.1429 0.5987C14.1789 0.2342 14.502 -0.0330992 14.8665 0.00379944C16.104 0.124401 17.0841 0.410601 17.8374 1.1639C18.5898 1.9163 18.876 2.8955 18.9975 4.1339C18.9993 4.1483 18.9993 4.1627 19.0002 4.1771V4.2203C18.9894 4.5479 18.7365 4.8251 18.4017 4.8575C18.3792 4.8593 18.3576 4.8611 18.336 4.8611C17.9985 4.8611 17.7114 4.6046 17.6781 4.2626ZM0.598801 4.8575C0.234299 4.8224 -0.0329895 4.4975 0.00390625 4.133C0.124512 2.8955 0.409805 1.9163 1.1622 1.1621C1.9164 0.4097 2.8956 0.124401 4.1331 0.00379944C4.4976 -0.0330992 4.82251 0.2342 4.8576 0.5987C4.8936 0.9632 4.6272 1.2863 4.26271 1.3223C3.14041 1.4321 2.532 1.6697 2.10001 2.0999C1.6698 2.5319 1.43221 3.1403 1.3224 4.2626C1.28821 4.6046 1.0011 4.8611 0.664505 4.8611C0.642899 4.8611 0.621307 4.8593 0.598801 4.8575ZM7.73311 1.3259C7.36771 1.3259 7.07071 1.0289 7.07071 0.6626C7.07071 0.297201 7.36771 0.000200272 7.73311 0.000200272H11.2674C11.6346 0.000200272 11.9307 0.297201 11.9307 0.6626C11.9307 1.0289 11.6346 1.3259 11.2674 1.3259H7.73311Z" fill="#EAEAEA"/>
</svg>
