<svg width="18" height="18" viewBox="0 0 18 18" fill="none" xmlns="http://www.w3.org/2000/svg">
<mask id="mask0_48_1740" style="mask-type:alpha" maskUnits="userSpaceOnUse" x="0" y="-1" width="19" height="19">
<rect y="-0.000297546" width="18.0002" height="18.0003" fill="#D9D9D9"/>
</mask>
<g mask="url(#mask0_48_1740)">
<path d="M4.03774 1.25287C4.38334 1.21871 4.6355 0.912296 4.60134 0.566696C4.56819 0.222102 4.26077 -0.0310701 3.91517 0.00308801C2.74275 0.117618 1.81547 0.387869 1.10116 1.10117C0.387867 1.81548 0.117617 2.74277 0.00308799 3.91519C-0.0310699 4.26079 0.2221 4.56821 0.566693 4.60137C0.912291 4.63552 1.21871 4.38235 1.25287 4.03776C1.35634 2.97484 1.58138 2.39817 1.98927 1.98928C2.39816 1.58139 2.97482 1.35635 4.03774 1.25287Z" fill="#161616"/>
<path d="M14.0841 0.00301458C13.7385 -0.0311435 13.4321 0.222028 13.3979 0.566623C13.3648 0.912222 13.6169 1.21864 13.9615 1.2528C15.0255 1.35628 15.6011 1.58132 16.01 1.99021C16.4189 2.3981 16.6429 2.97477 16.7474 4.03769C16.7806 4.38328 17.088 4.63545 17.4326 4.60129C17.7782 4.56814 18.0303 4.26072 17.9972 3.91612C17.8827 2.74269 17.6114 1.8154 16.8981 1.1021C16.1848 0.3888 15.2565 0.117545 14.0841 0.00301458Z" fill="#161616"/>
<path d="M7.32585 0C6.97925 0 6.69795 0.281302 6.69795 0.627906C6.69795 0.97451 6.97925 1.25581 7.32585 1.25581H10.6743C11.0219 1.25581 11.3022 0.97451 11.3022 0.627906C11.3022 0.281302 11.0219 0 10.6743 0H7.32585Z" fill="#161616"/>
<path d="M1.25581 7.3259C1.25581 6.9793 0.974505 6.698 0.627903 6.698C0.2813 6.698 0 6.9793 0 7.3259V10.6744C0 11.022 0.2813 11.3023 0.627903 11.3023C0.974505 11.3023 1.25581 11.022 1.25581 10.6744V7.3259Z" fill="#161616"/>
<path d="M1.25279 13.9626C1.21863 13.617 0.912215 13.3648 0.566617 13.399C0.222024 13.4322 -0.0311462 13.7396 0.0030117 14.0852C0.117541 15.2576 0.38779 16.1849 1.10209 16.8992C1.81539 17.6125 2.74268 17.8828 3.9161 17.9973C4.26069 18.0314 4.56811 17.7783 4.60127 17.4337C4.63543 17.0881 4.38326 16.7817 4.03766 16.7475C2.97475 16.644 2.39808 16.419 1.98919 16.0111C1.58131 15.6022 1.35627 15.0265 1.25279 13.9626Z" fill="#161616"/>
<path d="M9.75309 10.7578C9.40648 10.7578 9.12518 11.0391 9.12518 11.3857C9.12518 11.7323 9.40648 12.0136 9.75309 12.0136H13.0182C13.3648 12.0136 13.6461 11.7323 13.6461 11.3857C13.6461 11.0391 13.3648 10.7578 13.0182 10.7578H9.75309Z" fill="#161616"/>
<path fill-rule="evenodd" clip-rule="evenodd" d="M7.1159 11.3857C7.1159 9.02778 9.02773 7.11593 11.3856 7.11593C13.7435 7.11593 15.6554 9.02778 15.6554 11.3857C15.6554 13.7436 13.7435 15.6554 11.3856 15.6554C9.02773 15.6554 7.1159 13.7436 7.1159 11.3857ZM11.3856 5.86012C8.33353 5.86012 5.86009 8.33356 5.86009 11.3857C5.86009 14.4378 8.33353 16.9113 11.3856 16.9113C12.6856 16.9113 13.8802 16.4622 14.8235 15.7117L16.9273 17.8154C17.1724 18.0606 17.5702 18.0606 17.8154 17.8154C18.0605 17.5703 18.0605 17.1725 17.8154 16.9273L15.7116 14.8236C16.4621 13.8802 16.9112 12.6847 16.9112 11.3857C16.9112 8.33356 14.4377 5.86012 11.3856 5.86012Z" fill="#161616"/>
</g>
<path d="M3.91591 17.9975C2.74231 17.8832 1.81531 17.6123 1.10251 16.8995C0.387909 16.1849 0.117905 15.2579 0.00270081 14.0852C0.000900269 14.0708 0.000900269 14.0573 0 14.0438V14.0015C0.0108032 13.6919 0.250198 13.43 0.567001 13.3994C0.912598 13.3652 1.2186 13.6172 1.25281 13.9628C1.35631 15.0266 1.5813 15.6026 1.989 16.0112C2.3985 16.4189 2.9745 16.6439 4.0374 16.7474C4.38301 16.7816 4.63501 17.0885 4.6017 17.4341C4.57021 17.7581 4.2966 18.0002 3.978 18.0002C3.95731 18.0002 3.9366 17.9993 3.91591 17.9975ZM16.9272 17.8157L14.8239 15.7115C13.8798 16.4621 12.6855 16.9112 11.3859 16.9112C8.3331 16.9112 5.85991 14.438 5.85991 11.3861C5.85991 8.3342 8.3331 5.8601 11.3859 5.8601C14.4378 5.8601 16.911 8.3342 16.911 11.3861C16.911 12.6848 16.4619 13.88 15.7113 14.8241L17.8155 16.9274C18.0603 17.1731 18.0603 17.5709 17.8155 17.8157C17.6922 17.9381 17.532 17.9993 17.3709 17.9993C17.2107 17.9993 17.0496 17.9381 16.9272 17.8157ZM7.1163 11.3861C7.1163 13.7441 9.02791 15.6557 11.3859 15.6557C13.7439 15.6557 15.6555 13.7441 15.6555 11.3861C15.6555 9.0281 13.7439 7.1165 11.3859 7.1165C9.02791 7.1165 7.1163 9.0281 7.1163 11.3861ZM9.75331 12.0134C9.4068 12.0134 9.12511 11.7326 9.12511 11.3861C9.12511 11.0396 9.4068 10.7579 9.75331 10.7579H13.0185C13.365 10.7579 13.6458 11.0396 13.6458 11.3861C13.6458 11.7326 13.365 12.0134 13.0185 12.0134H9.75331ZM0 10.6742V7.3262C0 6.9797 0.281708 6.698 0.628204 6.698C0.974701 6.698 1.25551 6.9797 1.25551 7.3262V10.6742C1.25551 11.0225 0.974701 11.3024 0.628204 11.3024C0.281708 11.3024 0 11.0225 0 10.6742ZM16.7472 4.0376C16.6428 2.9747 16.4187 2.3987 16.0101 1.9901C15.6015 1.5815 15.0255 1.3565 13.9617 1.253C13.617 1.2188 13.365 0.9128 13.3983 0.5672C13.4298 0.250401 13.6908 0.0101013 14.0013 0.000200272H14.0427C14.0562 0.00110054 14.0706 0.00110054 14.0841 0.00290108C15.2568 0.118101 16.1847 0.389 16.8984 1.1027C17.6112 1.8155 17.883 2.7425 17.9973 3.9161C17.9991 3.9314 18 3.9458 18 3.9611V3.9944C17.9919 4.3058 17.7525 4.5713 17.433 4.6019C17.4123 4.6037 17.3916 4.6046 17.3709 4.6046C17.0523 4.6046 16.7787 4.3625 16.7472 4.0376ZM0.567001 4.6019C0.250198 4.5713 0.0108032 4.3094 0 3.9989V3.9566C0.000900269 3.9431 0.000900269 3.9296 0.00270081 3.9152C0.117905 2.7425 0.387909 1.8155 1.10071 1.1009C1.81531 0.3881 2.74231 0.118101 3.91501 0.00290108C3.9285 0.00110054 3.9429 0.00110054 3.95641 0.000200272H3.9978C4.3083 0.0101013 4.57111 0.250401 4.6017 0.5672C4.63501 0.9128 4.38301 1.2188 4.0374 1.253C2.9745 1.3565 2.3985 1.5815 1.989 1.9892C1.5813 2.3987 1.35631 2.9747 1.25281 4.0376C1.2204 4.3616 0.948608 4.6046 0.629105 4.6046C0.608398 4.6046 0.587708 4.6037 0.567001 4.6019ZM7.326 1.2557C6.97951 1.2557 6.6978 0.974901 6.6978 0.628401C6.6978 0.2819 6.97951 0.000200272 7.326 0.000200272H10.674C11.0223 0.000200272 11.3022 0.2819 11.3022 0.628401C11.3022 0.974901 11.0223 1.2557 10.674 1.2557H7.326Z" fill="#EAEAEA"/>
</svg>
