<svg width="51" height="51" viewBox="0 0 51 51" fill="none" xmlns="http://www.w3.org/2000/svg">
<path d="M23.1278 27.8696C23.1278 26.5601 24.1906 25.4976 25.4999 25.4976H25.5214C26.8307 25.4976 27.8934 26.5601 27.8934 27.8696C27.8934 29.1787 26.8307 30.2417 25.5214 30.2417H25.4999C24.1906 30.2417 23.1278 29.1787 23.1278 27.8696Z" fill="#A2A2A2"/>
<path fill-rule="evenodd" clip-rule="evenodd" d="M28.5504 4.14416C28.057 3.92834 27.6276 3.77209 27.2789 3.67248C27.2789 3.79309 27.2789 3.92834 27.2789 4.0802V7.07336H32.9364C32.7609 6.61828 32.5118 6.29553 32.2059 6.10803C31.3707 5.59338 29.9049 4.73498 28.5504 4.14416ZM34.9884 10.6315H27.2789V13.6393C27.2789 14.6217 26.4821 15.4186 25.4999 15.4186C24.5179 15.4186 23.7208 14.6217 23.7208 13.6393V3.99963C23.7208 3.50842 23.7208 2.98205 23.7802 2.53625C23.849 2.01672 24.0292 1.35022 24.5868 0.790159C25.5355 -0.165896 26.8568 -0.0350367 27.5138 0.0782446C28.3204 0.220823 29.1886 0.541135 29.9738 0.882444C31.5631 1.57776 33.1974 2.54065 34.0726 3.07922C36.3427 4.47619 36.7675 7.10461 36.7675 8.85266C36.7675 9.83459 35.9703 10.6315 34.9884 10.6315Z" fill="#A2A2A2"/>
<path d="M14.0712 29.5984C15.0247 29.3587 15.6035 28.3933 15.3663 27.4402C15.1267 26.4866 14.1611 25.908 13.2076 26.1472C12.8827 26.2273 12.5625 26.3064 12.2494 26.3845H12.2471C11.0254 26.6858 9.89624 26.9651 8.9071 27.2595C7.66162 27.6297 6.49231 28.0637 5.50061 28.6922C4.47131 29.3474 3.64575 30.2131 3.10254 31.3943C2.57593 32.5398 2.37195 33.866 2.37195 35.3723V49.2205C2.37195 50.2024 3.16895 50.9993 4.151 50.9993C5.13306 50.9993 5.93005 50.2024 5.93005 49.2205V35.3723C5.93005 34.1624 6.09851 33.3963 6.33569 32.8792C6.55627 32.3972 6.88123 32.032 7.4126 31.6956C7.98193 31.3323 8.77661 31.01 9.91992 30.6707C10.8214 30.4026 11.8461 30.1487 13.0535 29.8499C13.3785 29.7693 13.7177 29.6858 14.0712 29.5984Z" fill="#A2A2A2"/>
<path d="M37.7922 26.1472C36.8388 25.908 35.8733 26.4866 35.636 27.4402C35.3965 28.3933 35.9753 29.3587 36.9287 29.5984C37.2822 29.6858 37.6213 29.7693 37.9465 29.8499C39.1538 30.1487 40.1784 30.4026 41.0801 30.6707C42.2234 31.01 43.018 31.3323 43.5874 31.6956C44.1186 32.032 44.4436 32.3972 44.664 32.8792C44.9013 33.3963 45.0698 34.1624 45.0698 35.3723V49.2205C45.0698 50.2024 45.8669 50.9993 46.8489 50.9993C47.831 50.9993 48.6279 50.2024 48.6279 49.2205V35.3723C48.6279 33.866 48.424 32.5398 47.8974 31.3943C47.3542 30.2131 46.5285 29.3474 45.4992 28.6922C44.51 28.0637 43.3384 27.6297 42.0927 27.2595C41.1037 26.9651 39.9746 26.6878 38.7553 26.3845L38.7458 26.3821C38.4328 26.3064 38.1147 26.2273 37.7922 26.1472Z" fill="#A2A2A2"/>
<path d="M25.4999 37.9531C26.4821 37.9531 27.2789 38.75 27.2789 39.7324V49.2207C27.2789 50.2026 26.4821 50.9995 25.4999 50.9995C24.5179 50.9995 23.7208 50.2026 23.7208 49.2207V39.7324C23.7208 38.75 24.5179 37.9531 25.4999 37.9531Z" fill="#A2A2A2"/>
<path fill-rule="evenodd" clip-rule="evenodd" d="M25.2224 15.9731C24.9258 16.123 24.551 16.3604 23.8962 16.7822L18.9576 19.9565C17.8641 20.6582 17.15 21.1211 16.6257 21.5332C16.13 21.9224 15.9166 22.1836 15.7814 22.4307C15.6462 22.6772 15.5417 22.9995 15.4824 23.626C15.4208 24.2876 15.4185 25.1421 15.4185 26.4414V47.439H35.5813V26.4414C35.5813 25.1421 35.5789 24.2876 35.5173 23.626C35.4578 22.9995 35.3535 22.6772 35.2183 22.4307C35.083 22.1836 34.8696 21.9224 34.374 21.5332C33.8496 21.1211 33.1333 20.6582 32.0398 19.9565L27.1035 16.7822C26.4487 16.3604 26.074 16.123 25.7773 15.9731C25.6445 15.9072 25.571 15.8813 25.533 15.8711L25.5022 15.8643H25.4998H25.4976L25.4668 15.8711C25.4287 15.8813 25.3552 15.9072 25.2224 15.9731ZM39.1394 47.439V26.3633C39.1394 25.1626 39.1394 24.1406 39.0588 23.2891C38.9734 22.3828 38.7883 21.541 38.3423 20.7251C37.8965 19.9092 37.2891 19.2969 36.5728 18.7344C35.8989 18.208 35.0403 17.6558 34.0322 17.0054L28.9631 13.748C28.3962 13.3833 27.8601 13.0371 27.3762 12.7949C26.8352 12.5244 26.2234 12.3062 25.4998 12.3062C24.7764 12.3062 24.1643 12.5244 23.6235 12.7949C23.1396 13.0371 22.6035 13.3833 22.0366 13.748L16.9674 17.0054C15.9594 17.6558 15.1007 18.208 14.4269 18.7344C13.7106 19.2969 13.1033 19.9092 12.6573 20.7251C12.2114 21.541 12.0264 22.3828 11.9409 23.2891C11.8604 24.1406 11.8604 25.1626 11.8604 26.3633V47.439H1.77893C0.796875 47.439 -0.00012207 48.2358 -0.00012207 49.2183C-0.00012207 50.2002 0.796875 50.9971 1.77893 50.9971H49.2207C50.2029 50.9971 50.9998 50.2002 50.9998 49.2183C50.9998 48.2358 50.2029 47.439 49.2207 47.439H39.1394Z" fill="#1B8354"/>
</svg>
