<svg width="55" height="50" viewBox="0 0 55 50" fill="none" xmlns="http://www.w3.org/2000/svg">
<mask id="mask0_48_1503" style="mask-type:alpha" maskUnits="userSpaceOnUse" x="0" y="0" width="55" height="50">
<rect width="55" height="50" fill="#D9D9D9"/>
</mask>
<g mask="url(#mask0_48_1503)">
<mask id="mask1_48_1503" style="mask-type:alpha" maskUnits="userSpaceOnUse" x="0" y="0" width="55" height="50">
<rect width="55" height="50" fill="#D9D9D9"/>
</mask>
<g mask="url(#mask1_48_1503)">
<path fill-rule="evenodd" clip-rule="evenodd" d="M40.81 25.1667C38.5307 26.1949 36.236 27.1282 34.1819 27.8564C32.8337 28.3359 31.5674 28.7359 30.4649 29.018C29.393 29.2923 28.3519 29.4872 27.5 29.4872C26.6481 29.4872 25.607 29.2923 24.5351 29.018C23.4326 28.7359 22.1663 28.3359 20.8181 27.8564C18.764 27.1282 16.4693 26.1949 14.19 25.1667L14.6965 36.7872C14.7042 37.0051 14.7247 37.1128 14.7426 37.1692C14.9088 37.7205 15.1774 38.1 15.487 38.3205C16.6177 39.1333 18.3393 39.8231 20.4907 40.3051C22.6191 40.7821 25.0467 41.0256 27.5 41.0256C29.9533 41.0256 32.3809 40.7821 34.5093 40.3051C36.6607 39.8231 38.3823 39.1333 39.513 38.3205C39.8226 38.1 40.0912 37.7205 40.2574 37.1692C40.2753 37.1128 40.2958 37.0051 40.3035 36.7872L40.81 25.1667ZM4.18512 14.5564C4.11605 14.6256 4.05721 14.6872 4.00861 14.7436C4.05721 14.8 4.11605 14.8615 4.18512 14.9308C4.63279 15.3872 5.34395 15.9538 6.30581 16.6026C8.21674 17.8923 10.8695 19.3436 13.7193 20.7103C16.564 22.0718 19.5467 23.3256 22.0998 24.2333C23.3788 24.6872 24.5274 25.0462 25.4842 25.2923C26.4742 25.5436 27.1393 25.641 27.5 25.641C27.8607 25.641 28.5258 25.5436 29.5158 25.2923C30.4726 25.0462 31.6212 24.6872 32.9002 24.2333C35.4533 23.3256 38.436 22.0718 41.2807 20.7103C44.1305 19.3436 46.7833 17.8923 48.6942 16.6026C49.656 15.9538 50.3672 15.3872 50.8149 14.9308C50.884 14.8615 50.9428 14.8 50.9914 14.7436C50.9428 14.6872 50.884 14.6256 50.8149 14.5564C50.3672 14.1 49.656 13.5333 48.6942 12.8846C46.7833 11.5949 44.1305 10.1462 41.2807 8.77692C38.436 7.41538 35.4533 6.16154 32.9002 5.25385C31.6212 4.8 30.4726 4.44103 29.5158 4.19744C28.5258 3.94359 27.8607 3.84615 27.5 3.84615C27.1393 3.84615 26.4742 3.94359 25.4842 4.19744C24.5274 4.44103 23.3788 4.8 22.0998 5.25385C19.5467 6.16154 16.564 7.41538 13.7193 8.77692C10.8695 10.1462 8.21674 11.5949 6.30581 12.8846C5.34395 13.5333 4.63279 14.1 4.18512 14.5564ZM27.5 0C26.6481 0 25.607 0.194872 24.5351 0.469231C23.4326 0.751282 22.1663 1.15128 20.8181 1.63077C18.1193 2.58974 15.0112 3.89487 12.0642 5.30769C9.12744 6.71795 6.29047 8.25897 4.16209 9.69487C3.10558 10.4077 2.15907 11.1385 1.45302 11.8538C1.1 12.2128 0.762326 12.6128 0.503953 13.0487C0.253256 13.4718 0 14.0564 0 14.7436C0 15.4308 0.253256 16.0154 0.503953 16.4385C0.762326 16.8744 1.1 17.2744 1.45302 17.6333C2.15907 18.3487 3.10558 19.0795 4.16209 19.7923C5.85302 20.9333 7.98907 22.141 10.2684 23.2949L10.8619 36.9564C10.8772 37.3154 10.9207 37.7872 11.0691 38.2846C11.4221 39.4462 12.1051 40.6231 13.2512 41.4462C14.9651 42.6769 17.2393 43.518 19.6542 44.059C22.0972 44.6051 24.8088 44.8718 27.5 44.8718C30.1912 44.8718 32.9028 44.6051 35.3458 44.059C37.7607 43.518 40.0349 42.6769 41.7488 41.4462C42.8949 40.6231 43.5779 39.4462 43.9284 38.2846C44.0793 37.7872 44.1228 37.3154 44.1381 36.9564L44.7316 23.2949C47.0109 22.141 49.147 20.9333 50.8379 19.7923C51.8944 19.0795 52.8409 18.3487 53.547 17.6333C53.9 17.2744 54.2377 16.8744 54.496 16.4385C54.7467 16.0154 55 15.4308 55 14.7436C55 14.0564 54.7467 13.4718 54.496 13.0487C54.2377 12.6128 53.9 12.2128 53.547 11.8538C52.8409 11.1385 51.8944 10.4077 50.8379 9.69487C48.7095 8.25897 45.8726 6.71795 42.9358 5.30769C39.9888 3.89487 36.8807 2.58974 34.1819 1.63077C32.8337 1.15128 31.5674 0.751282 30.4649 0.469231C29.393 0.194872 28.3519 0 27.5 0Z" fill="#1B8354"/>
<g opacity="0.399994">
<mask id="mask2_48_1503" style="mask-type:alpha" maskUnits="userSpaceOnUse" x="43" y="16" width="12" height="34">
<rect x="43.4884" y="16.6667" width="11.5103" height="33.3333" fill="#D9D9D9"/>
</mask>
<g mask="url(#mask2_48_1503)">
<path fill-rule="evenodd" clip-rule="evenodd" d="M49.2442 40.8308C49.2109 40.895 49.1777 40.9565 49.147 41.0206C48.4639 42.3591 47.827 43.7873 47.456 45.3514C47.3767 45.6847 47.3435 45.9206 47.3307 46.0821C47.5686 46.1257 47.919 46.1539 48.4383 46.1539H50.05C50.5693 46.1539 50.9197 46.1257 51.1576 46.0821C51.1449 45.9206 51.1116 45.6847 51.0323 45.3514C50.6614 43.7873 50.0244 42.3591 49.3414 41.0206C49.3107 40.9565 49.2774 40.895 49.2442 40.8308ZM49.2442 16.6667C50.3032 16.6667 51.1628 17.5283 51.1628 18.5898V36.1693C51.3777 36.6565 51.659 37.1821 51.9993 37.8232C52.227 38.2488 52.4802 38.7232 52.759 39.2693C53.4958 40.7155 54.2914 42.4616 54.7646 44.4616C55.0818 45.7924 55.2711 47.5565 54.0202 48.8129C53.4318 49.4026 52.7104 49.6796 52.0735 49.8206C51.439 49.9616 50.7432 50.0001 50.05 50.0001H48.4383C47.7451 50.0001 47.0493 49.9616 46.4149 49.8206C45.7779 49.6796 45.0565 49.4026 44.4681 48.8129C43.2172 47.5565 43.4065 45.7924 43.7237 44.4616C44.197 42.4616 44.9925 40.7155 45.7293 39.2693C46.0081 38.7232 46.2614 38.2488 46.489 37.8232C46.8293 37.1821 47.1107 36.6565 47.3256 36.1693V18.5898C47.3256 17.5283 48.1851 16.6667 49.2442 16.6667Z" fill="#161616"/>
</g>
</g>
</g>
</g>
</svg>
