<svg width="46" height="51" viewBox="0 0 46 51" fill="none" xmlns="http://www.w3.org/2000/svg">
<mask id="mask0_48_1487" style="mask-type:alpha" maskUnits="userSpaceOnUse" x="0" y="-1" width="46" height="52">
<rect y="-0.000244141" width="46" height="51.0002" fill="#D9D9D9"/>
</mask>
<g mask="url(#mask0_48_1487)">
<path d="M11.2128 6.92993C10.2363 6.92993 9.44385 7.72681 9.44385 8.70868C9.44385 9.69055 10.2363 10.4874 11.2128 10.4874H31.2586C32.228 10.4874 33.0276 11.2843 33.0276 12.2828V15.8569C33.0276 16.8411 33.8201 17.6356 34.7966 17.6356C35.773 17.6356 36.5655 16.8411 36.5655 15.8569V12.2828C36.5655 9.3348 34.1975 6.92993 31.2586 6.92993H11.2128Z" fill="#A2A2A2"/>
<path fill-rule="evenodd" clip-rule="evenodd" d="M31.2587 39.085C33.5301 39.085 35.3863 40.9468 35.3863 43.2615C35.3863 45.5786 33.5301 47.4404 31.2587 47.4404C28.9874 47.4404 27.1335 45.5786 27.1335 43.2615C27.1335 40.9468 28.9874 39.085 31.2587 39.085ZM38.6294 26.7903C38.1977 26.1357 37.3911 25.844 36.6434 26.0717C35.8981 26.297 35.3863 26.9895 35.3863 27.7746V36.7418C34.1952 35.9734 32.78 35.5275 31.2587 35.5275C27.0179 35.5275 23.5956 38.9973 23.5956 43.2615C23.5956 47.5258 27.0179 50.9979 31.2587 50.9979C35.5019 50.9979 38.9242 47.5258 38.9242 43.2615V34.2824C40.1059 35.3876 41.7168 36.3031 43.9386 36.6754C44.9009 36.8391 45.8137 36.1845 45.9741 35.2168C46.1368 34.2468 45.4859 33.3314 44.5235 33.1677C42.2711 32.7883 41.1012 31.6546 40.3559 30.4806C39.9643 29.864 39.6837 29.2189 39.4407 28.5999C39.3983 28.4955 39.3535 28.377 39.3063 28.256C39.2308 28.0639 39.153 27.8647 39.0893 27.7058C38.9832 27.4473 38.8322 27.0963 38.6294 26.7903Z" fill="#A2A2A2"/>
<path fill-rule="evenodd" clip-rule="evenodd" d="M8.39428 0H37.1599C38.1364 0 38.9289 0.796878 38.9289 1.77875C38.9289 2.76061 38.1364 3.55749 37.1599 3.55749H8.39428C7.34234 3.55749 6.60881 3.72351 6.12058 4.084C4.90825 4.98049 3.88697 6.39874 3.61102 7.93795C3.35629 9.36569 3.69828 11.1302 5.6465 12.992C6.50975 13.8149 7.83057 14.211 9.38254 14.211H36.674C37.5845 14.211 39.4289 14.211 41.021 15.2854C42.7758 16.4688 43.7829 18.6033 43.7829 21.8454C43.7829 22.8272 42.9904 23.6241 42.0139 23.6241C41.0351 23.6241 40.245 22.8272 40.245 21.8454C40.245 19.3409 39.5067 18.5464 39.0515 18.2381C38.4453 17.8302 37.6245 17.7685 36.6552 17.7685H9.38254C7.46263 17.7685 5.28563 17.3202 3.56856 15.8901L3.62989 39.8487C3.76668 42.2583 4.63465 44.1366 5.91066 45.4078C7.18667 46.6791 8.9745 47.4427 11.1421 47.4427H19.4703C20.4491 47.4427 21.2393 48.2396 21.2393 49.2215C21.2393 50.2033 20.4491 51.0002 19.4703 51.0002H11.1421C8.11125 51.0002 5.40828 49.914 3.41997 47.9337C1.43638 45.9581 0.264147 43.1927 0.0966855 39.9957L0.0919683 39.9506L0.0141341 9.29454V9.25897C-0.0259623 8.59965 0.0141341 7.94744 0.129706 7.30946C0.594353 4.70301 2.23359 2.54005 4.02849 1.21666C5.43422 0.177875 7.0994 0 8.39428 0Z" fill="#1B8354"/>
</g>
</svg>
