<svg width="51" height="51" viewBox="0 0 51 51" fill="none" xmlns="http://www.w3.org/2000/svg">
<mask id="mask0_48_1534" style="mask-type:alpha" maskUnits="userSpaceOnUse" x="0" y="0" width="51" height="51">
<rect y="0.000244141" width="51" height="50.9998" fill="#D9D9D9"/>
</mask>
<g mask="url(#mask0_48_1534)">
<path fill-rule="evenodd" clip-rule="evenodd" d="M20.623 0H30.3794C34.7393 0 38.1907 0 40.8925 0.362929C43.675 0.737717 45.9261 1.52525 47.7004 3.29957C49.4771 5.07626 50.2647 7.32736 50.6371 10.1074C51 12.8092 51 16.263 51 20.6229V20.8909C51 25.2484 51 28.7022 50.6371 31.404C50.2647 34.1841 49.4771 36.4352 47.7004 38.2119C45.9878 39.9245 43.8292 40.7192 41.1772 41.1082C40.207 41.2505 39.3032 40.5792 39.1585 39.6067C39.0162 38.6341 39.6899 37.7303 40.66 37.588C42.8993 37.2607 44.2134 36.6653 45.186 35.6951C46.1894 34.6917 46.7895 33.3159 47.1121 30.9296C47.4395 28.4934 47.4419 25.2793 47.4419 20.7557C47.4419 16.2322 47.4395 13.0204 47.1121 10.5819C46.7895 8.19554 46.1894 6.81974 45.186 5.81634C44.1802 4.81295 42.8068 4.21045 40.4205 3.89021C37.9819 3.56287 34.7678 3.55812 30.2442 3.55812H20.7558C16.2346 3.55812 13.0204 3.56287 10.5819 3.89021C8.19558 4.21045 6.82214 4.81295 5.81637 5.81634C4.81298 6.81974 4.21046 8.19554 3.89023 10.5819C3.56288 13.0204 3.55814 16.2322 3.55814 20.7557C3.55814 25.2793 3.56288 28.4934 3.89023 30.9296C4.21046 33.3159 4.81298 34.6917 5.81637 35.6951C7.21116 37.0899 9.29386 37.6876 13.7154 37.8727C14.6951 37.913 15.4589 38.7408 15.4186 39.7229C15.3783 40.7049 14.548 41.4687 13.566 41.426C9.10409 41.241 5.74284 40.6527 3.30195 38.2119C1.52526 36.4352 0.737721 34.1841 0.365302 31.404C0 28.7022 0 25.2484 0 20.8909V20.6229C0 16.263 0 12.8092 0.365302 10.1074C0.737721 7.32736 1.52526 5.07626 3.30195 3.29957C5.07628 1.52525 7.32739 0.737717 10.1075 0.362929C12.8117 0 16.2631 0 20.623 0Z" fill="#1B8354"/>
<path d="M39.1395 13.6394C39.1395 14.6215 38.3425 15.4185 37.3605 15.4185H13.6395C12.6575 15.4185 11.8605 14.6215 11.8605 13.6394C11.8605 12.6574 12.6575 11.8604 13.6395 11.8604H37.3605C38.3425 11.8604 39.1395 12.6574 39.1395 13.6394Z" fill="#A2A2A2"/>
<path fill-rule="evenodd" clip-rule="evenodd" d="M25.5 27.2788C23.2086 27.2788 21.3489 29.1362 21.3489 31.43C21.3489 33.7214 23.2086 35.5811 25.5 35.5811C27.7938 35.5811 29.6512 33.7214 29.6512 31.43C29.6512 29.1362 27.7938 27.2788 25.5 27.2788ZM22.1767 38.3873C23.1825 38.8688 24.3092 39.1392 25.5 39.1392C29.7579 39.1392 33.2093 35.6879 33.2093 31.43C33.2093 27.1721 29.7579 23.7207 25.5 23.7207C21.2421 23.7207 17.7907 27.1721 17.7907 31.43C17.7907 41.2243 21.8019 47.0098 23.7874 49.8729C23.8751 49.9963 23.9582 50.1149 24.0341 50.2287C24.3922 50.7482 24.9971 51.0376 25.6234 50.9949C26.252 50.9498 26.8094 50.5774 27.0917 50.0152L29.8077 44.5808L36.4781 48.3927C37.2561 48.8387 38.2453 48.6323 38.7837 47.9159C39.3222 47.1996 39.2415 46.1938 38.5987 45.57C38.3496 45.3304 38.0104 44.8607 37.6214 44.1704C37.249 43.5062 36.8884 42.7424 36.5682 42.0047C36.248 41.2694 35.9799 40.5838 35.7925 40.0786C35.6976 39.8248 35.6241 39.6208 35.5743 39.4808C35.5482 39.412 35.5316 39.3575 35.5174 39.3219L35.5055 39.2816L35.5008 39.2721C35.1853 38.3422 34.1771 37.8441 33.2449 38.1572C32.3364 38.4656 31.8406 39.4381 32.111 40.349L32.1395 40.432C32.1656 40.5103 32.2012 40.617 32.2202 40.6692C32.2747 40.8258 32.3577 41.0511 32.4597 41.3239C32.5522 41.573 32.6637 41.8671 32.7918 42.1874L29.9406 40.5601C29.516 40.3158 29.0107 40.2589 28.5434 40.4012C28.0737 40.5435 27.6847 40.8709 27.4665 41.3073L25.2794 45.6838C24.1716 43.881 22.9571 41.4947 22.1767 38.3873Z" fill="#A2A2A2"/>
</g>
</svg>
