<svg width="50" height="50" viewBox="0 0 50 50" fill="none" xmlns="http://www.w3.org/2000/svg">
<mask id="mask0_48_1521" style="mask-type:alpha" maskUnits="userSpaceOnUse" x="0" y="0" width="50" height="50">
<rect width="50" height="50" fill="#D9D9D9"/>
</mask>
<g mask="url(#mask0_48_1521)">
<path fill-rule="evenodd" clip-rule="evenodd" d="M12.7907 6.39535C12.7907 4.7907 14.093 3.48837 15.6977 3.48837C17.3023 3.48837 18.6046 4.7907 18.6046 6.39535C18.6046 8 17.3023 9.30233 15.6977 9.30233C14.093 9.30233 12.7907 8 12.7907 6.39535ZM15.6977 0C12.1651 0 9.30231 2.86279 9.30231 6.39535C9.30231 9.92791 12.1651 12.7907 15.6977 12.7907C19.2302 12.7907 22.093 9.92791 22.093 6.39535C22.093 2.86279 19.2302 0 15.6977 0Z" fill="#1B8354"/>
<path d="M15.5768 15.1162H15.8186C17.907 15.1162 19.6512 15.1162 21.0326 15.3023C22.493 15.4976 23.8116 15.9302 24.8721 16.9883C25.9303 18.0488 26.3628 19.3674 26.5582 20.8255C26.7442 22.2092 26.7442 23.9511 26.7442 26.0418V27.3255C26.7442 28.2883 25.9628 29.0697 25 29.0697C24.0372 29.0697 23.2558 28.2883 23.2558 27.3255V26.1627C23.2558 23.9209 23.2512 22.4139 23.1 21.2906C22.9558 20.2185 22.707 19.7581 22.4047 19.4557C22.1023 19.1534 21.6419 18.9046 20.5698 18.7604C19.4465 18.6092 17.9396 18.6046 15.6977 18.6046C13.4558 18.6046 11.9489 18.6092 10.8256 18.7604C9.75351 18.9046 9.29304 19.1534 8.99072 19.4557C8.68839 19.7581 8.43956 20.2185 8.29537 21.2906C8.14421 22.4139 8.13956 23.9209 8.13956 26.1627V27.3255C8.13956 28.2883 7.35816 29.0697 6.39537 29.0697C5.43258 29.0697 4.65118 28.2883 4.65118 27.3255V26.0418C4.65118 23.9511 4.65118 22.2092 4.83723 20.8255C5.03258 19.3674 5.46514 18.0488 6.52328 16.9883C7.58374 15.9302 8.90235 15.4976 10.3628 15.3023C11.7442 15.1162 13.4884 15.1162 15.5768 15.1162Z" fill="#1B8354"/>
<path fill-rule="evenodd" clip-rule="evenodd" d="M22.5814 46.5116L19.093 36.0465H4.1651L7.65348 46.5116H22.5814ZM0.330221 33.2837C0.658128 32.8279 1.18371 32.5581 1.74417 32.5581H20.3488C21.1 32.5581 21.7674 33.0395 22.0046 33.7511L26.2581 46.5116H34.3023C35.2674 46.5116 36.0465 47.293 36.0465 48.2558C36.0465 49.2209 35.2674 50 34.3023 50H6.39534C5.6465 50 4.97906 49.5186 4.74185 48.8093L0.0906859 34.8558C-0.0860582 34.3232 0.00231385 33.7395 0.330221 33.2837Z" fill="#1B8354"/>
<path fill-rule="evenodd" clip-rule="evenodd" d="M33.7209 27.3255C33.7209 25.7209 35.0232 24.4185 36.6279 24.4185C38.2325 24.4185 39.5349 25.7209 39.5349 27.3255C39.5349 28.9302 38.2325 30.2325 36.6279 30.2325C35.0232 30.2325 33.7209 28.9302 33.7209 27.3255ZM36.6279 20.9302C33.0953 20.9302 30.2325 23.793 30.2325 27.3255C30.2325 30.8581 33.0953 33.7209 36.6279 33.7209C40.1604 33.7209 43.0232 30.8581 43.0232 27.3255C43.0232 23.793 40.1604 20.9302 36.6279 20.9302Z" fill="#A2A2A2"/>
<path d="M29.6512 36.0464C28.6884 36.0464 27.907 36.8278 27.907 37.7906C27.907 38.7534 28.6884 39.5348 29.6512 39.5348H43.6047C45.2093 39.5348 46.5116 40.8371 46.5116 42.4417V43.6045C46.5116 45.2092 45.2093 46.5115 43.6047 46.5115H41.2791C40.3163 46.5115 39.5349 47.2929 39.5349 48.2557C39.5349 49.2185 40.3163 49.9999 41.2791 49.9999H43.6047C47.1372 49.9999 50 47.1371 50 43.6045V42.4417C50 38.9092 47.1372 36.0464 43.6047 36.0464H29.6512Z" fill="#A2A2A2"/>
</g>
</svg>
