<svg width="16" height="16" viewBox="0 0 16 16" fill="none" xmlns="http://www.w3.org/2000/svg">
<mask id="mask0_48_374" style="mask-type:alpha" maskUnits="userSpaceOnUse" x="0" y="0" width="16" height="16">
<rect width="16" height="16" fill="#D9D9D9"/>
</mask>
<g mask="url(#mask0_48_374)">
<path d="M3.31738 3.31705C3.31738 2.88622 3.66704 2.53656 4.09787 2.53656H4.10489C4.53572 2.53656 4.88538 2.88622 4.88538 3.31705C4.88538 3.74788 4.53572 4.09754 4.10489 4.09754H4.09787C3.66704 4.09754 3.31738 3.74788 3.31738 3.31705Z" fill="#161616"/>
<path d="M7.21994 2.53656C6.78911 2.53656 6.43945 2.88622 6.43945 3.31705C6.43945 3.74788 6.78911 4.09754 7.21994 4.09754H7.22697C7.65779 4.09754 8.00745 3.74788 8.00745 3.31705C8.00745 2.88622 7.65779 2.53656 7.22697 2.53656H7.21994Z" fill="#161616"/>
<path d="M7.99952 8.58534C6.16772 8.58534 4.68245 10.0706 4.68245 11.9024C4.68245 12.2255 4.42021 12.4878 4.09708 12.4878C3.77396 12.4878 3.51172 12.2255 3.51172 11.9024C3.51172 9.42359 5.52069 7.41461 7.99952 7.41461C10.4784 7.41461 12.4873 9.42359 12.4873 11.9024C12.4873 12.2255 12.2251 12.4878 11.902 12.4878C11.5788 12.4878 11.3166 12.2255 11.3166 11.9024C11.3166 10.0706 9.83133 8.58534 7.99952 8.58534Z" fill="#161616"/>
<path d="M8.96552 10.9838C9.19421 10.7551 9.19421 10.3844 8.96552 10.1557C8.73684 9.92702 8.36611 9.92702 8.13743 10.1557L7.03382 11.2601C6.80513 11.488 6.80513 11.8587 7.03382 12.0874C7.2625 12.3161 7.63323 12.3161 7.86191 12.0874L8.96552 10.9838Z" fill="#161616"/>
<path fill-rule="evenodd" clip-rule="evenodd" d="M1.17776 6.2439C1.17073 6.76839 1.17073 7.34985 1.17073 8C1.17073 9.7639 1.17151 11.0283 1.30107 11.9899C1.42829 12.9342 1.66868 13.4985 2.08468 13.9145C2.50068 14.3313 3.06498 14.5717 4.01015 14.6989C4.97171 14.8277 6.23532 14.8293 8 14.8293C9.7639 14.8293 11.0283 14.8277 11.9899 14.6989C12.9342 14.5717 13.4985 14.3313 13.9145 13.9145C14.3305 13.4985 14.5717 12.9342 14.6989 11.9899C14.8277 11.0283 14.8293 9.7639 14.8293 8C14.8293 7.34985 14.8293 6.76839 14.8222 6.2439H1.17776ZM2.08468 2.08546C2.50068 1.66946 3.06498 1.42829 4.01015 1.30107C4.97171 1.17229 6.23532 1.17073 8 1.17073C9.7639 1.17073 11.0283 1.17229 11.9899 1.30107C12.9342 1.42829 13.4985 1.66946 13.9145 2.08546C14.3305 2.50146 14.5717 3.06576 14.6989 4.01015C14.7419 4.32859 14.77 4.68059 14.7895 5.07317H1.21054C1.22927 4.68059 1.25815 4.32859 1.30107 4.01015C1.42829 3.06576 1.66868 2.50146 2.08468 2.08546ZM8.04449 0H7.95551C6.24546 0 4.90224 0 3.85405 0.141268C2.77932 0.285659 1.92702 0.587707 1.25737 1.25737C0.587707 1.92702 0.285659 2.77932 0.140488 3.85405C0 4.90224 0 6.24546 0 7.95551V8.04449C0 9.75454 0 11.0978 0.140488 12.146C0.285659 13.2207 0.587707 14.073 1.25737 14.7426C1.92702 15.4123 2.77932 15.7143 3.85405 15.8587C4.90224 16 6.24546 16 7.95551 16H8.04449C9.75454 16 11.097 16 12.146 15.8587C13.2199 15.7143 14.073 15.4123 14.7426 14.7426C15.4123 14.073 15.7143 13.2207 15.8587 12.146C16 11.0978 16 9.75454 16 8.04449V7.95551C16 6.24546 16 4.90224 15.8587 3.85405C15.7143 2.77932 15.4123 1.92702 14.7426 1.25737C14.073 0.587707 13.2199 0.285659 12.146 0.141268C11.097 0 9.75454 0 8.04449 0Z" fill="#161616"/>
</g>
</svg>
