<svg width="18" height="13" viewBox="0 0 18 13" fill="none" xmlns="http://www.w3.org/2000/svg">
<mask id="mask0_48_1766" style="mask-type:alpha" maskUnits="userSpaceOnUse" x="0" y="-1" width="19" height="14">
<rect y="-0.000299454" width="18.0003" height="13.0003" fill="#D9D9D9"/>
</mask>
<g mask="url(#mask0_48_1766)">
<path fill-rule="evenodd" clip-rule="evenodd" d="M7.11593 6.49965C7.11593 7.54132 7.95883 8.38674 8.99965 8.38674C10.0405 8.38674 10.8834 7.54132 10.8834 6.49965C10.8834 5.45697 10.0405 4.61256 8.99965 4.61256C7.95883 4.61256 7.11593 5.45697 7.11593 6.49965ZM8.99965 9.6448C7.26563 9.6448 5.86012 8.23678 5.86012 6.49965C5.86012 4.76252 7.26563 3.35449 8.99965 3.35449C10.7337 3.35449 12.1392 4.76252 12.1392 6.49965C12.1392 8.23678 10.7337 9.6448 8.99965 9.6448Z" fill="#161616"/>
<path fill-rule="evenodd" clip-rule="evenodd" d="M1.52104 6.06385C2.0736 5.28788 3.04911 4.0731 4.34712 3.05759C5.64713 2.04108 7.22544 1.25806 8.99965 1.25806C10.7739 1.25806 12.3522 2.04108 13.6522 3.05759C14.9502 4.0731 15.9257 5.28788 16.4783 6.06385C16.6159 6.25609 16.6802 6.34969 16.7194 6.42517C16.7435 6.47247 16.7435 6.48556 16.7435 6.49763V6.49965V6.50166C16.7435 6.51474 16.7435 6.52783 16.7194 6.57513C16.6802 6.64961 16.6159 6.74321 16.4783 6.93544C15.9257 7.71242 14.9502 8.9272 13.6522 9.94271C12.3522 10.9592 10.7739 11.7422 8.99965 11.7422C7.22544 11.7422 5.64713 10.9592 4.34712 9.94271C3.04911 8.9272 2.0736 7.71242 1.52104 6.93544C1.3834 6.74321 1.3191 6.64961 1.27992 6.57513C1.25581 6.52783 1.25581 6.51474 1.25581 6.50166V6.49965V6.49763C1.25581 6.48556 1.25581 6.47247 1.27992 6.42517C1.3191 6.34969 1.3834 6.25609 1.52104 6.06385ZM8.99965 0C6.84769 0 5.00315 0.949081 3.57454 2.06523C2.14593 3.1834 1.08904 4.50386 0.498306 5.33418L0.453097 5.39557C0.24212 5.69147 0 6.02863 0 6.49965C0 6.97167 0.24212 7.30883 0.453097 7.60372L0.498306 7.66612C1.08904 8.49644 2.14593 9.8159 3.57454 10.9341C5.00315 12.0512 6.84769 13.0003 8.99965 13.0003C11.1516 13.0003 12.9961 12.0512 14.4248 10.9341C15.8534 9.8159 16.9103 8.49644 17.501 7.66612L17.5462 7.60372C17.7572 7.30883 17.9993 6.97167 17.9993 6.49965C17.9993 6.02863 17.7572 5.69147 17.5462 5.39557L17.501 5.33418C16.9103 4.50386 15.8534 3.1834 14.4248 2.06523C12.9961 0.949081 11.1516 0 8.99965 0Z" fill="#161616"/>
</g>
<path d="M8.88791 12.9995C6.78461 12.9671 4.9783 12.0311 3.57521 10.934C2.14601 9.8162 1.0894 8.4959 0.499008 7.6661L0.45311 7.604C0.242508 7.3088 0.000411987 6.9713 0.000411987 6.4997C0.000411987 6.0281 0.242508 5.6915 0.45311 5.3954L0.499008 5.3342C1.0894 4.5035 2.14601 3.1832 3.57521 2.0654C5.00351 0.9494 6.84851 -9.91821e-05 9.00041 -9.91821e-05C11.1523 -9.91821e-05 12.9964 0.9494 14.4256 2.0654C15.8539 3.1832 16.9105 4.5035 17.5018 5.3342L17.5468 5.3954C17.7574 5.6915 17.9995 6.0281 17.9995 6.4997C17.9995 6.9713 17.7574 7.3088 17.5468 7.604L17.5018 7.6661C16.9105 8.4959 15.8539 9.8162 14.4256 10.934C13.0216 12.0311 11.2162 12.9671 9.1129 12.9995H8.88791ZM4.34741 3.0572C3.04961 4.0733 2.07401 5.2874 1.52141 6.0641C1.38371 6.2558 1.31981 6.3494 1.28021 6.425C1.25591 6.4727 1.25591 6.4853 1.25591 6.4979V6.4997V6.5015C1.25591 6.515 1.25591 6.5276 1.28021 6.5753C1.31981 6.6491 1.38371 6.7427 1.52141 6.9353C2.07401 7.712 3.04961 8.927 4.34741 9.9422C5.6479 10.9592 7.2256 11.7422 9.00041 11.7422C10.7743 11.7422 12.3529 10.9592 13.6525 9.9422C14.9503 8.927 15.9259 7.712 16.4785 6.9353C16.6162 6.7427 16.681 6.6491 16.7197 6.5753C16.744 6.5276 16.744 6.515 16.744 6.5015V6.4997V6.4979C16.744 6.4853 16.744 6.4727 16.7197 6.425C16.681 6.3494 16.6162 6.2558 16.4785 6.0641C15.9259 5.2874 14.9503 4.0733 13.6525 3.0572C12.3529 2.0411 10.7743 1.2581 9.00041 1.2581C7.2256 1.2581 5.6479 2.0411 4.34741 3.0572ZM5.86031 6.4997C5.86031 4.7627 7.2661 3.3542 9.00041 3.3542C10.7338 3.3542 12.1396 4.7627 12.1396 6.4997C12.1396 8.2367 10.7338 9.6443 9.00041 9.6443C7.2661 9.6443 5.86031 8.2367 5.86031 6.4997ZM7.1167 6.4997C7.1167 7.541 7.95911 8.387 9.00041 8.387C10.0408 8.387 10.8841 7.541 10.8841 6.4997C10.8841 5.4566 10.0408 4.6124 9.00041 4.6124C7.95911 4.6124 7.1167 5.4566 7.1167 6.4997Z" fill="#EAEAEA"/>
</svg>
