<svg xmlns="http://www.w3.org/2000/svg" viewBox="0 0 256 256" focusable="false" color="var(--token-67decdc6-b6ff-46da-86e0-5c4ede436d4c, rgb(38, 66, 107))" style="user-select: none; width: 100%; height: 100%; display: inline-block; fill: var(--token-67decdc6-b6ff-46da-86e0-5c4ede436d4c, rgb(38, 66, 107)); color: var(--token-67decdc6-b6ff-46da-86e0-5c4ede436d4c, rgb(38, 66, 107)); flex-shrink: 0;">
<g color="var(--token-67decdc6-b6ff-46da-86e0-5c4ede436d4c, rgb(38, 66, 107))" weight="fill">
<path d="M236.8,188.09,149.35,36.22h0a24.76,24.76,0,0,0-42.7,0L19.2,188.09a23.51,23.51,0,0,0,0,23.72A24.35,24.35,0,0,0,40.55,224h174.9a24.35,24.35,0,0,0,21.33-12.19A23.51,23.51,0,0,0,236.8,188.09ZM120,104a8,8,0,0,1,16,0v40a8,8,0,0,1-16,0Zm8,88a12,12,0,1,1,12-12A12,12,0,0,1,128,192Z"></path>
</g>
</svg>