<svg xmlns="http://www.w3.org/2000/svg" viewBox="0 0 256 256" focusable="false" color="var(--token-db1c7457-9e71-4ea2-8dd6-f4b3d4d6cf25, rgb(31, 31, 31))" style="user-select: none; width: 100%; height: 100%; display: inline-block; fill: var(--token-db1c7457-9e71-4ea2-8dd6-f4b3d4d6cf25, rgb(31, 31, 31)); color: var(--token-db1c7457-9e71-4ea2-8dd6-f4b3d4d6cf25, rgb(31, 31, 31)); flex-shrink: 0;"><g color="var(--token-db1c7457-9e71-4ea2-8dd6-f4b3d4d6cf25, rgb(31, 31, 31))" weight="regular"><path d="M128,24A104,104,0,1,0,232,128,104.11,104.11,0,0,0,128,24Zm0,192a88,88,0,1,1,88-88A88.1,88.1,0,0,1,128,216Zm64-88a8,8,0,0,1-8,8H128a8,8,0,0,1-8-8V72a8,8,0,0,1,16,0v48h48A8,8,0,0,1,192,128Z"></path></g></svg>